<svg width="308" height="282" viewBox="0 0 308 282" fill="none" xmlns="http://www.w3.org/2000/svg">
<g filter="url(#filter0_d)">
<rect x="4" width="300" height="274" rx="10" fill="#F48046"/>
</g>
<path d="M128.554 135.625V143.359C128.549 144.432 128.21 145.31 127.538 145.992C126.872 146.674 125.966 147.057 124.82 147.141L124.421 147.156C123.176 147.156 122.184 146.82 121.445 146.148C120.705 145.477 120.33 144.552 120.32 143.375V135.625H121.804V143.328C121.804 144.151 122.031 144.792 122.484 145.25C122.937 145.703 123.583 145.93 124.421 145.93C125.27 145.93 125.919 145.703 126.367 145.25C126.82 144.797 127.046 144.159 127.046 143.336V135.625H128.554ZM144.513 141.93C143.226 141.56 142.289 141.107 141.7 140.57C141.117 140.029 140.825 139.362 140.825 138.57C140.825 137.674 141.182 136.935 141.896 136.352C142.614 135.763 143.547 135.469 144.692 135.469C145.474 135.469 146.169 135.62 146.778 135.922C147.393 136.224 147.867 136.641 148.2 137.172C148.539 137.703 148.708 138.284 148.708 138.914H147.2C147.2 138.227 146.982 137.688 146.544 137.297C146.107 136.901 145.489 136.703 144.692 136.703C143.953 136.703 143.375 136.867 142.958 137.195C142.547 137.518 142.341 137.969 142.341 138.547C142.341 139.01 142.536 139.404 142.927 139.727C143.323 140.044 143.992 140.336 144.935 140.602C145.883 140.867 146.622 141.161 147.153 141.484C147.69 141.802 148.086 142.174 148.341 142.602C148.601 143.029 148.732 143.531 148.732 144.109C148.732 145.031 148.372 145.771 147.653 146.328C146.935 146.88 145.974 147.156 144.771 147.156C143.989 147.156 143.26 147.008 142.583 146.711C141.906 146.409 141.383 145.997 141.013 145.477C140.648 144.956 140.466 144.365 140.466 143.703H141.974C141.974 144.391 142.226 144.935 142.732 145.336C143.242 145.732 143.922 145.93 144.771 145.93C145.562 145.93 146.169 145.768 146.591 145.445C147.013 145.122 147.224 144.682 147.224 144.125C147.224 143.568 147.028 143.138 146.638 142.836C146.247 142.529 145.539 142.227 144.513 141.93ZM167.331 141.742H162.401V145.773H168.128V147H160.901V135.625H168.05V136.859H162.401V140.516H167.331V141.742ZM184.407 142.398H181.735V147H180.227V135.625H183.993C185.274 135.625 186.258 135.917 186.946 136.5C187.639 137.083 187.985 137.932 187.985 139.047C187.985 139.755 187.792 140.372 187.407 140.898C187.027 141.424 186.495 141.818 185.813 142.078L188.485 146.906V147H186.876L184.407 142.398ZM181.735 141.172H184.04C184.784 141.172 185.376 140.979 185.813 140.594C186.256 140.208 186.477 139.693 186.477 139.047C186.477 138.344 186.266 137.805 185.844 137.43C185.428 137.055 184.824 136.865 184.032 136.859H181.735V141.172ZM83.8163 165.398H81.1444V170H79.6366V158.625H83.4022C84.6834 158.625 85.6678 158.917 86.3553 159.5C87.048 160.083 87.3944 160.932 87.3944 162.047C87.3944 162.755 87.2017 163.372 86.8163 163.898C86.436 164.424 85.9048 164.818 85.2225 165.078L87.8944 169.906V170H86.285L83.8163 165.398ZM81.1444 164.172H83.4491C84.1939 164.172 84.785 163.979 85.2225 163.594C85.6652 163.208 85.8866 162.693 85.8866 162.047C85.8866 161.344 85.6756 160.805 85.2538 160.43C84.8371 160.055 84.2329 159.865 83.4413 159.859H81.1444V164.172ZM106.173 164.742H101.244V168.773H106.97V170H99.7438V158.625H106.892V159.859H101.244V163.516H106.173V164.742ZM122.429 164.93C121.143 164.56 120.205 164.107 119.617 163.57C119.033 163.029 118.742 162.362 118.742 161.57C118.742 160.674 119.098 159.935 119.812 159.352C120.531 158.763 121.463 158.469 122.609 158.469C123.39 158.469 124.085 158.62 124.695 158.922C125.309 159.224 125.783 159.641 126.117 160.172C126.455 160.703 126.624 161.284 126.624 161.914H125.117C125.117 161.227 124.898 160.688 124.46 160.297C124.023 159.901 123.406 159.703 122.609 159.703C121.869 159.703 121.291 159.867 120.874 160.195C120.463 160.518 120.257 160.969 120.257 161.547C120.257 162.01 120.453 162.404 120.843 162.727C121.239 163.044 121.908 163.336 122.851 163.602C123.799 163.867 124.538 164.161 125.07 164.484C125.606 164.802 126.002 165.174 126.257 165.602C126.518 166.029 126.648 166.531 126.648 167.109C126.648 168.031 126.288 168.771 125.57 169.328C124.851 169.88 123.89 170.156 122.687 170.156C121.906 170.156 121.176 170.008 120.499 169.711C119.822 169.409 119.299 168.997 118.929 168.477C118.564 167.956 118.382 167.365 118.382 166.703H119.89C119.89 167.391 120.143 167.935 120.648 168.336C121.158 168.732 121.838 168.93 122.687 168.93C123.479 168.93 124.085 168.768 124.507 168.445C124.929 168.122 125.14 167.682 125.14 167.125C125.14 166.568 124.945 166.138 124.554 165.836C124.163 165.529 123.455 165.227 122.429 164.93ZM145.247 164.742H140.318V168.773H146.044V170H138.818V158.625H145.966V159.859H140.318V163.516H145.247V164.742ZM164.433 167.031H159.667L158.597 170H157.05L161.393 158.625H162.706L167.058 170H165.518L164.433 167.031ZM160.12 165.797H163.987L162.05 160.477L160.12 165.797ZM183.001 165.398H180.329V170H178.821V158.625H182.587C183.868 158.625 184.852 158.917 185.54 159.5C186.232 160.083 186.579 160.932 186.579 162.047C186.579 162.755 186.386 163.372 186.001 163.898C185.62 164.424 185.089 164.818 184.407 165.078L187.079 169.906V170H185.469L183.001 165.398ZM180.329 164.172H182.633C183.378 164.172 183.969 163.979 184.407 163.594C184.85 163.208 185.071 162.693 185.071 162.047C185.071 161.344 184.86 160.805 184.438 160.43C184.021 160.055 183.417 159.865 182.626 159.859H180.329V164.172ZM207.295 166.391C207.155 167.594 206.709 168.523 205.959 169.18C205.215 169.831 204.222 170.156 202.983 170.156C201.639 170.156 200.561 169.674 199.748 168.711C198.941 167.747 198.538 166.458 198.538 164.844V163.75C198.538 162.693 198.725 161.763 199.1 160.961C199.48 160.159 200.017 159.544 200.709 159.117C201.402 158.685 202.204 158.469 203.116 158.469C204.324 158.469 205.293 158.807 206.022 159.484C206.751 160.156 207.176 161.089 207.295 162.281H205.788C205.657 161.375 205.373 160.719 204.936 160.312C204.504 159.906 203.897 159.703 203.116 159.703C202.157 159.703 201.405 160.057 200.858 160.766C200.316 161.474 200.045 162.482 200.045 163.789V164.891C200.045 166.125 200.303 167.107 200.819 167.836C201.334 168.565 202.056 168.93 202.983 168.93C203.816 168.93 204.454 168.742 204.897 168.367C205.345 167.987 205.642 167.328 205.788 166.391H207.295ZM228.332 170H226.824V164.742H221.09V170H219.59V158.625H221.09V163.516H226.824V158.625H228.332V170Z" fill="white"/>
<path d="M91.7891 102.625V110.117C91.7891 111.362 91.3984 112.346 90.6172 113.07C89.8411 113.794 88.7786 114.156 87.4297 114.156C86.1016 114.156 85.0469 113.805 84.2656 113.102C83.4844 112.398 83.0859 111.432 83.0703 110.203V102.625H85.4141V110.133C85.4141 110.878 85.5911 111.422 85.9453 111.766C86.3047 112.104 86.7995 112.273 87.4297 112.273C88.7474 112.273 89.4167 111.581 89.4375 110.195V102.625H91.7891ZM102.961 114H100.617L96.0547 106.516V114H93.7109V102.625H96.0547L100.625 110.125V102.625H102.961V114ZM113.938 110.211C113.849 111.435 113.396 112.398 112.578 113.102C111.766 113.805 110.693 114.156 109.359 114.156C107.901 114.156 106.753 113.667 105.914 112.688C105.081 111.703 104.664 110.354 104.664 108.641V107.945C104.664 106.852 104.857 105.888 105.242 105.055C105.628 104.221 106.177 103.583 106.891 103.141C107.609 102.693 108.443 102.469 109.391 102.469C110.703 102.469 111.76 102.82 112.562 103.523C113.365 104.227 113.828 105.214 113.953 106.484H111.609C111.552 105.75 111.346 105.219 110.992 104.891C110.643 104.557 110.109 104.391 109.391 104.391C108.609 104.391 108.023 104.672 107.633 105.234C107.247 105.792 107.049 106.659 107.039 107.836V108.695C107.039 109.924 107.224 110.823 107.594 111.391C107.969 111.958 108.557 112.242 109.359 112.242C110.083 112.242 110.622 112.078 110.977 111.75C111.336 111.417 111.542 110.904 111.594 110.211H113.938ZM124.82 108.57C124.82 109.69 124.622 110.672 124.227 111.516C123.831 112.359 123.263 113.01 122.523 113.469C121.789 113.927 120.945 114.156 119.992 114.156C119.049 114.156 118.208 113.93 117.469 113.477C116.729 113.023 116.156 112.378 115.75 111.539C115.344 110.695 115.138 109.727 115.133 108.633V108.07C115.133 106.951 115.333 105.966 115.734 105.117C116.141 104.263 116.711 103.609 117.445 103.156C118.185 102.698 119.029 102.469 119.977 102.469C120.924 102.469 121.766 102.698 122.5 103.156C123.24 103.609 123.81 104.263 124.211 105.117C124.617 105.966 124.82 106.948 124.82 108.062V108.57ZM122.445 108.055C122.445 106.862 122.232 105.956 121.805 105.336C121.378 104.716 120.768 104.406 119.977 104.406C119.19 104.406 118.583 104.714 118.156 105.328C117.729 105.938 117.513 106.833 117.508 108.016V108.57C117.508 109.732 117.721 110.633 118.148 111.273C118.576 111.914 119.19 112.234 119.992 112.234C120.779 112.234 121.383 111.927 121.805 111.312C122.227 110.693 122.44 109.792 122.445 108.609V108.055ZM135.773 114H133.43L128.867 106.516V114H126.523V102.625H128.867L133.438 110.125V102.625H135.773V114ZM142.023 111.18L144.602 102.625H147.211L143.25 114H140.805L136.859 102.625H139.461L142.023 111.18ZM155.133 109.07H150.633V112.117H155.914V114H148.289V102.625H155.898V104.523H150.633V107.234H155.133V109.07ZM166.539 114H164.195L159.633 106.516V114H157.289V102.625H159.633L164.203 110.125V102.625H166.539V114ZM176.914 104.523H173.43V114H171.086V104.523H167.648V102.625H176.914V104.523ZM180.75 114H178.406V102.625H180.75V114ZM192.273 108.57C192.273 109.69 192.076 110.672 191.68 111.516C191.284 112.359 190.716 113.01 189.977 113.469C189.242 113.927 188.398 114.156 187.445 114.156C186.503 114.156 185.661 113.93 184.922 113.477C184.182 113.023 183.609 112.378 183.203 111.539C182.797 110.695 182.591 109.727 182.586 108.633V108.07C182.586 106.951 182.786 105.966 183.188 105.117C183.594 104.263 184.164 103.609 184.898 103.156C185.638 102.698 186.482 102.469 187.43 102.469C188.378 102.469 189.219 102.698 189.953 103.156C190.693 103.609 191.263 104.263 191.664 105.117C192.07 105.966 192.273 106.948 192.273 108.062V108.57ZM189.898 108.055C189.898 106.862 189.685 105.956 189.258 105.336C188.831 104.716 188.221 104.406 187.43 104.406C186.643 104.406 186.036 104.714 185.609 105.328C185.182 105.938 184.966 106.833 184.961 108.016V108.57C184.961 109.732 185.174 110.633 185.602 111.273C186.029 111.914 186.643 112.234 187.445 112.234C188.232 112.234 188.836 111.927 189.258 111.312C189.68 110.693 189.893 109.792 189.898 108.609V108.055ZM203.227 114H200.883L196.32 106.516V114H193.977V102.625H196.32L200.891 110.125V102.625H203.227V114ZM211.836 111.656H207.727L206.945 114H204.453L208.688 102.625H210.859L215.117 114H212.625L211.836 111.656ZM208.359 109.758H211.203L209.773 105.5L208.359 109.758ZM218.523 112.117H223.5V114H216.18V102.625H218.523V112.117Z" fill="white"/>
<path d="M186.933 127.674V107.687C186.986 98.643 183.374 89.9471 176.926 83.6057C170.691 77.3981 162.53 74 153.888 74C153.754 74 153.594 74 153.46 74C135.024 74.0268 120.041 89.1176 120.041 107.687V127.674C113.084 128.504 108 134.337 108 141.4V186.298C108 193.924 114.101 200.212 121.726 200.212H185.274C192.899 200.212 199 193.924 199 186.298V141.4C198.973 134.363 193.889 128.504 186.933 127.674ZM125.365 107.687H125.392C125.392 92.0609 137.994 79.2711 153.487 79.2711H153.513C160.872 79.2443 167.935 82.1608 173.153 87.3517C178.585 92.7298 181.608 100.061 181.555 107.687V127.701H175.668V107.687C175.722 101.613 173.313 95.7801 169.006 91.499C164.939 87.4319 159.427 85.1308 153.674 85.1308H153.513C141.205 85.1308 131.252 95.2449 131.252 107.66V127.701H125.365V107.687ZM170.343 107.687V127.701H136.63V107.687C136.63 98.2149 144.175 90.509 153.54 90.509H153.701C158.035 90.509 162.209 92.2482 165.286 95.3252C168.551 98.5895 170.397 103.058 170.343 107.687ZM193.889 186.379C193.889 191.061 190.09 194.861 185.408 194.861H121.833C117.151 194.861 113.351 191.061 113.351 186.379V141.534C113.351 136.852 117.151 133.052 121.833 133.052H185.408C190.09 133.052 193.889 136.852 193.889 141.534V186.379Z" fill="white" fill-opacity="0.17"/>
<path d="M162.749 162.294C161.572 158.147 157.799 155.311 153.491 155.311C148.167 155.311 143.832 159.618 143.832 164.97C143.832 169.278 146.668 173.05 150.816 174.228V181.72C150.816 183.191 152.02 184.395 153.491 184.395C154.963 184.395 156.167 183.191 156.167 181.72V174.228C161.277 172.756 164.248 167.405 162.749 162.294ZM153.491 169.251C151.11 169.251 149.183 167.324 149.183 164.943C149.183 162.562 151.11 160.635 153.491 160.635C155.873 160.635 157.799 162.562 157.799 164.943C157.799 167.324 155.873 169.251 153.491 169.251Z" fill="white" fill-opacity="0.17"/>
<defs>
<filter id="filter0_d" x="0" y="0" width="308" height="282" filterUnits="userSpaceOnUse" color-interpolation-filters="sRGB">
<feFlood flood-opacity="0" result="BackgroundImageFix"/>
<feColorMatrix in="SourceAlpha" type="matrix" values="0 0 0 0 0 0 0 0 0 0 0 0 0 0 0 0 0 0 127 0"/>
<feOffset dy="4"/>
<feGaussianBlur stdDeviation="2"/>
<feColorMatrix type="matrix" values="0 0 0 0 0.516667 0 0 0 0 0.516667 0 0 0 0 0.516667 0 0 0 0.25 0"/>
<feBlend mode="normal" in2="BackgroundImageFix" result="effect1_dropShadow"/>
<feBlend mode="normal" in="SourceGraphic" in2="effect1_dropShadow" result="shape"/>
</filter>
</defs>
</svg>
