<svg width="304" height="278" viewBox="0 0 304 278" fill="none" xmlns="http://www.w3.org/2000/svg">
<g filter="url(#filter0_d)">
<g clip-path="url(#clip0)">
<rect x="4" width="296" height="270" rx="5" fill="white"/>
<path d="M93.9018 129L92.4068 121.824L94.2658 121.681L94.8898 125.828L95.8128 121.837L97.3338 121.681L98.1268 125.776L98.9198 121.837L100.402 121.759L98.7248 129H97.2558L96.4238 124.255L95.3968 129H93.9018ZM104.531 129.169C103.655 129.169 102.979 128.822 102.503 128.129C102.035 127.436 101.801 126.513 101.801 125.36C101.801 124.216 102.035 123.302 102.503 122.617C102.971 121.932 103.647 121.59 104.531 121.59C105.406 121.59 106.082 121.932 106.559 122.617C107.044 123.302 107.287 124.216 107.287 125.36C107.287 126.504 107.044 127.427 106.559 128.129C106.082 128.822 105.406 129.169 104.531 129.169ZM104.531 127.817C104.921 127.817 105.172 127.579 105.285 127.102C105.397 126.625 105.454 126.04 105.454 125.347C105.454 124.654 105.397 124.069 105.285 123.592C105.172 123.115 104.921 122.877 104.531 122.877C104.141 122.877 103.894 123.102 103.79 123.553C103.686 124.004 103.634 124.554 103.634 125.204C103.634 126.001 103.686 126.638 103.79 127.115C103.894 127.583 104.141 127.817 104.531 127.817ZM109.37 121.837L111.19 121.681V122.864C111.45 122.491 111.77 122.192 112.152 121.967C112.542 121.733 113.036 121.616 113.634 121.616V123.397C113.322 123.397 112.91 123.453 112.399 123.566C111.896 123.67 111.493 123.856 111.19 124.125V128.922L109.37 129.078V121.837ZM119.371 129.169L117.889 125.529L117.291 126.322V129H115.471V119.484L117.291 119.25V124.086L119.15 121.681H121.126L119.072 124.32L120.983 128.623L119.371 129.169ZM122.829 120.745V118.86L124.649 118.73V120.667L122.829 120.745ZM122.816 129.078V121.837L124.636 121.681V128.922L122.816 129.078ZM127.076 121.837L128.896 121.681V122.617C129.268 122.288 129.632 122.036 129.988 121.863C130.352 121.681 130.685 121.59 130.989 121.59C131.448 121.59 131.821 121.759 132.107 122.097C132.401 122.426 132.549 122.873 132.549 123.436V128.922L130.729 129.078V124.125C130.729 123.475 130.508 123.15 130.066 123.15C129.918 123.15 129.754 123.193 129.572 123.28C129.398 123.367 129.173 123.492 128.896 123.657V128.922L127.076 129.078V121.837ZM137.411 131.275C136.441 131.275 135.687 131.136 135.149 130.859C134.612 130.59 134.343 130.218 134.343 129.741C134.343 129.412 134.465 129.134 134.707 128.909C134.95 128.675 135.258 128.489 135.63 128.35C135.301 128.255 135.054 128.133 134.889 127.986C134.725 127.839 134.642 127.626 134.642 127.349C134.642 127.011 134.759 126.708 134.993 126.439C135.227 126.162 135.535 125.932 135.916 125.75C135.136 125.299 134.746 124.671 134.746 123.865C134.746 123.38 134.876 122.968 135.136 122.63C135.405 122.283 135.747 122.023 136.163 121.85C136.588 121.677 137.03 121.59 137.489 121.59C138.174 121.59 138.781 121.772 139.309 122.136C139.569 121.902 139.829 121.707 140.089 121.551C140.358 121.395 140.692 121.317 141.09 121.317V122.526C140.588 122.526 140.202 122.587 139.933 122.708C140.037 122.977 140.107 123.189 140.141 123.345C140.185 123.501 140.206 123.67 140.206 123.852C140.206 124.441 140.007 124.957 139.608 125.399C139.21 125.832 138.56 126.049 137.658 126.049L137.177 126.036C137.099 126.027 137.004 126.023 136.891 126.023C136.779 126.058 136.67 126.136 136.566 126.257C136.462 126.37 136.41 126.491 136.41 126.621C136.41 126.742 136.454 126.846 136.54 126.933C136.627 127.02 136.735 127.072 136.865 127.089L138.945 127.323C140.15 127.462 140.752 128.047 140.752 129.078C140.752 129.884 140.44 130.452 139.816 130.781C139.201 131.11 138.399 131.275 137.411 131.275ZM137.463 125.009C137.732 125.009 137.94 124.909 138.087 124.71C138.235 124.502 138.308 124.212 138.308 123.839C138.308 123.458 138.23 123.172 138.074 122.981C137.918 122.79 137.719 122.695 137.476 122.695C137.208 122.695 136.995 122.803 136.839 123.02C136.683 123.237 136.605 123.505 136.605 123.826C136.605 124.121 136.67 124.394 136.8 124.645C136.93 124.888 137.151 125.009 137.463 125.009ZM137.489 129.949C138.477 129.949 138.971 129.68 138.971 129.143C138.971 128.996 138.932 128.887 138.854 128.818C138.776 128.749 138.651 128.701 138.477 128.675C138.313 128.64 138.04 128.61 137.658 128.584L136.579 128.493C136.423 128.545 136.289 128.64 136.176 128.779C136.064 128.909 136.007 129.056 136.007 129.221C136.007 129.455 136.129 129.633 136.371 129.754C136.623 129.884 136.995 129.949 137.489 129.949ZM149.207 129.143C148.618 129.143 148.12 128.996 147.712 128.701C147.305 128.398 147.101 127.865 147.101 127.102V123.059H146.087L146.165 121.681H147.153L147.335 120.095L148.921 119.874V121.681H150.429L150.351 123.059H148.934V127.089C148.934 127.349 148.999 127.535 149.129 127.648C149.259 127.761 149.45 127.817 149.701 127.817C149.84 127.817 150.074 127.791 150.403 127.739V129C150.369 129.009 150.23 129.035 149.987 129.078C149.753 129.121 149.493 129.143 149.207 129.143ZM154.62 129.169C153.744 129.169 153.068 128.822 152.592 128.129C152.124 127.436 151.89 126.513 151.89 125.36C151.89 124.216 152.124 123.302 152.592 122.617C153.06 121.932 153.736 121.59 154.62 121.59C155.495 121.59 156.171 121.932 156.648 122.617C157.133 123.302 157.376 124.216 157.376 125.36C157.376 126.504 157.133 127.427 156.648 128.129C156.171 128.822 155.495 129.169 154.62 129.169ZM154.62 127.817C155.01 127.817 155.261 127.579 155.374 127.102C155.486 126.625 155.543 126.04 155.543 125.347C155.543 124.654 155.486 124.069 155.374 123.592C155.261 123.115 155.01 122.877 154.62 122.877C154.23 122.877 153.983 123.102 153.879 123.553C153.775 124.004 153.723 124.554 153.723 125.204C153.723 126.001 153.775 126.638 153.879 127.115C153.983 127.583 154.23 127.817 154.62 127.817ZM163.491 120.745V118.86L165.311 118.73V120.667L163.491 120.745ZM163.478 129.078V121.837L165.298 121.681V128.922L163.478 129.078ZM167.738 121.837L169.519 121.681V122.617C169.787 122.305 170.095 122.058 170.442 121.876C170.797 121.685 171.148 121.59 171.495 121.59C172.041 121.59 172.4 121.971 172.574 122.734C173.146 121.971 173.787 121.59 174.498 121.59C174.966 121.59 175.299 121.776 175.499 122.149C175.698 122.522 175.798 123.076 175.798 123.813V128.922L174.004 129.078V123.904C174.004 123.67 173.96 123.488 173.874 123.358C173.787 123.219 173.687 123.15 173.575 123.15C173.393 123.15 173.219 123.202 173.055 123.306C172.899 123.401 172.764 123.523 172.652 123.67V128.922L170.871 129.078V123.891C170.871 123.648 170.832 123.466 170.754 123.345C170.684 123.215 170.602 123.15 170.507 123.15C170.333 123.15 170.156 123.202 169.974 123.306C169.792 123.41 169.64 123.531 169.519 123.67V128.922L167.738 129.078V121.837ZM178.168 121.837L179.988 121.681V122.396C180.274 122.11 180.538 121.906 180.781 121.785C181.032 121.655 181.322 121.59 181.652 121.59C182.102 121.59 182.458 121.716 182.718 121.967C182.986 122.218 183.177 122.613 183.29 123.15C183.411 123.679 183.472 124.389 183.472 125.282C183.472 126.504 183.329 127.457 183.043 128.142C182.765 128.827 182.228 129.169 181.431 129.169C181.067 129.169 180.776 129.1 180.56 128.961C180.343 128.822 180.152 128.627 179.988 128.376V130.911L178.168 131.275V121.837ZM180.781 127.778C181.067 127.778 181.279 127.609 181.418 127.271C181.565 126.933 181.639 126.296 181.639 125.36C181.639 124.467 181.565 123.835 181.418 123.462C181.279 123.089 181.062 122.903 180.768 122.903C180.464 122.903 180.204 123.072 179.988 123.41V127.193C180.161 127.583 180.425 127.778 180.781 127.778ZM185.576 121.837L187.396 121.681V122.864C187.656 122.491 187.977 122.192 188.358 121.967C188.748 121.733 189.242 121.616 189.84 121.616V123.397C189.528 123.397 189.116 123.453 188.605 123.566C188.102 123.67 187.699 123.856 187.396 124.125V128.922L185.576 129.078V121.837ZM194.056 129.169C193.181 129.169 192.505 128.822 192.028 128.129C191.56 127.436 191.326 126.513 191.326 125.36C191.326 124.216 191.56 123.302 192.028 122.617C192.496 121.932 193.172 121.59 194.056 121.59C194.931 121.59 195.607 121.932 196.084 122.617C196.569 123.302 196.812 124.216 196.812 125.36C196.812 126.504 196.569 127.427 196.084 128.129C195.607 128.822 194.931 129.169 194.056 129.169ZM194.056 127.817C194.446 127.817 194.697 127.579 194.81 127.102C194.923 126.625 194.979 126.04 194.979 125.347C194.979 124.654 194.923 124.069 194.81 123.592C194.697 123.115 194.446 122.877 194.056 122.877C193.666 122.877 193.419 123.102 193.315 123.553C193.211 124.004 193.159 124.554 193.159 125.204C193.159 126.001 193.211 126.638 193.315 127.115C193.419 127.583 193.666 127.817 194.056 127.817ZM200.195 129L198.154 121.837L200.338 121.681L201.261 126.361L202.314 121.915L203.965 121.759L201.872 129H200.195ZM207.983 129.169C207.116 129.169 206.453 128.827 205.994 128.142C205.535 127.449 205.305 126.53 205.305 125.386C205.305 124.225 205.539 123.302 206.007 122.617C206.475 121.932 207.155 121.59 208.048 121.59C208.897 121.59 209.547 121.932 209.998 122.617C210.449 123.302 210.674 124.225 210.674 125.386C210.674 125.455 210.661 125.507 210.635 125.542C210.609 125.568 210.596 125.585 210.596 125.594H207.125C207.125 126.157 207.199 126.673 207.346 127.141C207.493 127.6 207.719 127.83 208.022 127.83C208.36 127.83 208.611 127.635 208.776 127.245C208.941 126.855 209.027 126.651 209.036 126.634L210.414 127.154C210.232 127.778 209.942 128.272 209.543 128.636C209.144 128.991 208.624 129.169 207.983 129.169ZM208.88 124.541C208.88 124.021 208.811 123.609 208.672 123.306C208.533 123.003 208.317 122.851 208.022 122.851C207.875 122.851 207.732 122.925 207.593 123.072C207.454 123.219 207.342 123.423 207.255 123.683C207.168 123.943 207.125 124.229 207.125 124.541H208.88ZM122.797 147.169C121.393 147.169 120.691 145.895 120.691 143.347C120.691 142.021 120.865 141.063 121.211 140.474C121.558 139.885 122.1 139.59 122.836 139.59C123.148 139.59 123.447 139.694 123.733 139.902C124.019 140.101 124.227 140.353 124.357 140.656V137.484L126.19 137.25V146.922L124.812 147.078L124.357 146.09C124.271 146.411 124.11 146.671 123.876 146.87C123.642 147.069 123.283 147.169 122.797 147.169ZM123.473 145.869C123.733 145.869 123.946 145.726 124.11 145.44C124.275 145.145 124.357 144.651 124.357 143.958V141.514C124.106 141.124 123.811 140.929 123.473 140.929C123.187 140.929 122.975 141.033 122.836 141.241C122.706 141.44 122.62 141.705 122.576 142.034C122.542 142.363 122.524 142.801 122.524 143.347C122.524 143.902 122.542 144.352 122.576 144.699C122.62 145.046 122.711 145.327 122.849 145.544C122.988 145.761 123.196 145.869 123.473 145.869ZM129.786 147.169C129.474 147.169 129.192 147.074 128.941 146.883C128.69 146.684 128.495 146.419 128.356 146.09C128.217 145.752 128.148 145.375 128.148 144.959C128.148 144.014 128.469 143.351 129.11 142.97C129.76 142.58 130.514 142.359 131.372 142.307C131.372 141.839 131.342 141.492 131.281 141.267C131.22 141.042 131.073 140.929 130.839 140.929C130.64 140.929 130.488 141.007 130.384 141.163C130.28 141.319 130.215 141.518 130.189 141.761L128.408 141.449C128.495 140.782 128.768 140.305 129.227 140.019C129.686 139.733 130.224 139.59 130.839 139.59C131.628 139.59 132.217 139.798 132.607 140.214C133.006 140.63 133.205 141.172 133.205 141.839V145.622C133.205 146.029 133.27 146.463 133.4 146.922L131.619 147.078L131.411 146.181C131.255 146.458 131.025 146.692 130.722 146.883C130.419 147.074 130.107 147.169 129.786 147.169ZM130.631 145.869C130.778 145.869 130.9 145.834 130.995 145.765C131.099 145.696 131.225 145.583 131.372 145.427V143.399C130.939 143.399 130.592 143.516 130.332 143.75C130.072 143.984 129.942 144.348 129.942 144.842C129.942 145.171 129.998 145.427 130.111 145.609C130.232 145.782 130.406 145.869 130.631 145.869ZM135.723 149.314C135.515 149.314 135.259 149.288 134.956 149.236V147.715C135.277 147.732 135.532 147.741 135.723 147.741C136.486 147.741 136.867 147.386 136.867 146.675V146.311L134.774 139.772L136.75 139.681L137.777 144.27L138.752 139.72L140.403 139.707L138.531 146.87C138.271 147.806 137.89 148.447 137.387 148.794C136.893 149.141 136.338 149.314 135.723 149.314ZM149.536 147.169C149.051 147.169 148.691 147.074 148.457 146.883C148.223 146.684 148.059 146.419 147.963 146.09L147.521 147.078L146.143 146.922V137.484L147.963 137.25V140.617C148.18 140.305 148.453 140.058 148.782 139.876C149.112 139.685 149.458 139.59 149.822 139.59C150.386 139.59 150.828 139.889 151.148 140.487C151.469 141.076 151.629 142.03 151.629 143.347C151.629 145.895 150.932 147.169 149.536 147.169ZM148.86 145.869C149.259 145.869 149.515 145.657 149.627 145.232C149.749 144.807 149.809 144.179 149.809 143.347C149.809 142.766 149.783 142.324 149.731 142.021C149.688 141.709 149.606 141.488 149.484 141.358C149.372 141.219 149.203 141.15 148.977 141.15C148.821 141.15 148.639 141.206 148.431 141.319C148.223 141.432 148.067 141.54 147.963 141.644V143.958C147.963 144.651 148.046 145.145 148.21 145.44C148.384 145.726 148.6 145.869 148.86 145.869ZM153.886 149.314C153.678 149.314 153.422 149.288 153.119 149.236V147.715C153.44 147.732 153.695 147.741 153.886 147.741C154.649 147.741 155.03 147.386 155.03 146.675V146.311L152.937 139.772L154.913 139.681L155.94 144.27L156.915 139.72L158.566 139.707L156.694 146.87C156.434 147.806 156.053 148.447 155.55 148.794C155.056 149.141 154.501 149.314 153.886 149.314ZM166.087 147.169C164.683 147.169 163.981 145.895 163.981 143.347C163.981 142.021 164.155 141.063 164.501 140.474C164.848 139.885 165.39 139.59 166.126 139.59C166.438 139.59 166.737 139.694 167.023 139.902C167.309 140.101 167.517 140.353 167.647 140.656V137.484L169.48 137.25V146.922L168.102 147.078L167.647 146.09C167.561 146.411 167.4 146.671 167.166 146.87C166.932 147.069 166.573 147.169 166.087 147.169ZM166.763 145.869C167.023 145.869 167.236 145.726 167.4 145.44C167.565 145.145 167.647 144.651 167.647 143.958V141.514C167.396 141.124 167.101 140.929 166.763 140.929C166.477 140.929 166.265 141.033 166.126 141.241C165.996 141.44 165.91 141.705 165.866 142.034C165.832 142.363 165.814 142.801 165.814 143.347C165.814 143.902 165.832 144.352 165.866 144.699C165.91 145.046 166.001 145.327 166.139 145.544C166.278 145.761 166.486 145.869 166.763 145.869ZM173.076 147.169C172.764 147.169 172.482 147.074 172.231 146.883C171.98 146.684 171.785 146.419 171.646 146.09C171.507 145.752 171.438 145.375 171.438 144.959C171.438 144.014 171.759 143.351 172.4 142.97C173.05 142.58 173.804 142.359 174.662 142.307C174.662 141.839 174.632 141.492 174.571 141.267C174.51 141.042 174.363 140.929 174.129 140.929C173.93 140.929 173.778 141.007 173.674 141.163C173.57 141.319 173.505 141.518 173.479 141.761L171.698 141.449C171.785 140.782 172.058 140.305 172.517 140.019C172.976 139.733 173.514 139.59 174.129 139.59C174.918 139.59 175.507 139.798 175.897 140.214C176.296 140.63 176.495 141.172 176.495 141.839V145.622C176.495 146.029 176.56 146.463 176.69 146.922L174.909 147.078L174.701 146.181C174.545 146.458 174.315 146.692 174.012 146.883C173.709 147.074 173.397 147.169 173.076 147.169ZM173.921 145.869C174.068 145.869 174.19 145.834 174.285 145.765C174.389 145.696 174.515 145.583 174.662 145.427V143.399C174.229 143.399 173.882 143.516 173.622 143.75C173.362 143.984 173.232 144.348 173.232 144.842C173.232 145.171 173.288 145.427 173.401 145.609C173.522 145.782 173.696 145.869 173.921 145.869ZM179.013 149.314C178.805 149.314 178.549 149.288 178.246 149.236V147.715C178.567 147.732 178.822 147.741 179.013 147.741C179.776 147.741 180.157 147.386 180.157 146.675V146.311L178.064 139.772L180.04 139.681L181.067 144.27L182.042 139.72L183.693 139.707L181.821 146.87C181.561 147.806 181.18 148.447 180.677 148.794C180.183 149.141 179.628 149.314 179.013 149.314Z" fill="black"/>
</g>
</g>
<defs>
<filter id="filter0_d" x="0" y="0" width="304" height="278" filterUnits="userSpaceOnUse" color-interpolation-filters="sRGB">
<feFlood flood-opacity="0" result="BackgroundImageFix"/>
<feColorMatrix in="SourceAlpha" type="matrix" values="0 0 0 0 0 0 0 0 0 0 0 0 0 0 0 0 0 0 127 0"/>
<feOffset dy="4"/>
<feGaussianBlur stdDeviation="2"/>
<feColorMatrix type="matrix" values="0 0 0 0 0 0 0 0 0 0 0 0 0 0 0 0 0 0 0.25 0"/>
<feBlend mode="normal" in2="BackgroundImageFix" result="effect1_dropShadow"/>
<feBlend mode="normal" in="SourceGraphic" in2="effect1_dropShadow" result="shape"/>
</filter>
<clipPath id="clip0">
<rect x="4" width="296" height="270" rx="5" fill="white"/>
</clipPath>
</defs>
</svg>
