<svg width="1442" height="1376" viewBox="0 0 1442 1376" fill="none" xmlns="http://www.w3.org/2000/svg">
<path d="M1 779.499C1 779.499 27 632.497 82.5 648.499C138 664.5 120.5 951.5 214.5 786.499C308.5 621.497 240 455.499 313 392.499C386 329.499 469 239.999 532 298.999C595 357.999 219.5 778.997 334 786.499C448.5 794 539.5 740 570.5 690.499C601.5 640.997 595 603 617 540.499C639 477.998 704.5 410.999 704.5 410.999" stroke="#04152A" stroke-width="2"/>
<rect x="1" width="1440" height="1376" fill="#FFF9F6"/>
<path d="M61.0017 915.545C45.2048 912.857 43.21 827.394 44.7247 721.99C38.0312 696.866 34.8673 668.624 36.9766 642.385C37.7989 632.155 41.4435 621.103 47.0919 609.64C58.5705 586.346 78.3247 561.353 99.486 538.114C90.616 504.567 72.9323 474.737 87.4765 432.013C95.1638 409.432 130.515 390.101 165.748 373.771C179.995 340.69 204.594 311.688 231.976 320.388C269.189 332.21 217.598 349.741 165.748 373.771C147.476 416.199 146.23 465.337 177.977 450.26C213.272 433.497 152.04 480.4 99.486 538.114C102.204 548.392 104.094 559.019 103.977 570.472C103.691 598.306 103.09 708.776 95.0337 797.35C103.023 799.152 111.301 797.048 119.502 789.966C139.547 772.656 153.534 724.692 165.922 675.742C147.926 651.05 134.058 621.111 130.977 590.328C126.903 549.636 158.958 511.262 192.074 493.562C208.334 430.41 229.21 363.857 244.977 363.857C274.977 363.857 340.476 487.826 322.476 523.782C313.764 541.186 294.627 541.868 273.57 540.555C274.903 546.042 276.057 551.567 277.088 556.954C296.43 551.658 302.441 552.688 322.476 559.739C333.292 563.545 343.919 578.284 352.797 597.159C354.914 594.295 357.026 591.507 359.124 588.807C348.226 530.89 341.093 474.545 340.476 450.26C338.977 391.227 369.477 300.531 420.976 300.531C472.476 300.531 394.976 642.385 481.476 700.344C545.373 743.158 551.43 597.68 551.038 497.095C540.976 512.864 532.622 540.849 524.977 590.328C507.977 700.344 403.476 559.739 466.476 466.36C493.836 425.808 525.061 424.12 550.365 437.124C550.291 428.997 550.298 422.326 550.477 417.523C552.477 363.857 570.477 313.411 597.477 320.388C624.477 327.364 632.477 477.629 597.477 477.093C595.283 477.059 593.147 477.042 591.065 477.068C574.864 477.264 561.947 479.999 551.038 497.095C551.43 597.68 545.373 743.158 481.476 700.344C394.976 642.385 472.476 300.531 420.976 300.531C369.477 300.531 338.977 391.227 340.476 450.26C341.093 474.545 348.226 530.89 359.124 588.807C380.293 561.568 400.043 543.38 409.476 547.395C438.476 559.739 459.977 757.767 420.976 757.767C398.02 757.767 374.718 671.677 359.124 588.807C357.026 591.507 354.914 594.295 352.797 597.159C368.954 631.511 379.317 679.563 374.476 700.344C366.976 732.544 322.977 782.99 288.476 757.767C266.311 741.562 310.603 654.248 352.797 597.159C343.919 578.284 333.292 563.545 322.476 559.739C302.441 552.688 296.43 551.658 277.088 556.954C281.64 580.736 283.802 601.808 288.476 604.818C298.476 611.258 288.477 642.385 244.977 678.878C240.139 682.936 235.406 685.176 230.815 685.951C240.983 716.394 248.291 739.11 231.976 732.544C210.938 724.076 185.889 703.138 165.922 675.742C153.534 724.692 139.547 772.656 119.502 789.966C111.301 797.048 103.023 799.152 95.0337 797.35C88.9554 864.18 78.6333 918.545 61.0017 915.545Z" fill="#A40000" fill-opacity="0.06"/>
<path d="M1440.98 145.973C1440.98 145.973 1423.48 192.126 1403.98 224.862C1384.48 257.598 1343.48 286.041 1323.48 289.798C1303.48 293.555 1260.98 213.592 1242.98 320.388C1224.98 427.183 1200.98 371.907 1172.48 372.444C1143.98 372.98 1066.48 388.544 1127.48 403.034C1188.48 417.523 1110.98 412.693 1093.98 450.26C1076.98 487.826 1063.98 570.472 1063.98 570.472C1063.98 570.472 1038.48 619.308 971.477 619.308C904.476 619.308 889.977 579.595 878.977 547.395C867.977 515.196 889.977 439.526 914.477 417.523C938.977 395.52 987.477 275.845 959.477 257.598C931.477 239.352 886.977 300.531 848.977 300.531C810.977 300.531 776.977 388.544 729.977 403.034C682.977 417.523 683.977 529.149 712.977 559.739C741.977 590.328 725.477 707.321 712.977 732.544C700.477 757.767 653.477 770.647 632.477 757.767C611.477 744.887 669.977 678.878 682.977 619.308C695.977 559.739 581.977 532.906 597.477 509.292C612.977 485.679 529.477 372.98 466.476 466.36C403.476 559.739 507.977 700.344 524.977 590.328C541.977 480.313 562.477 476.556 597.477 477.093C632.477 477.629 624.477 327.364 597.477 320.388C570.477 313.411 552.477 363.857 550.477 417.523C548.477 471.19 567.977 758.303 481.476 700.344C394.976 642.385 472.476 300.531 420.976 300.531C369.477 300.531 338.977 391.227 340.476 450.26C341.976 509.292 381.976 757.767 420.976 757.767C459.977 757.767 438.476 559.739 409.476 547.395C380.477 535.052 253.976 732.544 288.476 757.767C322.977 782.99 366.976 732.544 374.476 700.344C381.977 668.144 352.976 570.472 322.476 559.739C291.977 549.005 293.976 552.225 231.976 570.472C169.976 588.718 271.976 748.644 231.976 732.544C191.976 716.444 137.476 655.264 130.977 590.328C124.477 525.392 209.977 466.36 244.977 487.826C279.977 509.293 278.477 598.378 288.476 604.818C298.476 611.258 288.477 642.385 244.977 678.878C201.477 715.37 166.477 604.818 166.477 604.818C166.477 604.818 214.977 363.857 244.977 363.857C274.977 363.857 340.476 487.826 322.476 523.782C304.476 559.739 241.977 524.319 209.977 547.395C177.977 570.472 163.002 752.4 119.502 789.966C76.0017 827.533 30.3329 725.03 36.9766 642.385C43.6203 559.739 234.477 423.427 177.977 450.26C121.476 477.093 169.476 300.531 231.976 320.388C294.476 340.244 106.477 376.2 87.4765 432.013C68.4763 487.826 104.477 521.636 103.977 570.472C103.476 619.308 102.001 922.522 61.0017 915.545C20.0019 908.569 71.9766 344.001 36.9766 320.388C1.97659 296.775 36.9766 915.545 36.9776 989.068C36.9786 1062.59 1 1083.5 1 1083.5" stroke="#04152A"/>
<path d="M462.006 496.344H470.795V525.875C470.795 528.59 470.189 530.992 468.979 533.082C467.787 535.152 466.098 536.754 463.91 537.887C461.723 539.02 459.252 539.586 456.498 539.586C451.986 539.586 448.471 538.443 445.951 536.158C443.432 533.854 442.172 530.602 442.172 526.402H451.02C451.02 528.492 451.459 530.035 452.338 531.031C453.217 532.027 454.604 532.525 456.498 532.525C458.178 532.525 459.516 531.949 460.512 530.797C461.508 529.645 462.006 528.004 462.006 525.875V496.344ZM562.263 518.639C562.263 522.838 561.521 526.52 560.037 529.684C558.552 532.848 556.423 535.289 553.65 537.008C550.896 538.727 547.732 539.586 544.158 539.586C540.623 539.586 537.468 538.736 534.695 537.037C531.921 535.338 529.773 532.916 528.25 529.771C526.726 526.607 525.955 522.975 525.935 518.873V516.764C525.935 512.564 526.687 508.873 528.191 505.689C529.714 502.486 531.853 500.035 534.607 498.336C537.38 496.617 540.545 495.758 544.099 495.758C547.654 495.758 550.808 496.617 553.562 498.336C556.336 500.035 558.474 502.486 559.978 505.689C561.502 508.873 562.263 512.555 562.263 516.734V518.639ZM553.357 516.705C553.357 512.232 552.556 508.834 550.955 506.51C549.353 504.186 547.068 503.023 544.099 503.023C541.15 503.023 538.875 504.176 537.273 506.48C535.671 508.766 534.861 512.125 534.841 516.559V518.639C534.841 522.994 535.642 526.373 537.244 528.775C538.845 531.178 541.15 532.379 544.158 532.379C547.107 532.379 549.373 531.227 550.955 528.922C552.537 526.598 553.338 523.219 553.357 518.785V516.705ZM649.835 496.344V524.439C649.835 529.107 648.37 532.799 645.441 535.514C642.53 538.229 638.546 539.586 633.488 539.586C628.507 539.586 624.552 538.268 621.622 535.631C618.693 532.994 617.198 529.371 617.14 524.762V496.344H625.929V524.498C625.929 527.291 626.593 529.332 627.921 530.621C629.269 531.891 631.124 532.525 633.488 532.525C638.429 532.525 640.939 529.928 641.017 524.732V496.344H649.835ZM721.733 523.385H714.731V539H705.942V496.344H721.792C726.831 496.344 730.718 497.467 733.452 499.713C736.186 501.959 737.554 505.133 737.554 509.234C737.554 512.145 736.919 514.576 735.649 516.529C734.399 518.463 732.495 520.006 729.936 521.158L739.165 538.59V539H729.731L721.733 523.385ZM714.731 516.266H721.821C724.028 516.266 725.737 515.709 726.948 514.596C728.159 513.463 728.764 511.91 728.764 509.938C728.764 507.926 728.188 506.344 727.036 505.191C725.903 504.039 724.155 503.463 721.792 503.463H714.731V516.266ZM827.85 539H819.061L801.952 510.934V539H793.163V496.344H801.952L819.09 524.469V496.344H827.85V539ZM910.09 520.514H893.215V531.939H913.02V539H884.426V496.344H912.961V503.463H893.215V513.629H910.09V520.514ZM981.783 515.562L990.66 496.344H1000.27L986.265 523.531V539H977.33V523.531L963.326 496.344H972.964L981.783 515.562Z" fill="black"/>
</svg>
