<svg width="283" height="260" viewBox="0 0 283 260" fill="none" xmlns="http://www.w3.org/2000/svg">
<g filter="url(#filter0_d_103_29)">
<rect x="4" width="275" height="251.167" rx="5" fill="white"/>
</g>
<path d="M102.637 133.547V142H100.746V133.547H102.637ZM100.621 131.328C100.621 131.042 100.715 130.805 100.902 130.617C101.095 130.424 101.361 130.328 101.699 130.328C102.033 130.328 102.296 130.424 102.488 130.617C102.681 130.805 102.777 131.042 102.777 131.328C102.777 131.609 102.681 131.844 102.488 132.031C102.296 132.219 102.033 132.312 101.699 132.312C101.361 132.312 101.095 132.219 100.902 132.031C100.715 131.844 100.621 131.609 100.621 131.328ZM108.262 135.266V142H106.379V133.547H108.153L108.262 135.266ZM107.957 137.461L107.317 137.453C107.317 136.87 107.39 136.331 107.536 135.836C107.681 135.341 107.895 134.911 108.176 134.547C108.457 134.177 108.806 133.893 109.223 133.695C109.645 133.492 110.132 133.391 110.684 133.391C111.069 133.391 111.421 133.448 111.739 133.562C112.062 133.672 112.34 133.846 112.575 134.086C112.814 134.326 112.997 134.633 113.122 135.008C113.252 135.383 113.317 135.836 113.317 136.367V142H111.434V136.531C111.434 136.12 111.372 135.797 111.247 135.562C111.127 135.328 110.952 135.161 110.723 135.062C110.499 134.958 110.231 134.906 109.918 134.906C109.564 134.906 109.262 134.974 109.012 135.109C108.767 135.245 108.567 135.43 108.411 135.664C108.254 135.898 108.14 136.169 108.067 136.477C107.994 136.784 107.957 137.112 107.957 137.461ZM113.2 136.961L112.317 137.156C112.317 136.646 112.387 136.164 112.528 135.711C112.674 135.253 112.885 134.852 113.161 134.508C113.442 134.159 113.788 133.885 114.2 133.688C114.611 133.49 115.082 133.391 115.614 133.391C116.046 133.391 116.431 133.451 116.77 133.57C117.114 133.685 117.405 133.867 117.645 134.117C117.885 134.367 118.067 134.693 118.192 135.094C118.317 135.49 118.379 135.969 118.379 136.531V142H116.489V136.523C116.489 136.096 116.426 135.766 116.301 135.531C116.181 135.297 116.01 135.135 115.786 135.047C115.562 134.953 115.293 134.906 114.981 134.906C114.689 134.906 114.431 134.961 114.207 135.07C113.989 135.174 113.804 135.323 113.653 135.516C113.502 135.703 113.387 135.919 113.309 136.164C113.236 136.409 113.2 136.674 113.2 136.961ZM123.887 135.172V145.25H122.005V133.547H123.739L123.887 135.172ZM129.395 137.695V137.859C129.395 138.474 129.322 139.044 129.177 139.57C129.036 140.091 128.825 140.547 128.544 140.938C128.268 141.323 127.927 141.622 127.52 141.836C127.114 142.049 126.645 142.156 126.114 142.156C125.588 142.156 125.127 142.06 124.731 141.867C124.341 141.669 124.01 141.391 123.739 141.031C123.468 140.672 123.249 140.25 123.083 139.766C122.921 139.276 122.807 138.74 122.739 138.156V137.523C122.807 136.904 122.921 136.341 123.083 135.836C123.249 135.331 123.468 134.896 123.739 134.531C124.01 134.167 124.341 133.885 124.731 133.688C125.122 133.49 125.578 133.391 126.098 133.391C126.63 133.391 127.101 133.495 127.512 133.703C127.924 133.906 128.27 134.198 128.552 134.578C128.833 134.953 129.044 135.406 129.184 135.938C129.325 136.464 129.395 137.049 129.395 137.695ZM127.512 137.859V137.695C127.512 137.305 127.476 136.943 127.403 136.609C127.33 136.271 127.216 135.974 127.059 135.719C126.903 135.464 126.703 135.266 126.458 135.125C126.218 134.979 125.929 134.906 125.591 134.906C125.257 134.906 124.971 134.964 124.731 135.078C124.492 135.188 124.291 135.341 124.13 135.539C123.968 135.737 123.843 135.969 123.755 136.234C123.666 136.495 123.604 136.779 123.567 137.086V138.602C123.63 138.977 123.736 139.32 123.887 139.633C124.039 139.945 124.252 140.195 124.528 140.383C124.809 140.565 125.169 140.656 125.606 140.656C125.945 140.656 126.234 140.583 126.473 140.438C126.713 140.292 126.908 140.091 127.059 139.836C127.216 139.576 127.33 139.276 127.403 138.938C127.476 138.599 127.512 138.24 127.512 137.859ZM134.567 135.156V142H132.685V133.547H134.482L134.567 135.156ZM137.153 133.492L137.138 135.242C137.023 135.221 136.898 135.206 136.763 135.195C136.633 135.185 136.502 135.18 136.372 135.18C136.049 135.18 135.765 135.227 135.521 135.32C135.276 135.409 135.07 135.539 134.903 135.711C134.742 135.878 134.617 136.081 134.528 136.32C134.44 136.56 134.388 136.828 134.372 137.125L133.942 137.156C133.942 136.625 133.995 136.133 134.099 135.68C134.203 135.227 134.359 134.828 134.567 134.484C134.781 134.141 135.047 133.872 135.364 133.68C135.687 133.487 136.06 133.391 136.482 133.391C136.596 133.391 136.719 133.401 136.849 133.422C136.984 133.443 137.086 133.466 137.153 133.492ZM139.451 137.867V137.688C139.451 137.078 139.539 136.513 139.716 135.992C139.893 135.466 140.149 135.01 140.482 134.625C140.82 134.234 141.232 133.932 141.716 133.719C142.206 133.5 142.758 133.391 143.372 133.391C143.992 133.391 144.544 133.5 145.029 133.719C145.518 133.932 145.932 134.234 146.271 134.625C146.609 135.01 146.867 135.466 147.044 135.992C147.221 136.513 147.31 137.078 147.31 137.688V137.867C147.31 138.477 147.221 139.042 147.044 139.562C146.867 140.083 146.609 140.539 146.271 140.93C145.932 141.315 145.521 141.617 145.037 141.836C144.552 142.049 144.003 142.156 143.388 142.156C142.768 142.156 142.214 142.049 141.724 141.836C141.24 141.617 140.828 141.315 140.49 140.93C140.151 140.539 139.893 140.083 139.716 139.562C139.539 139.042 139.451 138.477 139.451 137.867ZM141.333 137.688V137.867C141.333 138.247 141.372 138.607 141.451 138.945C141.529 139.284 141.651 139.581 141.818 139.836C141.984 140.091 142.198 140.292 142.458 140.438C142.719 140.583 143.029 140.656 143.388 140.656C143.737 140.656 144.039 140.583 144.294 140.438C144.555 140.292 144.768 140.091 144.935 139.836C145.102 139.581 145.224 139.284 145.302 138.945C145.385 138.607 145.427 138.247 145.427 137.867V137.688C145.427 137.312 145.385 136.958 145.302 136.625C145.224 136.286 145.099 135.987 144.927 135.727C144.76 135.466 144.547 135.263 144.287 135.117C144.031 134.966 143.727 134.891 143.372 134.891C143.018 134.891 142.711 134.966 142.451 135.117C142.195 135.263 141.984 135.466 141.818 135.727C141.651 135.987 141.529 136.286 141.451 136.625C141.372 136.958 141.333 137.312 141.333 137.688ZM153.193 140.508L155.263 133.547H157.217L154.279 142H153.06L153.193 140.508ZM151.607 133.547L153.717 140.539L153.818 142H152.599L149.646 133.547H151.607ZM162.076 133.547V142H160.186V133.547H162.076ZM160.061 131.328C160.061 131.042 160.154 130.805 160.342 130.617C160.535 130.424 160.8 130.328 161.139 130.328C161.472 130.328 161.735 130.424 161.928 130.617C162.12 130.805 162.217 131.042 162.217 131.328C162.217 131.609 162.12 131.844 161.928 132.031C161.735 132.219 161.472 132.312 161.139 132.312C160.8 132.312 160.535 132.219 160.342 132.031C160.154 131.844 160.061 131.609 160.061 131.328ZM167.686 135.352V142H165.803V133.547H167.577L167.686 135.352ZM167.35 137.461L166.741 137.453C166.746 136.854 166.829 136.305 166.991 135.805C167.157 135.305 167.386 134.875 167.678 134.516C167.975 134.156 168.329 133.88 168.741 133.688C169.152 133.49 169.61 133.391 170.116 133.391C170.522 133.391 170.889 133.448 171.217 133.562C171.55 133.672 171.834 133.852 172.069 134.102C172.308 134.352 172.491 134.677 172.616 135.078C172.741 135.474 172.803 135.961 172.803 136.539V142H170.912V136.531C170.912 136.125 170.853 135.805 170.733 135.57C170.618 135.331 170.449 135.161 170.225 135.062C170.006 134.958 169.733 134.906 169.405 134.906C169.082 134.906 168.793 134.974 168.537 135.109C168.282 135.245 168.066 135.43 167.889 135.664C167.717 135.898 167.584 136.169 167.491 136.477C167.397 136.784 167.35 137.112 167.35 137.461ZM181.819 133.547H183.53V141.766C183.53 142.526 183.369 143.172 183.046 143.703C182.723 144.234 182.272 144.638 181.694 144.914C181.116 145.195 180.447 145.336 179.686 145.336C179.363 145.336 179.004 145.289 178.608 145.195C178.217 145.102 177.837 144.951 177.467 144.742C177.103 144.539 176.798 144.271 176.553 143.938L177.436 142.828C177.738 143.188 178.072 143.451 178.436 143.617C178.801 143.784 179.184 143.867 179.585 143.867C180.017 143.867 180.384 143.786 180.686 143.625C180.994 143.469 181.231 143.237 181.397 142.93C181.564 142.622 181.647 142.247 181.647 141.805V135.461L181.819 133.547ZM176.077 137.867V137.703C176.077 137.062 176.155 136.479 176.311 135.953C176.467 135.422 176.691 134.966 176.983 134.586C177.275 134.201 177.629 133.906 178.046 133.703C178.462 133.495 178.934 133.391 179.46 133.391C180.007 133.391 180.473 133.49 180.858 133.688C181.249 133.885 181.574 134.169 181.835 134.539C182.095 134.904 182.298 135.341 182.444 135.852C182.595 136.357 182.707 136.919 182.78 137.539V138.062C182.712 138.667 182.598 139.219 182.436 139.719C182.275 140.219 182.061 140.651 181.796 141.016C181.53 141.38 181.202 141.661 180.811 141.859C180.426 142.057 179.97 142.156 179.444 142.156C178.928 142.156 178.462 142.049 178.046 141.836C177.634 141.622 177.28 141.323 176.983 140.938C176.691 140.552 176.467 140.099 176.311 139.578C176.155 139.052 176.077 138.482 176.077 137.867ZM177.96 137.703V137.867C177.96 138.253 177.996 138.612 178.069 138.945C178.147 139.279 178.264 139.573 178.421 139.828C178.582 140.078 178.785 140.276 179.03 140.422C179.28 140.562 179.574 140.633 179.913 140.633C180.356 140.633 180.717 140.539 180.999 140.352C181.285 140.164 181.504 139.911 181.655 139.594C181.811 139.271 181.921 138.911 181.983 138.516V137.102C181.952 136.794 181.887 136.508 181.788 136.242C181.694 135.977 181.566 135.745 181.405 135.547C181.244 135.344 181.04 135.188 180.796 135.078C180.551 134.964 180.262 134.906 179.928 134.906C179.59 134.906 179.296 134.979 179.046 135.125C178.796 135.271 178.59 135.471 178.428 135.727C178.272 135.982 178.155 136.279 178.077 136.617C177.999 136.956 177.96 137.318 177.96 137.703Z" fill="#424242"/>
<path d="M111.443 161.373L108.47 170H106.672L110.418 160.047H111.566L111.443 161.373ZM113.932 170L110.951 161.373L110.821 160.047H111.977L115.736 170H113.932ZM113.788 166.309V167.669H108.374V166.309H113.788ZM128.685 168.64V170H123.688V168.64H128.685ZM124.166 160.047V170H122.451V160.047H124.166ZM142.126 168.64V170H136.842V168.64H142.126ZM137.327 160.047V170H135.611V160.047H137.327ZM141.435 164.203V165.543H136.842V164.203H141.435ZM142.092 160.047V161.414H136.842V160.047H142.092ZM150.433 160.047L152.545 163.677L154.657 160.047H156.633L153.625 164.976L156.708 170H154.712L152.545 166.302L150.378 170H148.375L151.465 164.976L148.45 160.047H150.433ZM167.449 161.373L164.475 170H162.677L166.423 160.047H167.572L167.449 161.373ZM169.937 170L166.957 161.373L166.827 160.047H167.982L171.742 170H169.937ZM169.794 166.309V167.669H164.379V166.309H169.794ZM104.614 179.047H106.146L109.023 186.724L111.895 179.047H113.426L109.625 189H108.408L104.614 179.047ZM103.917 179.047H105.373L105.626 185.691V189H103.917V179.047ZM112.667 179.047H114.13V189H112.414V185.691L112.667 179.047ZM129.704 183.75V184.297C129.704 185.049 129.606 185.723 129.41 186.32C129.214 186.917 128.933 187.425 128.569 187.845C128.209 188.264 127.776 188.585 127.27 188.809C126.764 189.027 126.204 189.137 125.588 189.137C124.978 189.137 124.419 189.027 123.913 188.809C123.412 188.585 122.977 188.264 122.608 187.845C122.239 187.425 121.952 186.917 121.746 186.32C121.546 185.723 121.446 185.049 121.446 184.297V183.75C121.446 182.998 121.546 182.326 121.746 181.733C121.947 181.136 122.23 180.628 122.594 180.209C122.963 179.785 123.399 179.464 123.9 179.245C124.406 179.022 124.964 178.91 125.575 178.91C126.19 178.91 126.75 179.022 127.256 179.245C127.762 179.464 128.197 179.785 128.562 180.209C128.926 180.628 129.207 181.136 129.403 181.733C129.603 182.326 129.704 182.998 129.704 183.75ZM127.988 184.297V183.736C127.988 183.18 127.933 182.69 127.824 182.267C127.719 181.838 127.562 181.48 127.352 181.193C127.147 180.902 126.894 180.683 126.593 180.537C126.292 180.387 125.953 180.312 125.575 180.312C125.196 180.312 124.859 180.387 124.563 180.537C124.267 180.683 124.014 180.902 123.804 181.193C123.599 181.48 123.442 181.838 123.332 182.267C123.223 182.69 123.168 183.18 123.168 183.736V184.297C123.168 184.853 123.223 185.345 123.332 185.773C123.442 186.202 123.601 186.564 123.811 186.86C124.025 187.152 124.28 187.373 124.577 187.523C124.873 187.669 125.21 187.742 125.588 187.742C125.971 187.742 126.311 187.669 126.607 187.523C126.903 187.373 127.154 187.152 127.359 186.86C127.564 186.564 127.719 186.202 127.824 185.773C127.933 185.345 127.988 184.853 127.988 184.297ZM140.752 184.502H138.216L138.202 183.251H140.417C140.79 183.251 141.107 183.196 141.367 183.087C141.631 182.973 141.832 182.811 141.969 182.602C142.105 182.387 142.174 182.13 142.174 181.829C142.174 181.496 142.11 181.225 141.982 181.016C141.855 180.806 141.659 180.653 141.394 180.558C141.135 180.462 140.802 180.414 140.396 180.414H138.735V189H137.019V179.047H140.396C140.943 179.047 141.431 179.099 141.859 179.204C142.292 179.309 142.659 179.473 142.96 179.696C143.265 179.915 143.495 180.193 143.65 180.53C143.81 180.868 143.889 181.269 143.889 181.733C143.889 182.144 143.791 182.52 143.596 182.861C143.4 183.199 143.11 183.474 142.727 183.688C142.345 183.903 141.868 184.03 141.299 184.071L140.752 184.502ZM140.677 189H137.676L138.448 187.64H140.677C141.064 187.64 141.387 187.576 141.647 187.448C141.907 187.316 142.101 187.136 142.228 186.908C142.36 186.676 142.427 186.405 142.427 186.095C142.427 185.771 142.37 185.491 142.256 185.254C142.142 185.012 141.962 184.828 141.716 184.7C141.47 184.568 141.148 184.502 140.752 184.502H138.824L138.838 183.251H141.346L141.736 183.723C142.283 183.741 142.732 183.862 143.083 184.085C143.438 184.308 143.703 184.598 143.876 184.953C144.049 185.309 144.136 185.691 144.136 186.102C144.136 186.735 143.997 187.266 143.719 187.694C143.445 188.123 143.051 188.449 142.536 188.672C142.021 188.891 141.401 189 140.677 189ZM153.297 179.047V189H151.581V179.047H153.297ZM167.264 187.64V189H162.267V187.64H167.264ZM162.746 179.047V189H161.03V179.047H162.746ZM180.705 187.64V189H175.421V187.64H180.705ZM175.906 179.047V189H174.19V179.047H175.906ZM180.015 183.203V184.543H175.421V183.203H180.015ZM180.671 179.047V180.414H175.421V179.047H180.671Z" fill="#424242"/>
<path d="M102.95 103.758V113H100.729V103.758H102.95ZM113.082 103.758V113H110.86L107.591 107.249V113H105.363V103.758H107.591L110.86 109.509V103.758H113.082ZM119.621 103.758V113H117.393V103.758H119.621ZM122.401 103.758V105.478H114.676V103.758H122.401ZM130.552 111.286V113H125.627V111.286H130.552ZM126.42 103.758V113H124.192V103.758H126.42ZM129.918 107.427V109.083H125.627V107.427H129.918ZM130.571 103.758V105.478H125.627V103.758H130.571ZM132.311 103.758H135.949C136.66 103.758 137.277 103.864 137.802 104.075C138.327 104.287 138.731 104.6 139.015 105.015C139.302 105.429 139.446 105.941 139.446 106.551C139.446 107.08 139.364 107.522 139.199 107.877C139.034 108.233 138.803 108.527 138.507 108.76C138.215 108.988 137.874 109.177 137.485 109.325L136.755 109.737H133.702L133.689 108.017H135.949C136.232 108.017 136.467 107.966 136.653 107.865C136.839 107.763 136.979 107.619 137.072 107.433C137.169 107.243 137.218 107.016 137.218 106.754C137.218 106.487 137.169 106.259 137.072 106.068C136.975 105.878 136.831 105.732 136.64 105.63C136.454 105.529 136.224 105.478 135.949 105.478H134.539V113H132.311V103.758ZM137.37 113L135.327 108.912L137.688 108.899L139.757 112.905V113H137.37ZM149.356 103.758V113H147.134L143.865 107.249V113H141.637V103.758H143.865L147.134 109.509V103.758H149.356ZM156.371 110.543C156.371 110.4 156.349 110.271 156.307 110.156C156.265 110.038 156.186 109.928 156.072 109.826C155.958 109.725 155.793 109.623 155.577 109.521C155.365 109.416 155.086 109.306 154.739 109.191C154.333 109.056 153.941 108.904 153.565 108.734C153.188 108.561 152.852 108.36 152.556 108.131C152.259 107.899 152.025 107.628 151.851 107.319C151.677 107.006 151.591 106.642 151.591 106.227C151.591 105.829 151.68 105.472 151.857 105.154C152.035 104.833 152.283 104.56 152.6 104.335C152.922 104.107 153.298 103.933 153.73 103.815C154.162 103.692 154.633 103.631 155.145 103.631C155.823 103.631 156.419 103.749 156.935 103.986C157.456 104.219 157.862 104.551 158.154 104.983C158.45 105.41 158.599 105.916 158.599 106.5H156.383C156.383 106.267 156.335 106.062 156.237 105.884C156.144 105.707 156.002 105.567 155.812 105.465C155.622 105.364 155.382 105.313 155.095 105.313C154.815 105.313 154.58 105.355 154.39 105.44C154.2 105.525 154.056 105.639 153.958 105.783C153.861 105.922 153.812 106.077 153.812 106.246C153.812 106.386 153.851 106.513 153.927 106.627C154.007 106.737 154.119 106.841 154.263 106.938C154.411 107.035 154.589 107.128 154.796 107.217C155.008 107.306 155.245 107.393 155.507 107.478C155.998 107.634 156.434 107.81 156.815 108.004C157.2 108.195 157.524 108.413 157.786 108.658C158.053 108.899 158.254 109.174 158.389 109.483C158.529 109.792 158.599 110.141 158.599 110.531C158.599 110.945 158.518 111.314 158.357 111.635C158.197 111.957 157.966 112.23 157.665 112.454C157.365 112.674 157.005 112.841 156.586 112.956C156.167 113.07 155.7 113.127 155.184 113.127C154.71 113.127 154.242 113.068 153.781 112.949C153.324 112.826 152.909 112.64 152.537 112.391C152.164 112.137 151.866 111.813 151.642 111.419C151.421 111.022 151.311 110.55 151.311 110.004H153.546C153.546 110.275 153.582 110.503 153.654 110.689C153.726 110.876 153.831 111.026 153.971 111.14C154.111 111.25 154.282 111.331 154.485 111.381C154.688 111.428 154.921 111.451 155.184 111.451C155.467 111.451 155.696 111.411 155.869 111.331C156.043 111.246 156.17 111.136 156.25 111C156.33 110.861 156.371 110.708 156.371 110.543ZM166.82 107.427V109.141H162.078V107.427H166.82ZM162.821 103.758V113H160.592V103.758H162.821ZM168.318 103.758V113H166.096V103.758H168.318ZM172.946 103.758V113H170.724V103.758H172.946ZM179.047 109.864H176.749V108.144H179.047C179.36 108.144 179.614 108.091 179.808 107.985C180.003 107.88 180.145 107.734 180.234 107.547C180.327 107.357 180.373 107.143 180.373 106.906C180.373 106.652 180.327 106.417 180.234 106.202C180.145 105.986 180.003 105.812 179.808 105.681C179.614 105.546 179.36 105.478 179.047 105.478H177.587V113H175.359V103.758H179.047C179.787 103.758 180.424 103.893 180.957 104.164C181.495 104.435 181.907 104.807 182.195 105.281C182.483 105.751 182.627 106.288 182.627 106.894C182.627 107.49 182.483 108.011 182.195 108.455C181.907 108.899 181.495 109.246 180.957 109.496C180.424 109.742 179.787 109.864 179.047 109.864Z" fill="#424242"/>
<path d="M143.537 56.3331H143.371C141.458 56.3359 139.551 56.5428 137.683 56.95C136.842 57.1072 136.014 57.3248 135.206 57.602C133.73 58.1667 132.452 59.1508 131.53 60.4334C129.78 62.7615 129.342 65.3039 130.405 68.0389C130.948 69.5669 132.066 70.823 133.521 71.5397C135.106 72.3165 136.904 72.5431 138.632 72.1829C140.095 71.9509 141.481 71.3731 142.675 70.4982C143.266 70.0299 143.818 69.5049 144.426 68.9927C144.46 69.0318 144.492 69.0727 144.522 69.1151C145.213 70.1016 145.993 71.0216 146.854 71.8632C147.187 72.1977 147.72 72.2243 148.084 71.9246C149.251 70.9472 150.418 69.9686 151.585 68.9884C151.646 68.9204 151.689 68.8373 151.707 68.7476C151.814 68.4524 151.764 68.1234 151.576 67.8725C151.305 67.4787 151.051 67.0718 150.758 66.6909H150.758C150.3 66.0639 150 65.3359 149.882 64.5686C149.817 64.2047 149.784 63.8357 149.782 63.466V53.7209V53.7206C149.807 52.8821 149.693 52.0452 149.445 51.2439C149.061 49.967 148.272 48.8502 147.196 48.0626C145.426 46.8365 143.351 46.1277 141.201 46.0157C139.051 45.9037 136.913 46.3927 135.026 47.428C132.821 48.5651 131.256 50.6474 130.777 53.0818C130.711 53.33 130.763 53.5946 130.918 53.7997C131.072 54.0049 131.312 54.1273 131.569 54.1321L133.779 54.329C134.33 54.3773 134.882 54.4298 135.433 54.4734C135.863 54.5293 136.273 54.2777 136.417 53.8696C136.577 53.0952 136.979 52.392 137.565 51.8618C138.152 51.3312 138.892 51.0016 139.678 50.9201C140.416 50.7726 141.181 50.8615 141.866 51.174C142.378 51.3917 142.812 51.7589 143.113 52.2272C143.413 52.6954 143.566 53.2433 143.55 53.7995V56.0967C143.546 56.1715 143.542 56.2502 143.537 56.3332L143.537 56.3331ZM142.693 65.6844C142.317 66.2891 141.846 66.8285 141.297 67.2817C140.64 67.8443 139.748 68.0473 138.912 67.8241C138.567 67.7383 138.234 67.6074 137.923 67.4346C137.22 67.0421 136.736 66.3486 136.61 65.5531C136.376 64.6609 136.407 63.7198 136.698 62.8444C137.049 61.899 137.726 61.1097 138.606 60.617C139.225 60.2199 139.933 59.9852 140.667 59.9342C141.573 59.8774 142.483 59.8335 143.389 59.7855H143.546V60.0438V62.7088C143.561 63.7628 143.264 64.7982 142.693 65.6843L142.693 65.6844Z" fill="#FF9900"/>
<path d="M127.027 74.8736C126.589 74.6374 126.152 74.3923 125.714 74.1429C125.425 73.9723 125.141 73.8016 124.839 73.6179C124.401 73.3334 123.964 73.0358 123.526 72.7428L123.526 72.7424C123.466 72.6829 123.383 72.6524 123.299 72.6591C123.215 72.6658 123.138 72.7092 123.088 72.7775C122.971 72.8996 122.971 73.0929 123.088 73.215C123.43 73.6002 123.78 73.9808 124.143 74.3526C124.353 74.5715 124.581 74.7641 124.804 74.9741C125.519 75.6768 126.292 76.3178 127.114 76.8907C127.552 77.2057 128.011 77.5076 128.475 77.7921C129.066 78.1511 129.661 78.514 130.282 78.8247C130.904 79.1355 131.503 79.3849 132.12 79.6473L132.121 79.6476C132.495 79.8128 132.878 79.959 133.267 80.0854C134.019 80.3647 134.798 80.5683 135.591 80.6934C136.304 80.7633 137.013 80.9077 137.73 80.9779C138.168 81.0215 138.645 80.9779 139.104 80.9779V80.9999C139.866 80.9562 140.632 80.9385 141.389 80.8598C142.019 80.7941 142.64 80.676 143.262 80.549C143.883 80.422 144.53 80.2645 145.161 80.085C145.629 79.9495 146.084 79.7655 146.539 79.5906V79.5909C146.936 79.452 147.327 79.2926 147.707 79.1138C148.219 78.8601 148.718 78.5756 149.213 78.2865C149.707 77.9978 150.088 77.7658 150.482 77.4813V77.4816C150.801 77.2624 151.106 77.024 151.397 76.7682C151.834 76.3962 152.237 76.0112 152.648 75.6217C152.778 75.4761 152.796 75.2619 152.692 75.0967C152.555 74.9609 152.358 74.9062 152.171 74.9523C151.974 75.0222 151.79 75.1272 151.598 75.2106C150.723 75.5869 149.848 75.9544 148.972 76.3396V76.3393C148.1 76.7041 147.204 77.0081 146.29 77.2495C145.852 77.3765 145.415 77.5032 144.977 77.6171C144.692 77.687 144.408 77.744 144.102 77.8051C143.664 77.9012 143.227 78.0194 142.789 78.0853C142.351 78.1509 141.883 78.1552 141.428 78.1814C141.108 78.1814 140.793 78.2297 140.474 78.2339C139.735 78.2339 138.991 78.2339 138.251 78.212C137.743 78.212 137.236 78.1375 136.724 78.0938C136.426 78.0676 136.129 78.0502 135.849 78.002C135.175 77.8838 134.505 77.7437 133.836 77.6167V77.6171C133.08 77.4739 132.339 77.2614 131.621 76.9828C131.026 76.7465 130.436 76.5057 129.849 76.2563C129.385 76.0594 128.922 75.8625 128.471 75.6437C128.06 75.3943 127.547 75.1272 127.027 74.8735L127.027 74.8736Z" fill="#FF9900"/>
<path d="M157.93 73.4735C158.022 72.9866 158.077 72.494 158.096 71.9989C158.097 71.4424 157.688 70.9702 157.137 70.8917C156.69 70.8145 156.236 70.7763 155.781 70.7779C155.012 70.784 154.246 70.8737 153.497 71.045C152.547 71.2699 151.641 71.65 150.814 72.1695C150.736 72.222 150.709 72.3533 150.657 72.4497V72.4494C150.755 72.4885 150.858 72.512 150.963 72.5196C151.283 72.476 151.593 72.3841 151.913 72.3578C152.595 72.2965 153.282 72.266 154.018 72.2223L155.484 72.3447L155.483 72.3444C155.777 72.3856 156.04 72.5489 156.206 72.794C156.373 73.0388 156.428 73.3429 156.359 73.631C156.228 74.0031 156.171 74.4012 156.052 74.7818C155.834 75.482 155.615 76.1777 155.37 76.8737C155.256 77.2018 155.098 77.5126 154.976 77.8364H154.976C154.959 77.9216 154.959 78.0095 154.976 78.0946C155.06 78.0995 155.144 78.0907 155.225 78.0684C155.331 78.0192 155.427 77.9493 155.505 77.8627C155.942 77.3889 156.352 76.8923 156.735 76.3749C157.077 75.8502 157.37 75.295 157.61 74.7165C157.765 74.316 157.872 73.899 157.93 73.4736L157.93 73.4735Z" fill="#FF9900"/>
<defs>
<filter id="filter0_d_103_29" x="0" y="0" width="283" height="259.167" filterUnits="userSpaceOnUse" color-interpolation-filters="sRGB">
<feFlood flood-opacity="0" result="BackgroundImageFix"/>
<feColorMatrix in="SourceAlpha" type="matrix" values="0 0 0 0 0 0 0 0 0 0 0 0 0 0 0 0 0 0 127 0" result="hardAlpha"/>
<feOffset dy="4"/>
<feGaussianBlur stdDeviation="2"/>
<feColorMatrix type="matrix" values="0 0 0 0 0 0 0 0 0 0 0 0 0 0 0 0 0 0 0.25 0"/>
<feBlend mode="normal" in2="BackgroundImageFix" result="effect1_dropShadow_103_29"/>
<feBlend mode="normal" in="SourceGraphic" in2="effect1_dropShadow_103_29" result="shape"/>
</filter>
</defs>
</svg>
