<svg width="271" height="36" viewBox="0 0 271 36" fill="none" xmlns="http://www.w3.org/2000/svg">
<path d="M106.681 6.64233C106.648 6.40813 106.458 6.21758 106.223 6.18456C104.735 5.97498 103.115 6.48027 101.91 7.68559C100.705 8.89092 100.199 10.5104 100.409 11.999C100.442 12.2332 100.633 12.4238 100.867 12.4568C102.356 12.6664 103.975 12.1611 105.18 10.9557C106.386 9.75049 106.891 8.13106 106.681 6.64233Z" fill="#B4E66E"/>
<path d="M106.681 6.64172C106.665 6.52459 106.609 6.4185 106.528 6.3374L100.562 12.3027C100.643 12.3838 100.75 12.4397 100.867 12.4561C102.355 12.6658 103.975 12.1604 105.18 10.9551C106.385 9.74988 106.891 8.13045 106.681 6.64172Z" fill="#A0D755"/>
<path d="M91.9964 0.0163803C91.713 0.0433208 91.4911 0.265282 91.4641 0.548612C91.3599 1.64603 91.7537 2.81679 92.6357 3.69876C93.5176 4.58073 94.6884 4.97455 95.7858 4.87028C96.0691 4.84334 96.2911 4.62138 96.318 4.33805C96.4223 3.24063 96.0285 2.06987 95.1465 1.18791C94.2645 0.305938 93.0938 -0.0878828 91.9964 0.0163803Z" fill="#B4E66E"/>
<path d="M92.6357 3.69869C93.5176 4.58065 94.6884 4.97447 95.7858 4.87028C95.9275 4.85685 96.0538 4.79464 96.1481 4.70031L91.6341 0.186279C91.5398 0.280536 91.4776 0.406841 91.4641 0.548541C91.3599 1.64596 91.7537 2.81672 92.6357 3.69869Z" fill="#A0D755"/>
<path d="M86.6008 9.19594C86.3702 9.23505 86.184 9.42119 86.1449 9.65183C85.7639 11.8999 86.5003 14.3768 88.3304 16.2068C90.1604 18.0368 92.6374 18.7732 94.8854 18.3923C95.116 18.3532 95.3021 18.167 95.3413 17.9364C95.7223 15.6883 94.9859 13.2114 93.1558 11.3814C91.3257 9.55141 88.8489 8.81492 86.6008 9.19594Z" fill="#B4E66E"/>
<path d="M88.3303 16.2076C90.1603 18.0376 92.6373 18.774 94.8854 18.393C95.0007 18.3735 95.1048 18.3172 95.1852 18.2369L86.301 9.35278C86.2208 9.43304 86.1645 9.53724 86.1449 9.65256C85.7639 11.9006 86.5003 14.3776 88.3303 16.2076Z" fill="#A0D755"/>
<path d="M108.977 35.2586C108.099 33.2509 106.098 31.8464 103.767 31.8464C103.617 31.8464 103.47 31.8539 103.324 31.867C103.032 31.893 102.748 31.7996 102.513 31.6234C101.278 30.694 99.7446 30.1404 98.0796 30.1404C96.4147 30.1404 94.8811 30.694 93.6459 31.6234C93.4117 31.7996 93.1276 31.8931 92.8357 31.867C92.6897 31.8539 92.5422 31.8464 92.3928 31.8464C90.0614 31.8464 88.0602 33.2509 87.1823 35.2586H108.977Z" fill="#9B735A"/>
<path d="M103.031 9.83387C102.809 9.6117 102.449 9.6117 102.227 9.83387L99.0081 13.0539C98.88 13.1821 98.7608 13.3168 98.6482 13.4557V9.09857C98.6482 7.42805 97.9973 5.85697 96.816 4.67516L94.257 2.11609C94.0348 1.89392 93.675 1.89392 93.4528 2.11609C93.2306 2.33826 93.2306 2.69808 93.4528 2.92025L96.0119 5.47931C96.9782 6.44616 97.5108 7.73182 97.5108 9.09857V20.0251C97.2188 19.5623 96.8792 19.1255 96.4829 18.7291L91.613 13.8591C91.3908 13.637 91.031 13.637 90.8088 13.8591C90.5866 14.0813 90.5866 14.4411 90.8088 14.6633L95.6787 19.5332C96.86 20.715 97.5109 22.2861 97.5109 23.9566V30.7087H98.6483V16.672C98.6483 15.6096 99.062 14.61 99.8129 13.858L103.031 10.638C103.253 10.4159 103.253 10.056 103.031 9.83387Z" fill="#87BE4B"/>
<path d="M99.3074 30.2428C98.9082 30.1756 98.4982 30.1404 98.0797 30.1404C96.4147 30.1404 94.8812 30.694 93.6459 31.6234C93.4117 31.7996 93.1276 31.893 92.8357 31.8669C92.6897 31.8539 92.5422 31.8464 92.3928 31.8464C90.0614 31.8464 88.0602 33.2508 87.1823 35.2585H94.5947C95.3948 32.9985 97.1118 31.172 99.3074 30.2428Z" fill="#8C5F50"/>
<path d="M110.591 35.8266H85.5687C85.2544 35.8266 85 35.5722 85 35.2579C85 34.9436 85.2544 34.6892 85.5687 34.6892H110.591C110.905 34.6892 111.16 34.9436 111.16 35.2579C111.16 35.5722 110.905 35.8266 110.591 35.8266Z" fill="#AE8B70"/>
<path d="M178.501 12.6284C175.814 12.6284 173.628 14.8141 173.628 17.5007C173.628 20.1873 175.814 22.3729 178.501 22.3729C181.187 22.3729 183.373 20.1873 183.373 17.5007C183.373 14.8141 181.187 12.6284 178.501 12.6284ZM178.501 20.3142C176.949 20.3142 175.687 19.052 175.687 17.5007C175.687 15.9493 176.949 14.6871 178.501 14.6871C180.052 14.6871 181.314 15.9493 181.314 17.5007C181.314 19.052 180.052 20.3142 178.501 20.3142Z" fill="#7EAEDB"/>
<path d="M190.874 5.12716C185.059 -0.687565 176.272 -1.50995 169.614 2.4234C167.54 0.649216 164.295 2.11446 164.295 4.87414C164.295 5.51254 164.483 6.10771 164.804 6.60914C160.136 12.4738 159.698 20.7476 163.855 27.081C163.443 27.6227 163.197 28.2979 163.197 29.0295C163.197 31.6398 166.139 33.144 168.251 31.6843C175.073 36.6136 184.672 36.0764 190.874 29.8745C197.713 23.036 197.713 11.9666 190.874 5.12716ZM167.521 3.70755C168.164 3.70755 168.687 4.23087 168.687 4.87414C168.687 5.51742 168.164 6.04074 167.521 6.04074C166.877 6.04074 166.354 5.51742 166.354 4.87414C166.354 4.23087 166.877 3.70755 167.521 3.70755ZM166.423 30.1961C165.779 30.1961 165.256 29.6728 165.256 29.0295C165.256 28.3862 165.779 27.8629 166.423 27.8629C167.066 27.8629 167.589 28.3862 167.589 29.0295C167.589 29.6728 167.066 30.1961 166.423 30.1961ZM178.5 32.941C175.217 32.941 172.118 31.9396 169.486 30.0378C170.295 27.5849 168.025 25.2345 165.557 25.9231C161.915 20.3448 162.303 13.0667 166.407 7.90098C168.775 8.77524 171.214 6.68381 170.672 4.18921C180.821 -1.79411 193.941 5.48612 193.941 17.5008C193.941 26.0146 187.014 32.941 178.5 32.941Z" fill="#7EAEDB"/>
<path d="M190.509 10.9127C190.509 8.52145 187.992 6.9718 185.866 8.01645C183.765 6.38308 181.179 5.49146 178.5 5.49146C171.878 5.49146 166.491 10.8787 166.491 17.5005C166.491 23.9129 171.542 29.1674 177.875 29.4935C178.426 30.4843 179.484 31.1565 180.696 31.1565C182.374 31.1565 183.757 29.867 183.907 28.2264C189.524 25.3937 191.925 18.7665 189.669 13.0815C190.19 12.5082 190.509 11.7469 190.509 10.9127ZM180.696 29.0978C180.052 29.0978 179.529 28.5745 179.529 27.9313C179.529 27.288 180.052 26.7647 180.696 26.7647C181.339 26.7647 181.862 27.288 181.862 27.9313C181.862 28.5745 181.339 29.0978 180.696 29.0978ZM183.393 26.1665C181.773 23.6982 177.99 24.5305 177.514 27.4021C172.488 26.9058 168.549 22.6547 168.549 17.5005C168.549 9.32146 177.887 4.69556 184.393 9.48334C183.229 11.8282 185.231 14.5527 187.849 14.0872C189.5 18.5953 187.679 23.746 183.393 26.1665ZM187.283 12.0793C186.64 12.0793 186.117 11.556 186.117 10.9127C186.117 10.2694 186.64 9.7461 187.283 9.7461C187.927 9.7461 188.45 10.2694 188.45 10.9127C188.45 11.556 187.927 12.0793 187.283 12.0793Z" fill="#7EAEDB"/>
<path d="M260.898 9.67692C259.777 9.67692 259.353 11.0823 259.335 11.1416C259.208 11.5809 258.804 11.8855 258.348 11.8855H258.34C257.88 11.8825 257.478 11.5779 257.356 11.1346C257.34 11.0824 256.916 9.67692 255.794 9.67692C254.793 9.67692 254.271 10.5535 254.271 11.419C254.271 12.6475 255.38 13.6388 257.691 15.5889C257.902 15.7678 258.121 15.9528 258.346 16.1438C258.567 15.9558 258.782 15.7749 258.991 15.599C261.109 13.806 262.421 12.7038 262.421 11.419C262.422 10.5535 261.899 9.67692 260.898 9.67692ZM258.346 0C251.538 0 246 5.54113 246 12.3529C246 20.8676 257.088 34.0771 257.561 34.6351C257.755 34.8663 258.043 35 258.346 35C258.65 35 258.937 34.8663 259.132 34.6351C259.604 34.0771 270.693 20.8676 270.693 12.3529C270.693 5.54113 265.155 0 258.346 0ZM260.318 17.1723C259.91 17.517 259.476 17.883 259.02 18.2781C258.827 18.4459 258.586 18.5294 258.346 18.5294C258.105 18.5294 257.866 18.4459 257.673 18.2781C257.213 17.88 256.775 17.5101 256.363 17.1623C253.954 15.1286 252.213 13.6579 252.213 11.419C252.213 9.28786 253.787 7.61806 255.794 7.61806C256.926 7.61806 257.761 8.13472 258.346 8.78419C258.931 8.13472 259.767 7.61806 260.898 7.61806C262.906 7.61806 264.479 9.28786 264.479 11.419C264.479 13.7432 262.565 15.2747 260.318 17.1723Z" fill="url(#paint0_linear_107_44)"/>
<path d="M20.5374 11.3331H20.371C18.4583 11.3359 16.5512 11.5428 14.6825 11.95C13.8422 12.1072 13.0143 12.3248 12.2055 12.602C10.7299 13.1667 9.4522 14.1508 8.52973 15.4334C6.7795 17.7615 6.34175 20.3039 7.40519 23.0389C7.94821 24.5669 9.06602 25.823 10.5208 26.5397C12.1056 27.3165 13.9041 27.5431 15.6318 27.1829C17.0945 26.9509 18.4806 26.3731 19.6753 25.4982C20.266 25.0299 20.8175 24.5049 21.4256 23.9927C21.46 24.0318 21.4921 24.0727 21.522 24.1151C22.2125 25.1016 22.9933 26.0216 23.8544 26.8632C24.1871 27.1977 24.7198 27.2243 25.0839 26.9246C26.2509 25.9472 27.4178 24.9686 28.5848 23.9884C28.6461 23.9204 28.6885 23.8373 28.7072 23.7476C28.8137 23.4524 28.7642 23.1234 28.5759 22.8725C28.3045 22.4787 28.0509 22.0718 27.7575 21.6909H27.7578C27.3 21.0639 26.9999 20.3359 26.8824 19.5686C26.8171 19.2047 26.7835 18.8357 26.782 18.466V8.72092V8.72061C26.8073 7.88215 26.6934 7.04517 26.445 6.24389C26.0613 4.96705 25.2716 3.85016 24.1956 3.06264C22.4264 1.83651 20.3505 1.12768 18.201 1.0157C16.0514 0.90368 13.9132 1.39268 12.0262 2.42805C9.82075 3.5651 8.2561 5.64743 7.77685 8.0818C7.71092 8.32997 7.76281 8.59461 7.91757 8.79973C8.07203 9.00486 8.31225 9.12726 8.56896 9.13214L10.7789 9.32902C11.3302 9.37725 11.8817 9.42976 12.433 9.47341C12.8625 9.52927 13.2727 9.27775 13.4175 8.86963C13.5771 8.09523 13.9791 7.39196 14.5652 6.86177C15.1516 6.33125 15.8915 6.00158 16.6778 5.92007C17.4156 5.77264 18.1811 5.86147 18.8658 6.17404C19.3777 6.39168 19.8123 6.75888 20.1127 7.22716C20.4134 7.6954 20.566 8.24332 20.5504 8.79946V11.0967C20.5461 11.1715 20.5416 11.2502 20.5373 11.3332L20.5374 11.3331ZM19.6927 20.6844C19.3173 21.2891 18.8457 21.8285 18.2969 22.2817C17.64 22.8443 16.7478 23.0473 15.912 22.8241C15.5668 22.7383 15.234 22.6074 14.923 22.4346C14.22 22.0421 13.7362 21.3486 13.6101 20.5531C13.376 19.6609 13.4065 18.7198 13.6978 17.8444C14.0494 16.899 14.7258 16.1097 15.6055 15.617C16.2246 15.2199 16.9333 14.9852 17.6668 14.9342C18.5728 14.8774 19.4827 14.8335 20.3887 14.7855H20.5462V15.0438V17.7088C20.5611 18.7628 20.2641 19.7982 19.6927 20.6843L19.6927 20.6844Z" fill="#FF9900"/>
<path d="M4.02663 29.8739C3.58891 29.6376 3.15151 29.3925 2.71376 29.1431C2.425 28.9725 2.14052 28.8019 1.83864 28.6181C1.40092 28.3336 0.96353 28.036 0.525776 27.743L0.526082 27.7427C0.466254 27.6832 0.383229 27.6526 0.298984 27.6594C0.215044 27.6661 0.137816 27.7094 0.0883672 27.7778C-0.0294557 27.8999 -0.0294557 28.0931 0.0883672 28.2152C0.42963 28.6004 0.779747 28.9811 1.14298 29.3529C1.35298 29.5717 1.5807 29.7644 1.80383 29.9744C2.51901 30.677 3.29189 31.318 4.11418 31.891C4.5519 32.206 5.01125 32.5079 5.47495 32.7923C6.0656 33.1513 6.66084 33.5142 7.2823 33.825C7.90378 34.1357 8.50328 34.3851 9.12021 34.6476L9.12052 34.6479C9.49475 34.813 9.87752 34.9592 10.267 35.0856C11.0194 35.3649 11.7978 35.5685 12.5905 35.6936C13.3039 35.7636 14.0126 35.9079 14.7303 35.9781C15.168 36.0218 15.6448 35.9781 16.1045 35.9781V36.0001C16.8658 35.9565 17.6316 35.9388 18.3886 35.86C19.0186 35.7944 19.6401 35.6762 20.2616 35.5493C20.883 35.4223 21.5305 35.2648 22.1608 35.0853C22.6291 34.9498 23.0842 34.7657 23.5393 34.5908V34.5911C23.9365 34.4522 24.3265 34.2929 24.7075 34.114C25.2194 33.8603 25.7185 33.5759 26.213 33.2868C26.7075 32.998 27.0881 32.766 27.4819 32.4815V32.4818C27.8008 32.2627 28.1064 32.0243 28.3967 31.7685C28.8344 31.3964 29.237 31.0115 29.6482 30.622C29.7782 30.4764 29.7962 30.2621 29.6918 30.097C29.5554 29.9611 29.3579 29.9065 29.1711 29.9526C28.9742 30.0225 28.7905 30.1275 28.5978 30.2108C27.7227 30.5872 26.8476 30.9547 25.9721 31.3399V31.3396C25.1 31.7044 24.2038 32.0084 23.2896 32.2498C22.8519 32.3768 22.4145 32.5034 21.9768 32.6173C21.6923 32.6872 21.4078 32.7443 21.1017 32.8053C20.6639 32.9015 20.2265 33.0196 19.7888 33.0855C19.3511 33.1512 18.8828 33.1554 18.428 33.1817C18.1084 33.1817 17.7934 33.2299 17.4741 33.2342C16.7345 33.2342 15.9907 33.2342 15.2511 33.2122C14.7434 33.2122 14.2358 33.1377 13.7239 33.0941C13.4263 33.0678 13.1287 33.0504 12.8488 33.0022C12.1748 32.8841 11.5055 32.744 10.8357 32.617V32.6173C10.0799 32.4741 9.3385 32.2617 8.62147 31.983C8.02624 31.7467 7.43558 31.5059 6.8492 31.2565C6.38523 31.0596 5.92157 30.8628 5.47069 30.6439C5.05953 30.3945 4.54736 30.1274 4.02662 29.8738L4.02663 29.8739Z" fill="#FF9900"/>
<path d="M34.9295 28.4735C35.0217 27.9866 35.0773 27.494 35.0959 26.9989C35.0971 26.4424 34.6884 25.9702 34.1374 25.8917C33.6896 25.8145 33.2357 25.7763 32.7809 25.7779C32.0123 25.784 31.2461 25.8737 30.4968 26.045C29.5469 26.2699 28.6406 26.65 27.8144 27.1695C27.7356 27.222 27.7094 27.3533 27.6569 27.4497V27.4494C27.7548 27.4885 27.858 27.512 27.963 27.5196C28.2826 27.476 28.593 27.3841 28.9126 27.3578C29.5951 27.2965 30.2822 27.266 31.0176 27.2223L32.4837 27.3447L32.4834 27.3444C32.7771 27.3856 33.0396 27.5489 33.2062 27.794C33.3729 28.0388 33.4281 28.3429 33.3588 28.631C33.2276 29.0031 33.1708 29.4012 33.0524 29.7818C32.8335 30.482 32.6147 31.1777 32.3699 31.8737C32.256 32.2018 32.0985 32.5126 31.9761 32.8364H31.9758C31.959 32.9216 31.959 33.0095 31.9758 33.0946C32.06 33.0995 32.1443 33.0907 32.2255 33.0684C32.3314 33.0192 32.4266 32.9493 32.5054 32.8627C32.9416 32.3889 33.3521 31.8923 33.7352 31.3749C34.0774 30.8502 34.3704 30.295 34.6103 29.7165C34.7654 29.316 34.8725 28.899 34.9296 28.4736L34.9295 28.4735Z" fill="#FF9900"/>
<defs>
<linearGradient id="paint0_linear_107_44" x1="258.346" y1="35" x2="258.346" y2="0" gradientUnits="userSpaceOnUse">
<stop stop-color="#4F5DD9"/>
<stop offset="1" stop-color="#FD3A84"/>
</linearGradient>
</defs>
</svg>
