<svg width="308" height="282" viewBox="0 0 308 282" fill="none" xmlns="http://www.w3.org/2000/svg">
<g filter="url(#filter0_d)">
<rect x="4" width="300" height="274" rx="10" fill="#F48046"/>
</g>
<path d="M86.3081 123.547L86.3472 124.484C86.967 123.755 87.8029 123.391 88.855 123.391C90.0373 123.391 90.842 123.844 91.2691 124.75C91.5503 124.344 91.9149 124.016 92.3628 123.766C92.8159 123.516 93.3498 123.391 93.9644 123.391C95.8185 123.391 96.7612 124.372 96.7925 126.336V132H95.3472V126.422C95.3472 125.818 95.2092 125.367 94.9331 125.07C94.6571 124.768 94.1935 124.617 93.5425 124.617C93.006 124.617 92.5607 124.779 92.2066 125.102C91.8524 125.419 91.6467 125.849 91.5894 126.391V132H90.1362V126.461C90.1362 125.232 89.5347 124.617 88.3316 124.617C87.3836 124.617 86.7352 125.021 86.3862 125.828V132H84.9409V123.547H86.3081ZM100.037 127.695C100.037 126.867 100.199 126.122 100.522 125.461C100.85 124.799 101.303 124.289 101.881 123.93C102.464 123.57 103.128 123.391 103.873 123.391C105.024 123.391 105.954 123.789 106.662 124.586C107.376 125.383 107.732 126.443 107.732 127.766V127.867C107.732 128.69 107.574 129.43 107.256 130.086C106.943 130.737 106.493 131.245 105.904 131.609C105.321 131.974 104.649 132.156 103.889 132.156C102.743 132.156 101.813 131.758 101.1 130.961C100.391 130.164 100.037 129.109 100.037 127.797V127.695ZM101.49 127.867C101.49 128.805 101.706 129.557 102.139 130.125C102.576 130.693 103.16 130.977 103.889 130.977C104.623 130.977 105.206 130.69 105.639 130.117C106.071 129.539 106.287 128.732 106.287 127.695C106.287 126.768 106.066 126.018 105.623 125.445C105.186 124.867 104.602 124.578 103.873 124.578C103.16 124.578 102.584 124.862 102.147 125.43C101.709 125.997 101.49 126.81 101.49 127.867ZM115.071 124.844C114.852 124.807 114.615 124.789 114.36 124.789C113.412 124.789 112.769 125.193 112.43 126V132H110.985V123.547H112.391L112.415 124.523C112.889 123.768 113.561 123.391 114.43 123.391C114.712 123.391 114.925 123.427 115.071 123.5V124.844ZM121.198 132.156C120.053 132.156 119.12 131.781 118.402 131.031C117.683 130.276 117.323 129.268 117.323 128.008V127.742C117.323 126.904 117.482 126.156 117.8 125.5C118.123 124.839 118.571 124.323 119.144 123.953C119.722 123.578 120.347 123.391 121.019 123.391C122.118 123.391 122.972 123.753 123.581 124.477C124.191 125.201 124.495 126.237 124.495 127.586V128.188H118.769C118.79 129.021 119.032 129.695 119.495 130.211C119.964 130.721 120.558 130.977 121.277 130.977C121.787 130.977 122.219 130.872 122.573 130.664C122.928 130.456 123.237 130.18 123.503 129.836L124.386 130.523C123.678 131.612 122.615 132.156 121.198 132.156ZM121.019 124.578C120.435 124.578 119.946 124.792 119.55 125.219C119.154 125.641 118.909 126.234 118.816 127H123.05V126.891C123.008 126.156 122.81 125.589 122.456 125.188C122.102 124.781 121.623 124.578 121.019 124.578ZM134.594 132H133.149V123.547H134.594V132ZM133.032 121.305C133.032 121.07 133.102 120.872 133.242 120.711C133.388 120.549 133.602 120.469 133.883 120.469C134.164 120.469 134.378 120.549 134.524 120.711C134.67 120.872 134.742 121.07 134.742 121.305C134.742 121.539 134.67 121.734 134.524 121.891C134.378 122.047 134.164 122.125 133.883 122.125C133.602 122.125 133.388 122.047 133.242 121.891C133.102 121.734 133.032 121.539 133.032 121.305ZM139.722 123.547L139.768 124.609C140.414 123.797 141.258 123.391 142.3 123.391C144.086 123.391 144.987 124.398 145.003 126.414V132H143.557V126.406C143.552 125.797 143.412 125.346 143.136 125.055C142.865 124.763 142.44 124.617 141.862 124.617C141.393 124.617 140.982 124.742 140.628 124.992C140.274 125.242 139.998 125.57 139.8 125.977V132H138.354V123.547H139.722ZM150.583 121.5V123.547H152.162V124.664H150.583V129.906C150.583 130.245 150.654 130.5 150.794 130.672C150.935 130.839 151.175 130.922 151.513 130.922C151.68 130.922 151.909 130.891 152.201 130.828V132C151.82 132.104 151.451 132.156 151.091 132.156C150.445 132.156 149.958 131.961 149.63 131.57C149.302 131.18 149.138 130.625 149.138 129.906V124.664H147.599V123.547H149.138V121.5H150.583ZM158.805 132.156C157.659 132.156 156.727 131.781 156.008 131.031C155.289 130.276 154.93 129.268 154.93 128.008V127.742C154.93 126.904 155.089 126.156 155.406 125.5C155.729 124.839 156.177 124.323 156.75 123.953C157.328 123.578 157.953 123.391 158.625 123.391C159.724 123.391 160.578 123.753 161.188 124.477C161.797 125.201 162.102 126.237 162.102 127.586V128.188H156.375C156.396 129.021 156.638 129.695 157.102 130.211C157.57 130.721 158.164 130.977 158.883 130.977C159.393 130.977 159.826 130.872 160.18 130.664C160.534 130.456 160.844 130.18 161.109 129.836L161.992 130.523C161.284 131.612 160.221 132.156 158.805 132.156ZM158.625 124.578C158.042 124.578 157.552 124.792 157.156 125.219C156.76 125.641 156.516 126.234 156.422 127H160.656V126.891C160.615 126.156 160.417 125.589 160.062 125.188C159.708 124.781 159.229 124.578 158.625 124.578ZM169.307 124.844C169.088 124.807 168.851 124.789 168.596 124.789C167.648 124.789 167.005 125.193 166.667 126V132H165.221V123.547H166.627L166.651 124.523C167.125 123.768 167.797 123.391 168.667 123.391C168.948 123.391 169.161 123.427 169.307 123.5V124.844ZM175.435 132.156C174.289 132.156 173.357 131.781 172.638 131.031C171.919 130.276 171.56 129.268 171.56 128.008V127.742C171.56 126.904 171.719 126.156 172.036 125.5C172.359 124.839 172.807 124.323 173.38 123.953C173.958 123.578 174.583 123.391 175.255 123.391C176.354 123.391 177.208 123.753 177.817 124.477C178.427 125.201 178.732 126.237 178.732 127.586V128.188H173.005C173.026 129.021 173.268 129.695 173.732 130.211C174.2 130.721 174.794 130.977 175.513 130.977C176.023 130.977 176.456 130.872 176.81 130.664C177.164 130.456 177.474 130.18 177.739 129.836L178.622 130.523C177.914 131.612 176.851 132.156 175.435 132.156ZM175.255 124.578C174.672 124.578 174.182 124.792 173.786 125.219C173.39 125.641 173.146 126.234 173.052 127H177.286V126.891C177.245 126.156 177.047 125.589 176.692 125.188C176.338 124.781 175.859 124.578 175.255 124.578ZM186.773 129.758C186.773 129.367 186.625 129.065 186.328 128.852C186.036 128.633 185.523 128.445 184.789 128.289C184.06 128.133 183.479 127.945 183.047 127.727C182.619 127.508 182.302 127.247 182.093 126.945C181.89 126.643 181.789 126.284 181.789 125.867C181.789 125.174 182.08 124.589 182.664 124.109C183.252 123.63 184.002 123.391 184.914 123.391C185.872 123.391 186.648 123.638 187.242 124.133C187.841 124.628 188.14 125.26 188.14 126.031H186.687C186.687 125.635 186.518 125.294 186.179 125.008C185.846 124.721 185.424 124.578 184.914 124.578C184.388 124.578 183.976 124.693 183.679 124.922C183.382 125.151 183.234 125.451 183.234 125.82C183.234 126.169 183.372 126.432 183.648 126.609C183.924 126.786 184.422 126.956 185.14 127.117C185.864 127.279 186.45 127.471 186.898 127.695C187.346 127.919 187.677 128.19 187.89 128.508C188.109 128.82 188.218 129.203 188.218 129.656C188.218 130.411 187.916 131.018 187.312 131.477C186.708 131.93 185.924 132.156 184.961 132.156C184.284 132.156 183.685 132.036 183.164 131.797C182.643 131.557 182.234 131.224 181.937 130.797C181.646 130.365 181.5 129.898 181.5 129.398H182.945C182.971 129.883 183.164 130.268 183.523 130.555C183.888 130.836 184.367 130.977 184.961 130.977C185.507 130.977 185.945 130.867 186.273 130.648C186.606 130.424 186.773 130.128 186.773 129.758ZM193.502 121.5V123.547H195.08V124.664H193.502V129.906C193.502 130.245 193.572 130.5 193.713 130.672C193.854 130.839 194.093 130.922 194.432 130.922C194.599 130.922 194.828 130.891 195.119 130.828V132C194.739 132.104 194.369 132.156 194.01 132.156C193.364 132.156 192.877 131.961 192.549 131.57C192.221 131.18 192.057 130.625 192.057 129.906V124.664H190.518V123.547H192.057V121.5H193.502ZM199.786 132H198.341V123.547H199.786V132ZM198.223 121.305C198.223 121.07 198.294 120.872 198.434 120.711C198.58 120.549 198.794 120.469 199.075 120.469C199.356 120.469 199.57 120.549 199.716 120.711C199.861 120.872 199.934 121.07 199.934 121.305C199.934 121.539 199.861 121.734 199.716 121.891C199.57 122.047 199.356 122.125 199.075 122.125C198.794 122.125 198.58 122.047 198.434 121.891C198.294 121.734 198.223 121.539 198.223 121.305ZM204.913 123.547L204.96 124.609C205.606 123.797 206.45 123.391 207.492 123.391C209.278 123.391 210.179 124.398 210.195 126.414V132H208.749V126.406C208.744 125.797 208.604 125.346 208.327 125.055C208.057 124.763 207.632 124.617 207.054 124.617C206.585 124.617 206.174 124.742 205.82 124.992C205.466 125.242 205.189 125.57 204.992 125.977V132H203.546V123.547H204.913ZM213.471 127.703C213.471 126.385 213.775 125.339 214.385 124.562C214.994 123.781 215.801 123.391 216.807 123.391C217.838 123.391 218.643 123.755 219.221 124.484L219.291 123.547H220.611V131.797C220.611 132.891 220.286 133.753 219.635 134.383C218.989 135.013 218.119 135.328 217.025 135.328C216.416 135.328 215.82 135.198 215.236 134.938C214.653 134.677 214.208 134.32 213.9 133.867L214.65 133C215.27 133.766 216.028 134.148 216.924 134.148C217.627 134.148 218.174 133.951 218.564 133.555C218.96 133.159 219.158 132.602 219.158 131.883V131.156C218.58 131.823 217.791 132.156 216.791 132.156C215.801 132.156 214.999 131.758 214.385 130.961C213.775 130.164 213.471 129.078 213.471 127.703ZM214.924 127.867C214.924 128.82 215.119 129.57 215.51 130.117C215.9 130.659 216.447 130.93 217.15 130.93C218.062 130.93 218.731 130.516 219.158 129.688V125.828C218.715 125.021 218.051 124.617 217.166 124.617C216.463 124.617 215.913 124.891 215.518 125.438C215.122 125.984 214.924 126.794 214.924 127.867ZM105.016 150.008L106.641 143.547H108.087L105.626 152H104.454L102.399 145.594L100.399 152H99.2272L96.7741 143.547H98.2116L99.8756 149.875L101.844 143.547H103.008L105.016 150.008ZM110.62 147.695C110.62 146.867 110.782 146.122 111.105 145.461C111.433 144.799 111.886 144.289 112.464 143.93C113.047 143.57 113.711 143.391 114.456 143.391C115.607 143.391 116.537 143.789 117.245 144.586C117.959 145.383 118.316 146.443 118.316 147.766V147.867C118.316 148.69 118.157 149.43 117.839 150.086C117.527 150.737 117.076 151.245 116.488 151.609C115.904 151.974 115.232 152.156 114.472 152.156C113.326 152.156 112.396 151.758 111.683 150.961C110.974 150.164 110.62 149.109 110.62 147.797V147.695ZM112.073 147.867C112.073 148.805 112.29 149.557 112.722 150.125C113.159 150.693 113.743 150.977 114.472 150.977C115.206 150.977 115.79 150.69 116.222 150.117C116.654 149.539 116.87 148.732 116.87 147.695C116.87 146.768 116.649 146.018 116.206 145.445C115.769 144.867 115.185 144.578 114.456 144.578C113.743 144.578 113.167 144.862 112.73 145.43C112.292 145.997 112.073 146.81 112.073 147.867ZM125.654 144.844C125.435 144.807 125.198 144.789 124.943 144.789C123.995 144.789 123.352 145.193 123.013 146V152H121.568V143.547H122.974L122.998 144.523C123.472 143.768 124.144 143.391 125.013 143.391C125.295 143.391 125.508 143.427 125.654 143.5V144.844ZM130.789 148.086L129.883 149.031V152H128.438V140H129.883V147.258L130.657 146.328L133.289 143.547H135.047L131.758 147.078L135.43 152H133.735L130.789 148.086ZM145.349 141.5V143.547H146.927V144.664H145.349V149.906C145.349 150.245 145.419 150.5 145.56 150.672C145.701 150.839 145.94 150.922 146.279 150.922C146.445 150.922 146.675 150.891 146.966 150.828V152C146.586 152.104 146.216 152.156 145.857 152.156C145.211 152.156 144.724 151.961 144.396 151.57C144.068 151.18 143.904 150.625 143.904 149.906V144.664H142.365V143.547H143.904V141.5H145.349ZM149.523 147.695C149.523 146.867 149.685 146.122 150.008 145.461C150.336 144.799 150.789 144.289 151.367 143.93C151.951 143.57 152.615 143.391 153.359 143.391C154.51 143.391 155.44 143.789 156.148 144.586C156.862 145.383 157.219 146.443 157.219 147.766V147.867C157.219 148.69 157.06 149.43 156.742 150.086C156.43 150.737 155.979 151.245 155.391 151.609C154.807 151.974 154.135 152.156 153.375 152.156C152.229 152.156 151.299 151.758 150.586 150.961C149.878 150.164 149.523 149.109 149.523 147.797V147.695ZM150.977 147.867C150.977 148.805 151.193 149.557 151.625 150.125C152.062 150.693 152.646 150.977 153.375 150.977C154.109 150.977 154.693 150.69 155.125 150.117C155.557 149.539 155.773 148.732 155.773 147.695C155.773 146.768 155.552 146.018 155.109 145.445C154.672 144.867 154.089 144.578 153.359 144.578C152.646 144.578 152.07 144.862 151.633 145.43C151.195 145.997 150.977 146.81 150.977 147.867ZM169.271 150.977C169.786 150.977 170.237 150.82 170.622 150.508C171.008 150.195 171.221 149.805 171.263 149.336H172.63C172.604 149.82 172.437 150.281 172.13 150.719C171.823 151.156 171.411 151.505 170.896 151.766C170.385 152.026 169.844 152.156 169.271 152.156C168.12 152.156 167.203 151.773 166.521 151.008C165.844 150.237 165.505 149.185 165.505 147.852V147.609C165.505 146.786 165.656 146.055 165.958 145.414C166.26 144.773 166.693 144.276 167.255 143.922C167.823 143.568 168.492 143.391 169.263 143.391C170.211 143.391 170.997 143.674 171.622 144.242C172.252 144.81 172.588 145.547 172.63 146.453H171.263C171.221 145.906 171.013 145.458 170.638 145.109C170.268 144.755 169.81 144.578 169.263 144.578C168.528 144.578 167.958 144.844 167.552 145.375C167.151 145.901 166.95 146.664 166.95 147.664V147.938C166.95 148.911 167.151 149.661 167.552 150.188C167.953 150.714 168.526 150.977 169.271 150.977ZM175.312 147.695C175.312 146.867 175.474 146.122 175.797 145.461C176.125 144.799 176.578 144.289 177.156 143.93C177.739 143.57 178.403 143.391 179.148 143.391C180.299 143.391 181.229 143.789 181.937 144.586C182.651 145.383 183.007 146.443 183.007 147.766V147.867C183.007 148.69 182.849 149.43 182.531 150.086C182.218 150.737 181.768 151.245 181.179 151.609C180.596 151.974 179.924 152.156 179.164 152.156C178.018 152.156 177.088 151.758 176.375 150.961C175.666 150.164 175.312 149.109 175.312 147.797V147.695ZM176.765 147.867C176.765 148.805 176.981 149.557 177.414 150.125C177.851 150.693 178.435 150.977 179.164 150.977C179.898 150.977 180.481 150.69 180.914 150.117C181.346 149.539 181.562 148.732 181.562 147.695C181.562 146.768 181.341 146.018 180.898 145.445C180.461 144.867 179.877 144.578 179.148 144.578C178.435 144.578 177.859 144.862 177.422 145.43C176.984 145.997 176.765 146.81 176.765 147.867ZM187.619 143.547L187.658 144.484C188.278 143.755 189.114 143.391 190.166 143.391C191.349 143.391 192.153 143.844 192.58 144.75C192.862 144.344 193.226 144.016 193.674 143.766C194.127 143.516 194.661 143.391 195.276 143.391C197.13 143.391 198.073 144.372 198.104 146.336V152H196.658V146.422C196.658 145.818 196.52 145.367 196.244 145.07C195.968 144.768 195.505 144.617 194.854 144.617C194.317 144.617 193.872 144.779 193.518 145.102C193.164 145.419 192.958 145.849 192.901 146.391V152H191.448V146.461C191.448 145.232 190.846 144.617 189.643 144.617C188.695 144.617 188.046 145.021 187.698 145.828V152H186.252V143.547H187.619ZM205.239 152.156C204.093 152.156 203.161 151.781 202.442 151.031C201.723 150.276 201.364 149.268 201.364 148.008V147.742C201.364 146.904 201.523 146.156 201.841 145.5C202.164 144.839 202.611 144.323 203.184 143.953C203.763 143.578 204.388 143.391 205.059 143.391C206.158 143.391 207.013 143.753 207.622 144.477C208.231 145.201 208.536 146.237 208.536 147.586V148.188H202.809C202.83 149.021 203.072 149.695 203.536 150.211C204.005 150.721 204.598 150.977 205.317 150.977C205.828 150.977 206.26 150.872 206.614 150.664C206.968 150.456 207.278 150.18 207.544 149.836L208.427 150.523C207.718 151.612 206.656 152.156 205.239 152.156ZM205.059 144.578C204.476 144.578 203.986 144.792 203.591 145.219C203.195 145.641 202.95 146.234 202.856 147H207.091V146.891C207.049 146.156 206.851 145.589 206.497 145.188C206.143 144.781 205.664 144.578 205.059 144.578Z" fill="white"/>
<defs>
<filter id="filter0_d" x="0" y="0" width="308" height="282" filterUnits="userSpaceOnUse" color-interpolation-filters="sRGB">
<feFlood flood-opacity="0" result="BackgroundImageFix"/>
<feColorMatrix in="SourceAlpha" type="matrix" values="0 0 0 0 0 0 0 0 0 0 0 0 0 0 0 0 0 0 127 0"/>
<feOffset dy="4"/>
<feGaussianBlur stdDeviation="2"/>
<feColorMatrix type="matrix" values="0 0 0 0 0.516667 0 0 0 0 0.516667 0 0 0 0 0.516667 0 0 0 0.25 0"/>
<feBlend mode="normal" in2="BackgroundImageFix" result="effect1_dropShadow"/>
<feBlend mode="normal" in="SourceGraphic" in2="effect1_dropShadow" result="shape"/>
</filter>
</defs>
</svg>
