<svg width="308" height="282" viewBox="0 0 308 282" fill="none" xmlns="http://www.w3.org/2000/svg">
<g filter="url(#filter0_d)">
<rect x="4" width="300" height="274" rx="10" fill="#FFA477"/>
</g>
<path d="M41.891 131.12C41.131 131.12 40.4977 130.86 39.991 130.34C39.4843 129.82 39.231 129.007 39.231 127.9C39.231 126.913 39.4243 125.88 39.811 124.8C40.211 123.707 40.7977 122.787 41.571 122.04C42.3577 121.28 43.291 120.9 44.371 120.9C44.9177 120.9 45.3243 120.993 45.591 121.18C45.8577 121.367 45.991 121.613 45.991 121.92V122.06L46.211 121H49.091L47.651 127.8C47.5977 128 47.571 128.213 47.571 128.44C47.571 129.013 47.8443 129.3 48.391 129.3C48.7643 129.3 49.0843 129.127 49.351 128.78C49.631 128.433 49.851 127.98 50.011 127.42H50.851C50.3577 128.86 49.7443 129.84 49.011 130.36C48.291 130.867 47.5643 131.12 46.831 131.12C46.271 131.12 45.8177 130.967 45.471 130.66C45.1377 130.34 44.9377 129.88 44.871 129.28C44.4843 129.827 44.051 130.273 43.571 130.62C43.1043 130.953 42.5443 131.12 41.891 131.12ZM43.191 129.18C43.5243 129.18 43.851 129.027 44.171 128.72C44.5043 128.4 44.731 127.967 44.851 127.42L45.811 122.9C45.811 122.727 45.7443 122.56 45.611 122.4C45.4777 122.227 45.271 122.14 44.991 122.14C44.4577 122.14 43.9777 122.453 43.551 123.08C43.1243 123.693 42.791 124.44 42.551 125.32C42.311 126.187 42.191 126.953 42.191 127.62C42.191 128.287 42.2843 128.713 42.471 128.9C42.671 129.087 42.911 129.18 43.191 129.18ZM53.7984 131.12C53.1584 131.12 52.6384 130.92 52.2384 130.52C51.8517 130.12 51.6584 129.52 51.6584 128.72C51.6584 128.387 51.7117 127.953 51.8184 127.42L53.9584 117.4L56.9184 117L54.6184 127.8C54.565 128 54.5384 128.213 54.5384 128.44C54.5384 128.707 54.5984 128.9 54.7184 129.02C54.8517 129.127 55.065 129.18 55.3584 129.18C55.745 129.18 56.105 129.02 56.4384 128.7C56.7717 128.367 57.0117 127.94 57.1584 127.42H57.9984C57.505 128.86 56.8717 129.84 56.0984 130.36C55.325 130.867 54.5584 131.12 53.7984 131.12ZM60.9304 131.12C60.2904 131.12 59.7704 130.92 59.3704 130.52C58.9837 130.12 58.7904 129.52 58.7904 128.72C58.7904 128.387 58.8437 127.953 58.9504 127.42L60.3104 121H63.1904L61.7504 127.8C61.7104 127.96 61.6904 128.127 61.6904 128.3C61.6904 128.887 61.8904 129.18 62.2904 129.18C62.6637 129.18 62.9837 129.027 63.2504 128.72C63.5171 128.4 63.7304 127.967 63.8904 127.42L65.2504 121H68.1304L66.6904 127.8C66.6237 128.133 66.5904 128.373 66.5904 128.52C66.5904 128.96 66.8171 129.18 67.2704 129.18C67.8837 129.18 68.4504 128.793 68.9704 128.02C69.5037 127.247 69.9304 126.327 70.2504 125.26C70.5704 124.193 70.7304 123.273 70.7304 122.5C70.7037 122.567 70.6171 122.62 70.4704 122.66C70.3237 122.687 70.1971 122.7 70.0904 122.7C69.8637 122.7 69.6837 122.593 69.5504 122.38C69.4304 122.167 69.3704 121.933 69.3704 121.68C69.3704 121.36 69.4704 121.1 69.6704 120.9C69.8837 120.7 70.1971 120.6 70.6104 120.6C71.0504 120.6 71.3704 120.767 71.5704 121.1C71.7704 121.42 71.8704 121.833 71.8704 122.34C71.8704 123.54 71.6637 124.827 71.2504 126.2C70.8371 127.56 70.2037 128.72 69.3504 129.68C68.4971 130.64 67.4371 131.12 66.1704 131.12C65.5171 131.12 64.9837 130.98 64.5704 130.7C64.1571 130.42 63.8904 130 63.7704 129.44C63.0237 130.56 62.0771 131.12 60.9304 131.12ZM76.373 131.12C75.613 131.12 74.9797 130.86 74.473 130.34C73.9664 129.82 73.713 129.007 73.713 127.9C73.713 126.913 73.9064 125.88 74.293 124.8C74.693 123.707 75.2797 122.787 76.053 122.04C76.8397 121.28 77.773 120.9 78.853 120.9C79.3997 120.9 79.8064 120.993 80.073 121.18C80.3397 121.367 80.473 121.613 80.473 121.92V122.06L80.693 121H83.573L82.133 127.8C82.0797 128 82.053 128.213 82.053 128.44C82.053 129.013 82.3264 129.3 82.873 129.3C83.2464 129.3 83.5664 129.127 83.833 128.78C84.113 128.433 84.333 127.98 84.493 127.42H85.333C84.8397 128.86 84.2264 129.84 83.493 130.36C82.773 130.867 82.0464 131.12 81.313 131.12C80.753 131.12 80.2997 130.967 79.953 130.66C79.6197 130.34 79.4197 129.88 79.353 129.28C78.9664 129.827 78.533 130.273 78.053 130.62C77.5864 130.953 77.0264 131.12 76.373 131.12ZM77.673 129.18C78.0064 129.18 78.333 129.027 78.653 128.72C78.9864 128.4 79.213 127.967 79.333 127.42L80.293 122.9C80.293 122.727 80.2264 122.56 80.093 122.4C79.9597 122.227 79.753 122.14 79.473 122.14C78.9397 122.14 78.4597 122.453 78.033 123.08C77.6064 123.693 77.273 124.44 77.033 125.32C76.793 126.187 76.673 126.953 76.673 127.62C76.673 128.287 76.7664 128.713 76.953 128.9C77.153 129.087 77.393 129.18 77.673 129.18ZM89.4204 136C88.7804 136 88.2471 135.833 87.8204 135.5C87.3937 135.167 87.1804 134.687 87.1804 134.06C87.1804 133.3 87.4871 132.687 88.1004 132.22C88.7137 131.767 89.4937 131.387 90.4404 131.08L90.6804 130C90.2937 130.427 89.9004 130.72 89.5004 130.88C89.1004 131.04 88.6937 131.12 88.2804 131.12C87.6404 131.12 87.1204 130.92 86.7204 130.52C86.3337 130.12 86.1404 129.52 86.1404 128.72C86.1404 128.387 86.1937 127.953 86.3004 127.42L87.6604 121H90.5404L89.1004 127.8C89.0604 127.96 89.0404 128.127 89.0404 128.3C89.0404 128.887 89.2404 129.18 89.6404 129.18C89.9871 129.18 90.2937 129.033 90.5604 128.74C90.8271 128.433 91.0404 128.033 91.2004 127.54L92.6004 121H95.4804L93.5004 130.28C94.1404 130.067 94.6537 129.747 95.0404 129.32C95.4271 128.893 95.7537 128.26 96.0204 127.42H96.8604C96.5004 128.607 96.0137 129.48 95.4004 130.04C94.7871 130.587 94.0937 130.96 93.3204 131.16L93.0204 132.6C92.7537 133.893 92.2937 134.78 91.6404 135.26C90.9871 135.753 90.2471 136 89.4204 136ZM88.9604 134.44C89.1871 134.44 89.4071 134.287 89.6204 133.98C89.8337 133.673 90.0004 133.233 90.1204 132.66L90.2404 132.08C88.9337 132.56 88.2804 133.127 88.2804 133.78C88.2804 133.953 88.3404 134.107 88.4604 134.24C88.5804 134.373 88.7471 134.44 88.9604 134.44ZM100.107 131.12C99.467 131.12 98.927 131 98.487 130.76C98.047 130.507 97.7203 130.187 97.507 129.8C97.2936 129.4 97.187 128.987 97.187 128.56C97.187 128.12 97.2936 127.74 97.507 127.42C97.707 127.087 97.9536 126.847 98.247 126.7C98.767 125.767 99.2203 124.827 99.607 123.88C99.9936 122.92 100.36 121.887 100.707 120.78L103.667 120.38C103.734 122.087 103.847 123.933 104.007 125.92C104.074 126.72 104.107 127.3 104.107 127.66C104.107 128.473 103.9 129.14 103.487 129.66C103.074 130.18 102.56 130.553 101.947 130.78C101.347 131.007 100.734 131.12 100.107 131.12ZM99.467 129.54C99.9603 129.54 100.374 129.393 100.707 129.1C101.04 128.807 101.207 128.333 101.207 127.68C101.207 127.28 101.167 126.72 101.087 126C100.954 124.48 100.867 123.46 100.827 122.94C100.507 123.993 99.967 125.253 99.207 126.72C99.5136 126.88 99.667 127.113 99.667 127.42C99.667 127.673 99.5803 127.9 99.407 128.1C99.247 128.3 99.0403 128.4 98.787 128.4C98.507 128.4 98.327 128.313 98.247 128.14C98.247 128.62 98.3403 128.973 98.527 129.2C98.727 129.427 99.0403 129.54 99.467 129.54ZM114.071 131.12C113.431 131.12 112.911 130.92 112.511 130.52C112.124 130.12 111.931 129.52 111.931 128.72C111.931 128.387 111.984 127.953 112.091 127.42L114.231 117.4L117.191 117L114.891 127.8C114.838 128 114.811 128.213 114.811 128.44C114.811 128.707 114.871 128.9 114.991 129.02C115.124 129.127 115.338 129.18 115.631 129.18C116.018 129.18 116.378 129.02 116.711 128.7C117.044 128.367 117.284 127.94 117.431 127.42H118.271C117.778 128.86 117.144 129.84 116.371 130.36C115.598 130.867 114.831 131.12 114.071 131.12ZM122.143 131.08C121.156 131.08 120.376 130.827 119.803 130.32C119.23 129.813 118.943 129.013 118.943 127.92C118.943 127.013 119.13 126.007 119.503 124.9C119.876 123.793 120.476 122.84 121.303 122.04C122.13 121.227 123.17 120.82 124.423 120.82C126.13 120.82 126.983 121.887 126.983 124.02V124.04C127.023 124.053 127.096 124.06 127.203 124.06C127.643 124.06 128.15 123.947 128.723 123.72C129.296 123.48 129.816 123.193 130.283 122.86L130.463 123.4C130.076 123.813 129.57 124.167 128.943 124.46C128.33 124.74 127.656 124.94 126.923 125.06C126.816 126.273 126.543 127.333 126.103 128.24C125.663 129.147 125.096 129.847 124.403 130.34C123.71 130.833 122.956 131.08 122.143 131.08ZM122.943 129.28C123.263 129.28 123.583 129.1 123.903 128.74C124.223 128.367 124.503 127.867 124.743 127.24C124.983 126.6 125.156 125.893 125.263 125.12C124.903 125.04 124.723 124.76 124.723 124.28C124.723 123.733 124.93 123.373 125.343 123.2C125.316 122.76 125.25 122.46 125.143 122.3C125.036 122.127 124.85 122.04 124.583 122.04C124.143 122.04 123.716 122.36 123.303 123C122.89 123.64 122.556 124.407 122.303 125.3C122.05 126.193 121.923 126.98 121.923 127.66C121.923 128.3 121.996 128.733 122.143 128.96C122.29 129.173 122.556 129.28 122.943 129.28ZM132.732 131.08C131.745 131.08 130.965 130.827 130.392 130.32C129.819 129.813 129.532 129.013 129.532 127.92C129.532 127.013 129.719 126.007 130.092 124.9C130.465 123.793 131.065 122.84 131.892 122.04C132.719 121.227 133.759 120.82 135.012 120.82C136.719 120.82 137.572 121.887 137.572 124.02V124.04C137.612 124.053 137.685 124.06 137.792 124.06C138.232 124.06 138.739 123.947 139.312 123.72C139.885 123.48 140.405 123.193 140.872 122.86L141.052 123.4C140.665 123.813 140.159 124.167 139.532 124.46C138.919 124.74 138.245 124.94 137.512 125.06C137.405 126.273 137.132 127.333 136.692 128.24C136.252 129.147 135.685 129.847 134.992 130.34C134.299 130.833 133.545 131.08 132.732 131.08ZM133.532 129.28C133.852 129.28 134.172 129.1 134.492 128.74C134.812 128.367 135.092 127.867 135.332 127.24C135.572 126.6 135.745 125.893 135.852 125.12C135.492 125.04 135.312 124.76 135.312 124.28C135.312 123.733 135.519 123.373 135.932 123.2C135.905 122.76 135.839 122.46 135.732 122.3C135.625 122.127 135.439 122.04 135.172 122.04C134.732 122.04 134.305 122.36 133.892 123C133.479 123.64 133.145 124.407 132.892 125.3C132.639 126.193 132.512 126.98 132.512 127.66C132.512 128.3 132.585 128.733 132.732 128.96C132.879 129.173 133.145 129.28 133.532 129.28ZM147.921 131.12C147.095 131.12 146.468 130.927 146.041 130.54C145.615 130.14 145.401 129.573 145.401 128.84C145.401 128.52 145.441 128.173 145.521 127.8L145.681 127.02C145.735 126.793 145.761 126.547 145.761 126.28C145.761 125.64 145.521 125.32 145.041 125.32C144.828 125.32 144.601 125.38 144.361 125.5C144.135 125.62 143.868 125.807 143.561 126.06L142.521 131H139.641L142.541 117.4L145.501 117L144.001 124.04L147.861 121H149.841L145.841 123.78C146.041 123.727 146.261 123.7 146.501 123.7C147.221 123.7 147.768 123.92 148.141 124.36C148.515 124.8 148.701 125.36 148.701 126.04C148.701 126.32 148.675 126.573 148.621 126.8L148.401 127.8C148.335 128.04 148.301 128.253 148.301 128.44C148.301 128.933 148.561 129.18 149.081 129.18C149.481 129.18 149.801 129.04 150.041 128.76C150.281 128.467 150.521 128.02 150.761 127.42H151.601C150.775 129.887 149.548 131.12 147.921 131.12ZM155.893 119.92C155.453 119.92 155.079 119.767 154.773 119.46C154.466 119.153 154.313 118.78 154.313 118.34C154.313 117.9 154.466 117.527 154.773 117.22C155.079 116.9 155.453 116.74 155.893 116.74C156.333 116.74 156.706 116.9 157.013 117.22C157.333 117.527 157.493 117.9 157.493 118.34C157.493 118.78 157.333 119.153 157.013 119.46C156.706 119.767 156.333 119.92 155.893 119.92ZM154.533 131.12C153.893 131.12 153.373 130.92 152.973 130.52C152.586 130.12 152.393 129.52 152.393 128.72C152.393 128.387 152.446 127.953 152.553 127.42L153.913 121H156.793L155.353 127.8C155.299 128 155.273 128.213 155.273 128.44C155.273 128.707 155.333 128.9 155.453 129.02C155.586 129.127 155.799 129.18 156.093 129.18C156.479 129.18 156.839 129.02 157.173 128.7C157.506 128.367 157.746 127.94 157.893 127.42H158.733C158.239 128.86 157.606 129.84 156.833 130.36C156.059 130.867 155.293 131.12 154.533 131.12ZM166.905 131.12C166.091 131.12 165.491 130.907 165.105 130.48C164.731 130.04 164.545 129.5 164.545 128.86C164.545 128.58 164.578 128.267 164.645 127.92C164.711 127.56 164.778 127.213 164.845 126.88C164.925 126.547 164.978 126.333 165.005 126.24C165.111 125.773 165.211 125.313 165.305 124.86C165.398 124.407 165.445 124.04 165.445 123.76C165.445 123.08 165.205 122.74 164.725 122.74C164.378 122.74 164.071 122.913 163.805 123.26C163.538 123.593 163.325 124.033 163.165 124.58L161.805 131H158.925L161.045 121H163.925L163.705 122.04C164.371 121.293 165.151 120.92 166.045 120.92C166.725 120.92 167.265 121.107 167.665 121.48C168.065 121.853 168.265 122.42 168.265 123.18C168.265 123.567 168.218 124 168.125 124.48C168.031 124.947 167.898 125.52 167.725 126.2C167.618 126.613 167.518 127.02 167.425 127.42C167.345 127.807 167.305 128.113 167.305 128.34C167.305 128.607 167.365 128.813 167.485 128.96C167.605 129.107 167.811 129.18 168.105 129.18C168.505 129.18 168.825 129.04 169.065 128.76C169.305 128.467 169.545 128.02 169.785 127.42H170.625C170.131 128.887 169.558 129.873 168.905 130.38C168.265 130.873 167.598 131.12 166.905 131.12ZM175.102 136C174.476 136 173.922 135.793 173.442 135.38C172.976 134.98 172.742 134.467 172.742 133.84C172.742 133.253 172.889 132.773 173.182 132.4C173.476 132.027 173.856 131.733 174.322 131.52C174.789 131.307 175.416 131.08 176.202 130.84L176.382 130C175.689 130.747 174.889 131.12 173.982 131.12C173.222 131.12 172.589 130.86 172.082 130.34C171.576 129.82 171.322 129.007 171.322 127.9C171.322 126.913 171.516 125.88 171.902 124.8C172.302 123.707 172.889 122.787 173.662 122.04C174.449 121.28 175.382 120.9 176.462 120.9C177.009 120.9 177.416 120.993 177.682 121.18C177.949 121.367 178.082 121.613 178.082 121.92V121.96L178.282 121H181.182L178.742 132.6C178.476 133.88 178.002 134.767 177.322 135.26C176.656 135.753 175.916 136 175.102 136ZM175.282 129.18C175.589 129.18 175.896 129.053 176.202 128.8C176.522 128.533 176.749 128.16 176.882 127.68L177.902 122.84C177.796 122.373 177.522 122.14 177.082 122.14C176.549 122.14 176.069 122.453 175.642 123.08C175.216 123.693 174.882 124.44 174.642 125.32C174.402 126.187 174.282 126.953 174.282 127.62C174.282 128.287 174.376 128.713 174.562 128.9C174.762 129.087 175.002 129.18 175.282 129.18ZM174.642 134.22C174.882 134.22 175.109 134.093 175.322 133.84C175.536 133.6 175.702 133.207 175.822 132.66L176.062 131.48C175.356 131.72 174.809 132 174.422 132.32C174.036 132.64 173.842 133.053 173.842 133.56C173.842 133.72 173.922 133.867 174.082 134C174.242 134.147 174.429 134.22 174.642 134.22ZM187.328 136C186.701 136 186.154 135.793 185.688 135.38C185.208 134.98 184.968 134.467 184.968 133.84C184.968 133.267 185.114 132.793 185.408 132.42C185.701 132.047 186.081 131.747 186.548 131.52C187.014 131.307 187.634 131.08 188.408 130.84L190.828 119.42C191.094 118.14 191.561 117.253 192.228 116.76C192.908 116.267 193.654 116.02 194.468 116.02C195.094 116.02 195.641 116.227 196.108 116.64C196.588 117.04 196.828 117.553 196.828 118.18C196.828 118.487 196.808 118.76 196.768 119H195.828C195.854 118.707 195.868 118.527 195.868 118.46C195.868 118.247 195.794 118.08 195.648 117.96C195.501 117.84 195.321 117.78 195.108 117.78C194.828 117.78 194.554 117.907 194.288 118.16C194.021 118.4 193.828 118.82 193.708 119.42L193.368 121H194.828L194.688 121.8H193.208L190.908 132.6C190.641 133.893 190.181 134.78 189.528 135.26C188.874 135.753 188.141 136 187.328 136ZM186.868 134.22C187.401 134.22 187.781 133.7 188.008 132.66L188.268 131.5C187.561 131.74 187.021 132.013 186.648 132.32C186.261 132.64 186.068 133.053 186.068 133.56C186.068 133.72 186.148 133.867 186.308 134C186.468 134.147 186.654 134.22 186.868 134.22ZM199.18 131.08C198.193 131.08 197.413 130.827 196.84 130.32C196.266 129.813 195.98 129.013 195.98 127.92C195.98 127.013 196.166 126.007 196.54 124.9C196.913 123.793 197.513 122.84 198.34 122.04C199.166 121.227 200.206 120.82 201.46 120.82C203.166 120.82 204.02 121.887 204.02 124.02V124.04C204.06 124.053 204.133 124.06 204.24 124.06C204.68 124.06 205.186 123.947 205.76 123.72C206.333 123.48 206.853 123.193 207.32 122.86L207.5 123.4C207.113 123.813 206.606 124.167 205.98 124.46C205.366 124.74 204.693 124.94 203.96 125.06C203.853 126.273 203.58 127.333 203.14 128.24C202.7 129.147 202.133 129.847 201.44 130.34C200.746 130.833 199.993 131.08 199.18 131.08ZM199.98 129.28C200.3 129.28 200.62 129.1 200.94 128.74C201.26 128.367 201.54 127.867 201.78 127.24C202.02 126.6 202.193 125.893 202.3 125.12C201.94 125.04 201.76 124.76 201.76 124.28C201.76 123.733 201.966 123.373 202.38 123.2C202.353 122.76 202.286 122.46 202.18 122.3C202.073 122.127 201.886 122.04 201.62 122.04C201.18 122.04 200.753 122.36 200.34 123C199.926 123.64 199.593 124.407 199.34 125.3C199.086 126.193 198.96 126.98 198.96 127.66C198.96 128.3 199.033 128.733 199.18 128.96C199.326 129.173 199.593 129.28 199.98 129.28ZM208.209 121H211.089L210.829 122.24C211.282 121.84 211.689 121.533 212.049 121.32C212.422 121.107 212.822 121 213.249 121C213.675 121 214.009 121.147 214.249 121.44C214.502 121.733 214.629 122.087 214.629 122.5C214.629 122.887 214.502 123.227 214.249 123.52C213.995 123.813 213.642 123.96 213.189 123.96C212.895 123.96 212.695 123.893 212.589 123.76C212.495 123.613 212.422 123.407 212.369 123.14C212.329 122.967 212.289 122.84 212.249 122.76C212.209 122.68 212.135 122.64 212.029 122.64C211.749 122.64 211.509 122.7 211.309 122.82C211.122 122.927 210.875 123.12 210.569 123.4L208.969 131H206.089L208.209 121ZM224.284 131.12C223.644 131.12 223.124 130.92 222.724 130.52C222.338 130.12 222.144 129.52 222.144 128.72C222.144 128.387 222.198 127.953 222.304 127.42L223.664 121H226.544L225.104 127.8C225.064 127.96 225.044 128.127 225.044 128.3C225.044 128.887 225.244 129.18 225.644 129.18C226.018 129.18 226.338 129.027 226.604 128.72C226.871 128.4 227.084 127.967 227.244 127.42L228.604 121H231.484L230.044 127.8C229.978 128.133 229.944 128.373 229.944 128.52C229.944 128.96 230.171 129.18 230.624 129.18C231.238 129.18 231.804 128.793 232.324 128.02C232.858 127.247 233.284 126.327 233.604 125.26C233.924 124.193 234.084 123.273 234.084 122.5C234.058 122.567 233.971 122.62 233.824 122.66C233.678 122.687 233.551 122.7 233.444 122.7C233.218 122.7 233.038 122.593 232.904 122.38C232.784 122.167 232.724 121.933 232.724 121.68C232.724 121.36 232.824 121.1 233.024 120.9C233.238 120.7 233.551 120.6 233.964 120.6C234.404 120.6 234.724 120.767 234.924 121.1C235.124 121.42 235.224 121.833 235.224 122.34C235.224 123.54 235.018 124.827 234.604 126.2C234.191 127.56 233.558 128.72 232.704 129.68C231.851 130.64 230.791 131.12 229.524 131.12C228.871 131.12 228.338 130.98 227.924 130.7C227.511 130.42 227.244 130 227.124 129.44C226.378 130.56 225.431 131.12 224.284 131.12ZM239.727 131.12C238.967 131.12 238.334 130.86 237.827 130.34C237.32 129.82 237.067 129.007 237.067 127.9C237.067 126.913 237.26 125.88 237.647 124.8C238.047 123.707 238.634 122.787 239.407 122.04C240.194 121.28 241.127 120.9 242.207 120.9C242.754 120.9 243.16 120.993 243.427 121.18C243.694 121.367 243.827 121.613 243.827 121.92V122.06L244.047 121H246.927L245.487 127.8C245.434 128 245.407 128.213 245.407 128.44C245.407 129.013 245.68 129.3 246.227 129.3C246.6 129.3 246.92 129.127 247.187 128.78C247.467 128.433 247.687 127.98 247.847 127.42H248.687C248.194 128.86 247.58 129.84 246.847 130.36C246.127 130.867 245.4 131.12 244.667 131.12C244.107 131.12 243.654 130.967 243.307 130.66C242.974 130.34 242.774 129.88 242.707 129.28C242.32 129.827 241.887 130.273 241.407 130.62C240.94 130.953 240.38 131.12 239.727 131.12ZM241.027 129.18C241.36 129.18 241.687 129.027 242.007 128.72C242.34 128.4 242.567 127.967 242.687 127.42L243.647 122.9C243.647 122.727 243.58 122.56 243.447 122.4C243.314 122.227 243.107 122.14 242.827 122.14C242.294 122.14 241.814 122.453 241.387 123.08C240.96 123.693 240.627 124.44 240.387 125.32C240.147 126.187 240.027 126.953 240.027 127.62C240.027 128.287 240.12 128.713 240.307 128.9C240.507 129.087 240.747 129.18 241.027 129.18ZM252.774 136C252.134 136 251.601 135.833 251.174 135.5C250.748 135.167 250.534 134.687 250.534 134.06C250.534 133.3 250.841 132.687 251.454 132.22C252.068 131.767 252.848 131.387 253.794 131.08L254.034 130C253.648 130.427 253.254 130.72 252.854 130.88C252.454 131.04 252.048 131.12 251.634 131.12C250.994 131.12 250.474 130.92 250.074 130.52C249.688 130.12 249.494 129.52 249.494 128.72C249.494 128.387 249.548 127.953 249.654 127.42L251.014 121H253.894L252.454 127.8C252.414 127.96 252.394 128.127 252.394 128.3C252.394 128.887 252.594 129.18 252.994 129.18C253.341 129.18 253.648 129.033 253.914 128.74C254.181 128.433 254.394 128.033 254.554 127.54L255.954 121H258.834L256.854 130.28C257.494 130.067 258.008 129.747 258.394 129.32C258.781 128.893 259.108 128.26 259.374 127.42H260.214C259.854 128.607 259.368 129.48 258.754 130.04C258.141 130.587 257.448 130.96 256.674 131.16L256.374 132.6C256.108 133.893 255.648 134.78 254.994 135.26C254.341 135.753 253.601 136 252.774 136ZM252.314 134.44C252.541 134.44 252.761 134.287 252.974 133.98C253.188 133.673 253.354 133.233 253.474 132.66L253.594 132.08C252.288 132.56 251.634 133.127 251.634 133.78C251.634 133.953 251.694 134.107 251.814 134.24C251.934 134.373 252.101 134.44 252.314 134.44ZM263.461 131.12C262.821 131.12 262.281 131 261.841 130.76C261.401 130.507 261.074 130.187 260.861 129.8C260.648 129.4 260.541 128.987 260.541 128.56C260.541 128.12 260.648 127.74 260.861 127.42C261.061 127.087 261.308 126.847 261.601 126.7C262.121 125.767 262.574 124.827 262.961 123.88C263.348 122.92 263.714 121.887 264.061 120.78L267.021 120.38C267.088 122.087 267.201 123.933 267.361 125.92C267.428 126.72 267.461 127.3 267.461 127.66C267.461 128.473 267.254 129.14 266.841 129.66C266.428 130.18 265.914 130.553 265.301 130.78C264.701 131.007 264.088 131.12 263.461 131.12ZM262.821 129.54C263.314 129.54 263.728 129.393 264.061 129.1C264.394 128.807 264.561 128.333 264.561 127.68C264.561 127.28 264.521 126.72 264.441 126C264.308 124.48 264.221 123.46 264.181 122.94C263.861 123.993 263.321 125.253 262.561 126.72C262.868 126.88 263.021 127.113 263.021 127.42C263.021 127.673 262.934 127.9 262.761 128.1C262.601 128.3 262.394 128.4 262.141 128.4C261.861 128.4 261.681 128.313 261.601 128.14C261.601 128.62 261.694 128.973 261.881 129.2C262.081 129.427 262.394 129.54 262.821 129.54ZM63.7152 158.12C63.0752 158.12 62.5552 157.92 62.1552 157.52C61.7685 157.12 61.5752 156.52 61.5752 155.72C61.5752 155.387 61.6285 154.953 61.7352 154.42L62.9352 148.8H62.2752L62.4352 148H63.0952L63.6952 145.24L66.6552 144.84L65.9752 148H67.1752L67.0152 148.8H65.8152L64.5352 154.8C64.4818 155 64.4552 155.213 64.4552 155.44C64.4552 155.707 64.5152 155.9 64.6352 156.02C64.7685 156.127 64.9818 156.18 65.2752 156.18C65.6618 156.18 66.0218 156.02 66.3552 155.7C66.6885 155.367 66.9285 154.94 67.0752 154.42H67.9152C67.4218 155.86 66.7885 156.84 66.0152 157.36C65.2418 157.867 64.4752 158.12 63.7152 158.12ZM71.7872 158.08C70.8005 158.08 70.0205 157.827 69.4472 157.32C68.8739 156.813 68.5872 156.013 68.5872 154.92C68.5872 154 68.7672 152.993 69.1272 151.9C69.4872 150.793 70.0739 149.84 70.8872 149.04C71.7005 148.227 72.7405 147.82 74.0072 147.82C75.5805 147.82 76.4272 148.72 76.5472 150.52C76.8405 150.453 77.1005 150.293 77.3272 150.04C77.5539 149.773 77.7672 149.473 77.9672 149.14H78.6072C78.2472 149.86 77.9272 150.427 77.6472 150.84C77.3672 151.24 77.0005 151.567 76.5472 151.82C76.4672 153.073 76.2072 154.173 75.7672 155.12C75.3405 156.067 74.7805 156.8 74.0872 157.32C73.3939 157.827 72.6272 158.08 71.7872 158.08ZM72.5872 156.28C73.0805 156.28 73.5405 155.88 73.9672 155.08C74.3939 154.28 74.6872 153.293 74.8472 152.12C74.5272 152 74.3672 151.7 74.3672 151.22C74.3672 150.7 74.5539 150.353 74.9272 150.18C74.9005 149.753 74.8272 149.46 74.7072 149.3C74.6005 149.127 74.4205 149.04 74.1672 149.04C73.7272 149.04 73.3072 149.36 72.9072 150C72.5072 150.627 72.1805 151.393 71.9272 152.3C71.6872 153.193 71.5672 153.98 71.5672 154.66C71.5672 155.3 71.6405 155.733 71.7872 155.96C71.9339 156.173 72.2005 156.28 72.5872 156.28ZM89.8892 146.92C89.4492 146.92 89.0759 146.767 88.7692 146.46C88.4626 146.153 88.3092 145.78 88.3092 145.34C88.3092 144.9 88.4626 144.527 88.7692 144.22C89.0759 143.9 89.4492 143.74 89.8892 143.74C90.3292 143.74 90.7026 143.9 91.0092 144.22C91.3292 144.527 91.4892 144.9 91.4892 145.34C91.4892 145.78 91.3292 146.153 91.0092 146.46C90.7026 146.767 90.3292 146.92 89.8892 146.92ZM88.5292 158.12C87.8892 158.12 87.3692 157.92 86.9692 157.52C86.5826 157.12 86.3892 156.52 86.3892 155.72C86.3892 155.387 86.4426 154.953 86.5492 154.42L87.9092 148H90.7892L89.3492 154.8C89.2959 155 89.2692 155.213 89.2692 155.44C89.2692 155.707 89.3292 155.9 89.4492 156.02C89.5826 156.127 89.7959 156.18 90.0892 156.18C90.4759 156.18 90.8359 156.02 91.1692 155.7C91.5026 155.367 91.7426 154.94 91.8892 154.42H92.7292C92.2359 155.86 91.6026 156.84 90.8292 157.36C90.0559 157.867 89.2892 158.12 88.5292 158.12ZM105.841 158.12C105.028 158.12 104.428 157.907 104.041 157.48C103.668 157.04 103.481 156.5 103.481 155.86C103.481 155.58 103.515 155.267 103.581 154.92C103.648 154.56 103.715 154.213 103.781 153.88C103.861 153.547 103.915 153.333 103.941 153.24C104.048 152.773 104.148 152.313 104.241 151.86C104.335 151.407 104.381 151.04 104.381 150.76C104.381 150.08 104.141 149.74 103.661 149.74C103.315 149.74 103.008 149.913 102.741 150.26C102.475 150.593 102.261 151.033 102.101 151.58L100.741 158H97.8612L99.3212 151.1C99.3612 150.94 99.3812 150.773 99.3812 150.6C99.3812 150.013 99.1812 149.72 98.7812 149.72C98.4079 149.72 98.0812 149.893 97.8012 150.24C97.5346 150.573 97.3212 151.02 97.1612 151.58L95.8012 158H92.9212L95.0412 148H97.9212L97.7012 149.04C98.3812 148.28 99.1946 147.9 100.141 147.9C101.315 147.9 102.001 148.473 102.201 149.62C102.935 148.487 103.861 147.92 104.981 147.92C105.661 147.92 106.201 148.107 106.601 148.48C107.001 148.853 107.201 149.42 107.201 150.18C107.201 150.567 107.155 151 107.061 151.48C106.968 151.947 106.835 152.52 106.661 153.2C106.555 153.613 106.455 154.02 106.361 154.42C106.281 154.807 106.241 155.113 106.241 155.34C106.241 155.607 106.301 155.813 106.421 155.96C106.541 156.107 106.748 156.18 107.041 156.18C107.441 156.18 107.761 156.04 108.001 155.76C108.241 155.467 108.481 155.02 108.721 154.42H109.561C109.068 155.887 108.495 156.873 107.841 157.38C107.201 157.873 106.535 158.12 105.841 158.12ZM112.04 147.26H114.92L114.6 148.76C115.267 148.187 116.047 147.9 116.94 147.9C117.687 147.9 118.28 148.147 118.72 148.64C119.16 149.133 119.38 149.94 119.38 151.06C119.38 152.113 119.227 153.18 118.92 154.26C118.614 155.327 118.094 156.24 117.36 157C116.627 157.747 115.66 158.12 114.46 158.12C113.607 158.12 113.04 157.88 112.76 157.4L111.72 162.28L108.7 163L112.04 147.26ZM113.84 156.38C114.48 156.38 115.007 156.08 115.42 155.48C115.847 154.88 116.154 154.167 116.34 153.34C116.54 152.5 116.64 151.72 116.64 151C116.64 149.893 116.307 149.34 115.64 149.34C115.4 149.34 115.154 149.427 114.9 149.6C114.66 149.773 114.447 150.013 114.26 150.32L113.08 155.92C113.187 156.227 113.44 156.38 113.84 156.38ZM123.036 148H125.916L125.656 149.24C126.109 148.84 126.516 148.533 126.876 148.32C127.249 148.107 127.649 148 128.076 148C128.502 148 128.836 148.147 129.076 148.44C129.329 148.733 129.456 149.087 129.456 149.5C129.456 149.887 129.329 150.227 129.076 150.52C128.822 150.813 128.469 150.96 128.016 150.96C127.722 150.96 127.522 150.893 127.416 150.76C127.322 150.613 127.249 150.407 127.196 150.14C127.156 149.967 127.116 149.84 127.076 149.76C127.036 149.68 126.962 149.64 126.856 149.64C126.576 149.64 126.336 149.7 126.136 149.82C125.949 149.927 125.702 150.12 125.396 150.4L123.796 158H120.916L123.036 148ZM133.915 158.08C132.929 158.08 132.149 157.827 131.575 157.32C131.002 156.813 130.715 156.013 130.715 154.92C130.715 154.013 130.902 153.007 131.275 151.9C131.649 150.793 132.249 149.84 133.075 149.04C133.902 148.227 134.942 147.82 136.195 147.82C137.902 147.82 138.755 148.887 138.755 151.02V151.04C138.795 151.053 138.869 151.06 138.975 151.06C139.415 151.06 139.922 150.947 140.495 150.72C141.069 150.48 141.589 150.193 142.055 149.86L142.235 150.4C141.849 150.813 141.342 151.167 140.715 151.46C140.102 151.74 139.429 151.94 138.695 152.06C138.589 153.273 138.315 154.333 137.875 155.24C137.435 156.147 136.869 156.847 136.175 157.34C135.482 157.833 134.729 158.08 133.915 158.08ZM134.715 156.28C135.035 156.28 135.355 156.1 135.675 155.74C135.995 155.367 136.275 154.867 136.515 154.24C136.755 153.6 136.929 152.893 137.035 152.12C136.675 152.04 136.495 151.76 136.495 151.28C136.495 150.733 136.702 150.373 137.115 150.2C137.089 149.76 137.022 149.46 136.915 149.3C136.809 149.127 136.622 149.04 136.355 149.04C135.915 149.04 135.489 149.36 135.075 150C134.662 150.64 134.329 151.407 134.075 152.3C133.822 153.193 133.695 153.98 133.695 154.66C133.695 155.3 133.769 155.733 133.915 155.96C134.062 156.173 134.329 156.28 134.715 156.28ZM143.864 158.12C143.091 158.12 142.484 157.927 142.044 157.54C141.618 157.14 141.404 156.547 141.404 155.76C141.404 155.44 141.438 155.12 141.504 154.8L142.944 148H145.824L144.384 154.8C144.318 155.133 144.284 155.373 144.284 155.52C144.284 155.96 144.511 156.18 144.964 156.18C145.578 156.18 146.144 155.793 146.664 155.02C147.198 154.247 147.624 153.327 147.944 152.26C148.264 151.193 148.424 150.273 148.424 149.5C148.398 149.567 148.311 149.62 148.164 149.66C148.018 149.687 147.891 149.7 147.784 149.7C147.558 149.7 147.378 149.593 147.244 149.38C147.124 149.167 147.064 148.933 147.064 148.68C147.064 148.36 147.164 148.1 147.364 147.9C147.578 147.7 147.891 147.6 148.304 147.6C148.744 147.6 149.064 147.767 149.264 148.1C149.464 148.42 149.564 148.833 149.564 149.34C149.564 150.54 149.358 151.827 148.944 153.2C148.531 154.56 147.898 155.72 147.044 156.68C146.191 157.64 145.131 158.12 143.864 158.12ZM154.486 158.12C153.512 158.12 152.752 157.867 152.206 157.36C151.659 156.84 151.386 156.033 151.386 154.94C151.386 154.02 151.566 153.007 151.926 151.9C152.286 150.793 152.872 149.84 153.686 149.04C154.499 148.227 155.532 147.82 156.786 147.82C158.252 147.82 158.986 148.46 158.986 149.74C158.986 150.487 158.772 151.173 158.346 151.8C157.919 152.427 157.352 152.933 156.646 153.32C155.939 153.693 155.186 153.907 154.386 153.96C154.359 154.253 154.346 154.453 154.346 154.56C154.346 155.667 154.759 156.22 155.586 156.22C155.959 156.22 156.359 156.12 156.786 155.92C157.212 155.72 157.599 155.467 157.946 155.16C157.586 157.133 156.432 158.12 154.486 158.12ZM154.526 153C155.032 152.987 155.506 152.82 155.946 152.5C156.399 152.18 156.759 151.773 157.026 151.28C157.306 150.773 157.446 150.247 157.446 149.7C157.446 149.153 157.279 148.88 156.946 148.88C156.479 148.88 156.012 149.307 155.546 150.16C155.092 151 154.752 151.947 154.526 153ZM179.086 158.12C178.272 158.12 177.672 157.907 177.286 157.48C176.912 157.04 176.726 156.5 176.726 155.86C176.726 155.58 176.759 155.267 176.826 154.92C176.892 154.56 176.959 154.213 177.026 153.88C177.106 153.547 177.159 153.333 177.186 153.24C177.292 152.773 177.392 152.313 177.486 151.86C177.579 151.407 177.626 151.04 177.626 150.76C177.626 150.08 177.386 149.74 176.906 149.74C176.559 149.74 176.252 149.913 175.986 150.26C175.719 150.593 175.506 151.033 175.346 151.58L173.986 158H171.106L172.566 151.1C172.606 150.94 172.626 150.773 172.626 150.6C172.626 150.013 172.426 149.72 172.026 149.72C171.652 149.72 171.326 149.893 171.046 150.24C170.779 150.573 170.566 151.02 170.406 151.58L169.046 158H166.166L168.286 148H171.166L170.946 149.04C171.626 148.28 172.439 147.9 173.386 147.9C174.559 147.9 175.246 148.473 175.446 149.62C176.179 148.487 177.106 147.92 178.226 147.92C178.906 147.92 179.446 148.107 179.846 148.48C180.246 148.853 180.446 149.42 180.446 150.18C180.446 150.567 180.399 151 180.306 151.48C180.212 151.947 180.079 152.52 179.906 153.2C179.799 153.613 179.699 154.02 179.606 154.42C179.526 154.807 179.486 155.113 179.486 155.34C179.486 155.607 179.546 155.813 179.666 155.96C179.786 156.107 179.992 156.18 180.286 156.18C180.686 156.18 181.006 156.04 181.246 155.76C181.486 155.467 181.726 155.02 181.966 154.42H182.806C182.312 155.887 181.739 156.873 181.086 157.38C180.446 157.873 179.779 158.12 179.086 158.12ZM186.885 163C186.258 163 185.705 162.793 185.225 162.38C184.758 161.98 184.525 161.467 184.525 160.84C184.525 160.253 184.671 159.773 184.965 159.4C185.258 159.027 185.638 158.733 186.105 158.52C186.571 158.307 187.198 158.08 187.985 157.84L188.185 156.96C187.505 157.733 186.691 158.12 185.745 158.12C185.105 158.12 184.585 157.92 184.185 157.52C183.798 157.12 183.605 156.52 183.605 155.72C183.605 155.387 183.658 154.953 183.765 154.42L185.125 148H188.005L186.565 154.8C186.525 154.96 186.505 155.127 186.505 155.3C186.505 155.887 186.705 156.18 187.105 156.18C187.478 156.18 187.798 156.027 188.065 155.72C188.331 155.4 188.545 154.967 188.705 154.42L190.065 148H192.965L190.525 159.6C190.258 160.88 189.785 161.767 189.105 162.26C188.438 162.753 187.698 163 186.885 163ZM186.425 161.22C186.665 161.22 186.891 161.093 187.105 160.84C187.318 160.6 187.485 160.207 187.605 159.66L187.845 158.48C187.138 158.72 186.591 159 186.205 159.32C185.818 159.64 185.625 160.053 185.625 160.56C185.625 160.72 185.705 160.867 185.865 161C186.025 161.147 186.211 161.22 186.425 161.22ZM202.88 158.12C202.24 158.12 201.72 157.92 201.32 157.52C200.933 157.12 200.74 156.52 200.74 155.72C200.74 155.387 200.793 154.953 200.9 154.42L202.26 148H205.14L203.7 154.8C203.66 154.96 203.64 155.127 203.64 155.3C203.64 155.887 203.84 156.18 204.24 156.18C204.613 156.18 204.933 156.027 205.2 155.72C205.467 155.4 205.68 154.967 205.84 154.42L207.2 148H210.08L208.64 154.8C208.573 155.133 208.54 155.373 208.54 155.52C208.54 155.96 208.767 156.18 209.22 156.18C209.833 156.18 210.4 155.793 210.92 155.02C211.453 154.247 211.88 153.327 212.2 152.26C212.52 151.193 212.68 150.273 212.68 149.5C212.653 149.567 212.567 149.62 212.42 149.66C212.273 149.687 212.147 149.7 212.04 149.7C211.813 149.7 211.633 149.593 211.5 149.38C211.38 149.167 211.32 148.933 211.32 148.68C211.32 148.36 211.42 148.1 211.62 147.9C211.833 147.7 212.147 147.6 212.56 147.6C213 147.6 213.32 147.767 213.52 148.1C213.72 148.42 213.82 148.833 213.82 149.34C213.82 150.54 213.613 151.827 213.2 153.2C212.787 154.56 212.153 155.72 211.3 156.68C210.447 157.64 209.387 158.12 208.12 158.12C207.467 158.12 206.933 157.98 206.52 157.7C206.107 157.42 205.84 157 205.72 156.44C204.973 157.56 204.027 158.12 202.88 158.12ZM218.843 158.08C217.856 158.08 217.076 157.827 216.503 157.32C215.929 156.813 215.643 156.013 215.643 154.92C215.643 154.013 215.829 153.007 216.203 151.9C216.576 150.793 217.176 149.84 218.003 149.04C218.829 148.227 219.869 147.82 221.123 147.82C222.829 147.82 223.683 148.887 223.683 151.02V151.04C223.723 151.053 223.796 151.06 223.903 151.06C224.343 151.06 224.849 150.947 225.423 150.72C225.996 150.48 226.516 150.193 226.983 149.86L227.163 150.4C226.776 150.813 226.269 151.167 225.643 151.46C225.029 151.74 224.356 151.94 223.623 152.06C223.516 153.273 223.243 154.333 222.803 155.24C222.363 156.147 221.796 156.847 221.103 157.34C220.409 157.833 219.656 158.08 218.843 158.08ZM219.643 156.28C219.963 156.28 220.283 156.1 220.603 155.74C220.923 155.367 221.203 154.867 221.443 154.24C221.683 153.6 221.856 152.893 221.963 152.12C221.603 152.04 221.423 151.76 221.423 151.28C221.423 150.733 221.629 150.373 222.043 150.2C222.016 149.76 221.949 149.46 221.843 149.3C221.736 149.127 221.549 149.04 221.283 149.04C220.843 149.04 220.416 149.36 220.003 150C219.589 150.64 219.256 151.407 219.003 152.3C218.749 153.193 218.623 153.98 218.623 154.66C218.623 155.3 218.696 155.733 218.843 155.96C218.989 156.173 219.256 156.28 219.643 156.28ZM227.872 148H230.752L230.492 149.24C230.945 148.84 231.352 148.533 231.712 148.32C232.085 148.107 232.485 148 232.912 148C233.338 148 233.672 148.147 233.912 148.44C234.165 148.733 234.292 149.087 234.292 149.5C234.292 149.887 234.165 150.227 233.912 150.52C233.658 150.813 233.305 150.96 232.852 150.96C232.558 150.96 232.358 150.893 232.252 150.76C232.158 150.613 232.085 150.407 232.032 150.14C231.992 149.967 231.952 149.84 231.912 149.76C231.872 149.68 231.798 149.64 231.692 149.64C231.412 149.64 231.172 149.7 230.972 149.82C230.785 149.927 230.538 150.12 230.232 150.4L228.632 158H225.752L227.872 148ZM243.351 158.12C242.525 158.12 241.898 157.927 241.471 157.54C241.045 157.14 240.831 156.573 240.831 155.84C240.831 155.52 240.871 155.173 240.951 154.8L241.111 154.02C241.165 153.793 241.191 153.547 241.191 153.28C241.191 152.64 240.951 152.32 240.471 152.32C240.258 152.32 240.031 152.38 239.791 152.5C239.565 152.62 239.298 152.807 238.991 153.06L237.951 158H235.071L237.971 144.4L240.931 144L239.431 151.04L243.291 148H245.271L241.271 150.78C241.471 150.727 241.691 150.7 241.931 150.7C242.651 150.7 243.198 150.92 243.571 151.36C243.945 151.8 244.131 152.36 244.131 153.04C244.131 153.32 244.105 153.573 244.051 153.8L243.831 154.8C243.765 155.04 243.731 155.253 243.731 155.44C243.731 155.933 243.991 156.18 244.511 156.18C244.805 156.18 244.991 156.16 245.071 156.12C245.151 156.08 245.198 156.06 245.211 156.06C245.185 156.5 245.058 156.873 244.831 157.18C244.618 157.487 244.365 157.72 244.071 157.88C243.791 158.04 243.551 158.12 243.351 158.12Z" fill="white"/>
<defs>
<filter id="filter0_d" x="0" y="0" width="308" height="282" filterUnits="userSpaceOnUse" color-interpolation-filters="sRGB">
<feFlood flood-opacity="0" result="BackgroundImageFix"/>
<feColorMatrix in="SourceAlpha" type="matrix" values="0 0 0 0 0 0 0 0 0 0 0 0 0 0 0 0 0 0 127 0"/>
<feOffset dy="4"/>
<feGaussianBlur stdDeviation="2"/>
<feColorMatrix type="matrix" values="0 0 0 0 0.516667 0 0 0 0 0.516667 0 0 0 0 0.516667 0 0 0 0.25 0"/>
<feBlend mode="normal" in2="BackgroundImageFix" result="effect1_dropShadow"/>
<feBlend mode="normal" in="SourceGraphic" in2="effect1_dropShadow" result="shape"/>
</filter>
</defs>
</svg>
