<svg width="308" height="282" viewBox="0 0 308 282" fill="none" xmlns="http://www.w3.org/2000/svg">
<g filter="url(#filter0_d)">
<rect x="4" width="300" height="274" rx="5" fill="#EEF9FF"/>
</g>
<path d="M146.572 102H119.539L106 125.126L119.539 148.251H146.572L160.111 125.126L146.572 102ZM144.904 145.324H121.222L109.396 125.126L121.222 104.927H144.904L156.73 125.126L144.904 145.324Z" fill="#20388B"/>
<path d="M133.063 113.973C127.252 113.973 122.539 118.686 122.539 124.496C122.539 130.307 127.252 135.02 133.063 135.02C138.873 135.02 143.586 130.307 143.586 124.496C143.586 124.496 143.586 124.496 143.586 124.482C143.572 118.686 138.873 113.973 133.063 113.973ZM133.063 132.093C128.862 132.093 125.466 128.697 125.466 124.496C125.466 120.296 128.862 116.9 133.063 116.9C137.263 116.9 140.659 120.296 140.659 124.496C140.659 128.682 137.263 132.078 133.063 132.093Z" fill="#20388B"/>
<path d="M188.572 125H161.539L148 148.126L161.539 171.251H188.572L202.111 148.126L188.572 125ZM186.904 168.324H163.222L151.396 148.126L163.222 127.927H186.904L198.73 148.126L186.904 168.324Z" fill="#20388B"/>
<path d="M175.063 136.973C169.252 136.973 164.539 141.686 164.539 147.496C164.539 153.307 169.252 158.02 175.063 158.02C180.873 158.02 185.586 153.307 185.586 147.496C185.586 147.496 185.586 147.496 185.586 147.482C185.572 141.686 180.873 136.973 175.063 136.973ZM175.063 155.093C170.862 155.093 167.466 151.697 167.466 147.496C167.466 143.296 170.862 139.9 175.063 139.9C179.263 139.9 182.659 143.296 182.659 147.496C182.659 151.682 179.263 155.078 175.063 155.093Z" fill="#20388B"/>
<defs>
<filter id="filter0_d" x="0" y="0" width="308" height="282" filterUnits="userSpaceOnUse" color-interpolation-filters="sRGB">
<feFlood flood-opacity="0" result="BackgroundImageFix"/>
<feColorMatrix in="SourceAlpha" type="matrix" values="0 0 0 0 0 0 0 0 0 0 0 0 0 0 0 0 0 0 127 0"/>
<feOffset dy="4"/>
<feGaussianBlur stdDeviation="2"/>
<feColorMatrix type="matrix" values="0 0 0 0 0.883333 0 0 0 0 0.883333 0 0 0 0 0.883333 0 0 0 0.47 0"/>
<feBlend mode="normal" in2="BackgroundImageFix" result="effect1_dropShadow"/>
<feBlend mode="normal" in="SourceGraphic" in2="effect1_dropShadow" result="shape"/>
</filter>
</defs>
</svg>
