<svg width="407" height="72" viewBox="0 0 407 72" fill="none" xmlns="http://www.w3.org/2000/svg">
<circle cx="26.5" cy="35.5" r="25.5" fill="url(#paint0_linear_2156_2)" stroke="url(#paint1_linear_2156_2)" stroke-width="2"/>
<circle cx="95.5" cy="35.5" r="25.5" fill="url(#paint2_linear_2156_2)" stroke="url(#paint3_linear_2156_2)" stroke-width="2"/>
<circle cx="164.5" cy="35.5" r="25.5" fill="url(#paint4_linear_2156_2)" stroke="url(#paint5_linear_2156_2)" stroke-width="2"/>
<circle cx="233.5" cy="35.5" r="25.5" fill="url(#paint6_linear_2156_2)" stroke="url(#paint7_linear_2156_2)" stroke-width="2"/>
<circle cx="302.5" cy="35.5" r="25.5" fill="url(#paint8_linear_2156_2)" stroke="url(#paint9_linear_2156_2)" stroke-width="2"/>
<path d="M298.172 34.5938C298.245 34.5938 298.324 34.5977 298.41 34.6055C298.496 34.6133 298.57 34.6237 298.633 34.6367L298.547 35.4961C298.492 35.4805 298.424 35.4688 298.344 35.4609C298.266 35.4531 298.195 35.4492 298.133 35.4492C297.969 35.4492 297.812 35.4766 297.664 35.5312C297.516 35.5833 297.384 35.6641 297.27 35.7734C297.155 35.8802 297.065 36.0143 297 36.1758C296.935 36.3372 296.902 36.5247 296.902 36.7383V39H295.98V34.6758H296.699L296.824 35.4375H296.867C296.953 35.2839 297.06 35.1432 297.188 35.0156C297.315 34.888 297.461 34.7865 297.625 34.7109C297.792 34.6328 297.974 34.5938 298.172 34.5938ZM301.234 33.2031C301.529 33.2031 301.786 33.2513 302.008 33.3477C302.232 33.444 302.406 33.5846 302.531 33.7695C302.656 33.9518 302.719 34.1745 302.719 34.4375C302.719 34.7891 302.609 35.0859 302.391 35.3281C302.172 35.5703 301.896 35.7865 301.562 35.9766L302.91 37.2891C303.038 37.1146 303.143 36.9232 303.227 36.7148C303.31 36.5039 303.382 36.2826 303.441 36.0508H304.391C304.31 36.3737 304.198 36.6927 304.055 37.0078C303.911 37.3203 303.73 37.6068 303.512 37.8672L304.672 39H303.496L302.918 38.4336C302.757 38.5638 302.583 38.6771 302.398 38.7734C302.216 38.8698 302.017 38.9453 301.801 39C301.585 39.0521 301.346 39.0781 301.086 39.0781C300.688 39.0781 300.344 39.0143 300.055 38.8867C299.766 38.7591 299.543 38.5768 299.387 38.3398C299.233 38.1003 299.156 37.8164 299.156 37.4883C299.156 37.2148 299.202 36.9805 299.293 36.7852C299.387 36.5872 299.52 36.4141 299.691 36.2656C299.863 36.1146 300.069 35.9714 300.309 35.8359C300.178 35.6875 300.065 35.543 299.969 35.4023C299.872 35.2617 299.798 35.1172 299.746 34.9688C299.697 34.8177 299.672 34.6562 299.672 34.4844C299.672 34.2188 299.737 33.9909 299.867 33.8008C299.997 33.6081 300.18 33.4609 300.414 33.3594C300.648 33.2552 300.922 33.2031 301.234 33.2031ZM300.852 36.3945C300.701 36.4909 300.57 36.5885 300.461 36.6875C300.352 36.7839 300.267 36.8906 300.207 37.0078C300.15 37.125 300.121 37.2617 300.121 37.418C300.121 37.6862 300.215 37.8984 300.402 38.0547C300.592 38.2109 300.837 38.2891 301.137 38.2891C301.4 38.2891 301.63 38.25 301.828 38.1719C302.029 38.0911 302.203 37.9909 302.352 37.8711L300.852 36.3945ZM301.219 33.9297C301.034 33.9297 300.874 33.9779 300.738 34.0742C300.605 34.1706 300.539 34.3203 300.539 34.5234C300.539 34.6875 300.582 34.8424 300.668 34.9883C300.757 35.1315 300.879 35.2865 301.035 35.4531C301.309 35.3021 301.512 35.1536 301.645 35.0078C301.78 34.862 301.848 34.6927 301.848 34.5C301.848 34.3177 301.786 34.1771 301.664 34.0781C301.542 33.9792 301.393 33.9297 301.219 33.9297ZM306.801 39.0781C306.285 39.0781 305.871 38.8906 305.559 38.5156C305.249 38.138 305.094 37.582 305.094 36.8477C305.094 36.1055 305.251 35.5443 305.566 35.1641C305.884 34.7839 306.302 34.5938 306.82 34.5938C307.039 34.5938 307.23 34.6237 307.395 34.6836C307.559 34.7409 307.699 34.819 307.816 34.918C307.936 35.0169 308.038 35.1276 308.121 35.25H308.164C308.151 35.1693 308.135 35.0534 308.117 34.9023C308.102 34.7487 308.094 34.6068 308.094 34.4766V32.9219H309.016V39H308.297L308.133 38.4102H308.094C308.016 38.5352 307.917 38.6484 307.797 38.75C307.68 38.849 307.539 38.9284 307.375 38.9883C307.214 39.0482 307.022 39.0781 306.801 39.0781ZM307.059 38.332C307.452 38.332 307.729 38.2188 307.891 37.9922C308.052 37.7656 308.135 37.4258 308.141 36.9727V36.8516C308.141 36.3672 308.062 35.9961 307.906 35.7383C307.75 35.4779 307.465 35.3477 307.051 35.3477C306.72 35.3477 306.467 35.4818 306.293 35.75C306.121 36.0156 306.035 36.3867 306.035 36.8633C306.035 37.3398 306.121 37.7044 306.293 37.957C306.467 38.207 306.723 38.332 307.059 38.332Z" fill="white"/>
<path d="M80.2422 34.5938C80.3151 34.5938 80.3945 34.5977 80.4805 34.6055C80.5664 34.6133 80.6406 34.6237 80.7031 34.6367L80.6172 35.4961C80.5625 35.4805 80.4948 35.4688 80.4141 35.4609C80.3359 35.4531 80.2656 35.4492 80.2031 35.4492C80.0391 35.4492 79.8828 35.4766 79.7344 35.5312C79.5859 35.5833 79.4544 35.6641 79.3398 35.7734C79.2253 35.8802 79.1354 36.0143 79.0703 36.1758C79.0052 36.3372 78.9727 36.5247 78.9727 36.7383V39H78.0508V34.6758H78.7695L78.8945 35.4375H78.9375C79.0234 35.2839 79.1302 35.1432 79.2578 35.0156C79.3854 34.888 79.5312 34.7865 79.6953 34.7109C79.862 34.6328 80.0443 34.5938 80.2422 34.5938ZM83.2266 34.5938C83.612 34.5938 83.9427 34.6732 84.2188 34.832C84.4948 34.9909 84.707 35.2161 84.8555 35.5078C85.0039 35.7995 85.0781 36.1484 85.0781 36.5547V37.0469H82.1914C82.2018 37.4661 82.3138 37.7891 82.5273 38.0156C82.7435 38.2422 83.0456 38.3555 83.4336 38.3555C83.7096 38.3555 83.957 38.3294 84.1758 38.2773C84.3971 38.2227 84.625 38.1432 84.8594 38.0391V38.7852C84.6432 38.8867 84.4232 38.9609 84.1992 39.0078C83.9753 39.0547 83.707 39.0781 83.3945 39.0781C82.9701 39.0781 82.5964 38.9961 82.2734 38.832C81.9531 38.6654 81.7018 38.418 81.5195 38.0898C81.3398 37.7617 81.25 37.3542 81.25 36.8672C81.25 36.3828 81.332 35.9714 81.4961 35.6328C81.6602 35.2943 81.8906 35.0365 82.1875 34.8594C82.4844 34.6823 82.8307 34.5938 83.2266 34.5938ZM83.2266 35.2852C82.9375 35.2852 82.7031 35.3789 82.5234 35.5664C82.3464 35.7539 82.2422 36.0286 82.2109 36.3906H84.1797C84.1771 36.1745 84.1406 35.9831 84.0703 35.8164C84.0026 35.6497 83.8984 35.5195 83.7578 35.4258C83.6198 35.332 83.4427 35.2852 83.2266 35.2852ZM87.5664 39.0781C87.0508 39.0781 86.6367 38.8906 86.3242 38.5156C86.0143 38.138 85.8594 37.582 85.8594 36.8477C85.8594 36.1055 86.0169 35.5443 86.332 35.1641C86.6497 34.7839 87.0677 34.5938 87.5859 34.5938C87.8047 34.5938 87.9961 34.6237 88.1602 34.6836C88.3242 34.7409 88.4648 34.819 88.582 34.918C88.7018 35.0169 88.8034 35.1276 88.8867 35.25H88.9297C88.9167 35.1693 88.901 35.0534 88.8828 34.9023C88.8672 34.7487 88.8594 34.6068 88.8594 34.4766V32.9219H89.7812V39H89.0625L88.8984 38.4102H88.8594C88.7812 38.5352 88.6823 38.6484 88.5625 38.75C88.4453 38.849 88.3047 38.9284 88.1406 38.9883C87.9792 39.0482 87.7878 39.0781 87.5664 39.0781ZM87.8242 38.332C88.2174 38.332 88.4948 38.2188 88.6562 37.9922C88.8177 37.7656 88.901 37.4258 88.9062 36.9727V36.8516C88.9062 36.3672 88.8281 35.9961 88.6719 35.7383C88.5156 35.4779 88.2305 35.3477 87.8164 35.3477C87.4857 35.3477 87.2331 35.4818 87.0586 35.75C86.8867 36.0156 86.8008 36.3867 86.8008 36.8633C86.8008 37.3398 86.8867 37.7044 87.0586 37.957C87.2331 38.207 87.4883 38.332 87.8242 38.332ZM92.8203 34.5938C93.2057 34.5938 93.5365 34.6732 93.8125 34.832C94.0885 34.9909 94.3008 35.2161 94.4492 35.5078C94.5977 35.7995 94.6719 36.1484 94.6719 36.5547V37.0469H91.7852C91.7956 37.4661 91.9076 37.7891 92.1211 38.0156C92.3372 38.2422 92.6393 38.3555 93.0273 38.3555C93.3034 38.3555 93.5508 38.3294 93.7695 38.2773C93.9909 38.2227 94.2188 38.1432 94.4531 38.0391V38.7852C94.237 38.8867 94.0169 38.9609 93.793 39.0078C93.569 39.0547 93.3008 39.0781 92.9883 39.0781C92.5638 39.0781 92.1901 38.9961 91.8672 38.832C91.5469 38.6654 91.2956 38.418 91.1133 38.0898C90.9336 37.7617 90.8438 37.3542 90.8438 36.8672C90.8438 36.3828 90.9258 35.9714 91.0898 35.6328C91.2539 35.2943 91.4844 35.0365 91.7812 34.8594C92.0781 34.6823 92.4245 34.5938 92.8203 34.5938ZM92.8203 35.2852C92.5312 35.2852 92.2969 35.3789 92.1172 35.5664C91.9401 35.7539 91.8359 36.0286 91.8047 36.3906H93.7734C93.7708 36.1745 93.7344 35.9831 93.6641 35.8164C93.5964 35.6497 93.4922 35.5195 93.3516 35.4258C93.2135 35.332 93.0365 35.2852 92.8203 35.2852ZM98.6133 37.7656C98.6133 38.0495 98.5443 38.2891 98.4062 38.4844C98.2682 38.6797 98.0664 38.8281 97.8008 38.9297C97.5378 39.0286 97.2148 39.0781 96.832 39.0781C96.5299 39.0781 96.2695 39.056 96.0508 39.0117C95.8346 38.9701 95.6302 38.9049 95.4375 38.8164V38.0234C95.6432 38.1198 95.8737 38.2031 96.1289 38.2734C96.3867 38.3438 96.6302 38.3789 96.8594 38.3789C97.1615 38.3789 97.3789 38.332 97.5117 38.2383C97.6445 38.1419 97.7109 38.0143 97.7109 37.8555C97.7109 37.7617 97.6836 37.6784 97.6289 37.6055C97.5768 37.5299 97.4779 37.4531 97.332 37.375C97.1888 37.2943 96.9779 37.1979 96.6992 37.0859C96.4258 36.9766 96.1953 36.8672 96.0078 36.7578C95.8203 36.6484 95.6784 36.5169 95.582 36.3633C95.4857 36.207 95.4375 36.0078 95.4375 35.7656C95.4375 35.3828 95.5885 35.0924 95.8906 34.8945C96.1953 34.694 96.5977 34.5938 97.0977 34.5938C97.3633 34.5938 97.6133 34.6211 97.8477 34.6758C98.0846 34.7279 98.3164 34.8047 98.543 34.9062L98.2539 35.5977C98.0586 35.5117 97.862 35.4414 97.6641 35.3867C97.4688 35.3294 97.2695 35.3008 97.0664 35.3008C96.8294 35.3008 96.6484 35.3372 96.5234 35.4102C96.401 35.4831 96.3398 35.5872 96.3398 35.7227C96.3398 35.8242 96.3698 35.9102 96.4297 35.9805C96.4896 36.0508 96.5924 36.1211 96.7383 36.1914C96.8867 36.2617 97.0924 36.349 97.3555 36.4531C97.6133 36.5521 97.8359 36.6562 98.0234 36.7656C98.2135 36.8724 98.3594 37.0039 98.4609 37.1602C98.5625 37.3164 98.6133 37.5182 98.6133 37.7656ZM100.523 34.6758V39H99.6055V34.6758H100.523ZM100.07 33.0195C100.211 33.0195 100.332 33.0573 100.434 33.1328C100.538 33.2083 100.59 33.3385 100.59 33.5234C100.59 33.7057 100.538 33.8359 100.434 33.9141C100.332 33.9896 100.211 34.0273 100.07 34.0273C99.9245 34.0273 99.8008 33.9896 99.6992 33.9141C99.6003 33.8359 99.5508 33.7057 99.5508 33.5234C99.5508 33.3385 99.6003 33.2083 99.6992 33.1328C99.8008 33.0573 99.9245 33.0195 100.07 33.0195ZM103.074 40.9219C102.488 40.9219 102.039 40.8164 101.727 40.6055C101.414 40.3945 101.258 40.099 101.258 39.7188C101.258 39.4531 101.341 39.2279 101.508 39.043C101.674 38.8607 101.913 38.7344 102.223 38.6641C102.105 38.612 102.004 38.5312 101.918 38.4219C101.835 38.3099 101.793 38.1862 101.793 38.0508C101.793 37.8893 101.839 37.7513 101.93 37.6367C102.021 37.5221 102.158 37.4115 102.34 37.3047C102.113 37.2083 101.931 37.0521 101.793 36.8359C101.658 36.6172 101.59 36.3607 101.59 36.0664C101.59 35.7539 101.656 35.4883 101.789 35.2695C101.922 35.0482 102.116 34.8802 102.371 34.7656C102.626 34.6484 102.935 34.5898 103.297 34.5898C103.375 34.5898 103.46 34.5951 103.551 34.6055C103.645 34.6133 103.73 34.6237 103.809 34.6367C103.889 34.6471 103.951 34.6589 103.992 34.6719H105.488V35.1836L104.754 35.3203C104.824 35.4193 104.88 35.5326 104.922 35.6602C104.964 35.7852 104.984 35.9219 104.984 36.0703C104.984 36.5182 104.829 36.8711 104.52 37.1289C104.212 37.3841 103.788 37.5117 103.246 37.5117C103.116 37.5065 102.99 37.4961 102.867 37.4805C102.773 37.5378 102.702 37.6016 102.652 37.6719C102.603 37.7396 102.578 37.8164 102.578 37.9023C102.578 37.9727 102.603 38.0299 102.652 38.0742C102.702 38.1159 102.775 38.1471 102.871 38.168C102.97 38.1888 103.09 38.1992 103.23 38.1992H103.977C104.451 38.1992 104.812 38.2995 105.062 38.5C105.312 38.7005 105.438 38.9948 105.438 39.3828C105.438 39.875 105.234 40.2539 104.828 40.5195C104.422 40.7878 103.837 40.9219 103.074 40.9219ZM103.109 40.2773C103.43 40.2773 103.699 40.2461 103.918 40.1836C104.137 40.1211 104.302 40.0312 104.414 39.9141C104.526 39.7995 104.582 39.6628 104.582 39.5039C104.582 39.3633 104.547 39.2552 104.477 39.1797C104.406 39.1042 104.301 39.0521 104.16 39.0234C104.02 38.9948 103.845 38.9805 103.637 38.9805H102.957C102.788 38.9805 102.638 39.0065 102.508 39.0586C102.378 39.1133 102.276 39.1914 102.203 39.293C102.133 39.3945 102.098 39.5169 102.098 39.6602C102.098 39.8581 102.185 40.0104 102.359 40.1172C102.536 40.224 102.786 40.2773 103.109 40.2773ZM103.289 36.9102C103.557 36.9102 103.757 36.8372 103.887 36.6914C104.017 36.543 104.082 36.3346 104.082 36.0664C104.082 35.7747 104.014 35.556 103.879 35.4102C103.746 35.2643 103.548 35.1914 103.285 35.1914C103.027 35.1914 102.831 35.2656 102.695 35.4141C102.562 35.5625 102.496 35.7826 102.496 36.0742C102.496 36.3372 102.562 36.543 102.695 36.6914C102.831 36.8372 103.029 36.9102 103.289 36.9102ZM108.531 34.5938C109.018 34.5938 109.397 34.7201 109.668 34.9727C109.941 35.2227 110.078 35.625 110.078 36.1797V39H109.16V36.3516C109.16 36.0156 109.091 35.7643 108.953 35.5977C108.815 35.4284 108.602 35.3438 108.312 35.3438C107.893 35.3438 107.602 35.4727 107.438 35.7305C107.276 35.9883 107.195 36.362 107.195 36.8516V39H106.277V34.6758H106.992L107.121 35.2617H107.172C107.266 35.1107 107.382 34.987 107.52 34.8906C107.66 34.7917 107.816 34.7174 107.988 34.668C108.163 34.6185 108.344 34.5938 108.531 34.5938ZM114.27 37.7656C114.27 38.0495 114.201 38.2891 114.062 38.4844C113.924 38.6797 113.723 38.8281 113.457 38.9297C113.194 39.0286 112.871 39.0781 112.488 39.0781C112.186 39.0781 111.926 39.056 111.707 39.0117C111.491 38.9701 111.286 38.9049 111.094 38.8164V38.0234C111.299 38.1198 111.53 38.2031 111.785 38.2734C112.043 38.3438 112.286 38.3789 112.516 38.3789C112.818 38.3789 113.035 38.332 113.168 38.2383C113.301 38.1419 113.367 38.0143 113.367 37.8555C113.367 37.7617 113.34 37.6784 113.285 37.6055C113.233 37.5299 113.134 37.4531 112.988 37.375C112.845 37.2943 112.634 37.1979 112.355 37.0859C112.082 36.9766 111.852 36.8672 111.664 36.7578C111.477 36.6484 111.335 36.5169 111.238 36.3633C111.142 36.207 111.094 36.0078 111.094 35.7656C111.094 35.3828 111.245 35.0924 111.547 34.8945C111.852 34.694 112.254 34.5938 112.754 34.5938C113.02 34.5938 113.27 34.6211 113.504 34.6758C113.741 34.7279 113.973 34.8047 114.199 34.9062L113.91 35.5977C113.715 35.5117 113.518 35.4414 113.32 35.3867C113.125 35.3294 112.926 35.3008 112.723 35.3008C112.486 35.3008 112.305 35.3372 112.18 35.4102C112.057 35.4831 111.996 35.5872 111.996 35.7227C111.996 35.8242 112.026 35.9102 112.086 35.9805C112.146 36.0508 112.249 36.1211 112.395 36.1914C112.543 36.2617 112.749 36.349 113.012 36.4531C113.27 36.5521 113.492 36.6562 113.68 36.7656C113.87 36.8724 114.016 37.0039 114.117 37.1602C114.219 37.3164 114.27 37.5182 114.27 37.7656Z" fill="white"/>
<path d="M151.59 37.7656C151.59 38.0495 151.521 38.2891 151.383 38.4844C151.245 38.6797 151.043 38.8281 150.777 38.9297C150.514 39.0286 150.191 39.0781 149.809 39.0781C149.507 39.0781 149.246 39.056 149.027 39.0117C148.811 38.9701 148.607 38.9049 148.414 38.8164V38.0234C148.62 38.1198 148.85 38.2031 149.105 38.2734C149.363 38.3438 149.607 38.3789 149.836 38.3789C150.138 38.3789 150.355 38.332 150.488 38.2383C150.621 38.1419 150.688 38.0143 150.688 37.8555C150.688 37.7617 150.66 37.6784 150.605 37.6055C150.553 37.5299 150.454 37.4531 150.309 37.375C150.165 37.2943 149.954 37.1979 149.676 37.0859C149.402 36.9766 149.172 36.8672 148.984 36.7578C148.797 36.6484 148.655 36.5169 148.559 36.3633C148.462 36.207 148.414 36.0078 148.414 35.7656C148.414 35.3828 148.565 35.0924 148.867 34.8945C149.172 34.694 149.574 34.5938 150.074 34.5938C150.34 34.5938 150.59 34.6211 150.824 34.6758C151.061 34.7279 151.293 34.8047 151.52 34.9062L151.23 35.5977C151.035 35.5117 150.839 35.4414 150.641 35.3867C150.445 35.3294 150.246 35.3008 150.043 35.3008C149.806 35.3008 149.625 35.3372 149.5 35.4102C149.378 35.4831 149.316 35.5872 149.316 35.7227C149.316 35.8242 149.346 35.9102 149.406 35.9805C149.466 36.0508 149.569 36.1211 149.715 36.1914C149.863 36.2617 150.069 36.349 150.332 36.4531C150.59 36.5521 150.812 36.6562 151 36.7656C151.19 36.8724 151.336 37.0039 151.438 37.1602C151.539 37.3164 151.59 37.5182 151.59 37.7656ZM153.5 32.9219V34.4492C153.5 34.6081 153.495 34.763 153.484 34.9141C153.477 35.0651 153.467 35.1823 153.457 35.2656H153.508C153.599 35.1146 153.711 34.9909 153.844 34.8945C153.977 34.7956 154.125 34.7214 154.289 34.6719C154.456 34.6224 154.633 34.5977 154.82 34.5977C155.151 34.5977 155.432 34.6536 155.664 34.7656C155.896 34.875 156.073 35.0456 156.195 35.2773C156.32 35.5091 156.383 35.8099 156.383 36.1797V39H155.465V36.3516C155.465 36.0156 155.396 35.7643 155.258 35.5977C155.12 35.4284 154.906 35.3438 154.617 35.3438C154.339 35.3438 154.117 35.4023 153.953 35.5195C153.792 35.6341 153.676 35.8047 153.605 36.0312C153.535 36.2552 153.5 36.5286 153.5 36.8516V39H152.582V32.9219H153.5ZM158.586 34.6758V39H157.668V34.6758H158.586ZM158.133 33.0195C158.273 33.0195 158.395 33.0573 158.496 33.1328C158.6 33.2083 158.652 33.3385 158.652 33.5234C158.652 33.7057 158.6 33.8359 158.496 33.9141C158.395 33.9896 158.273 34.0273 158.133 34.0273C157.987 34.0273 157.863 33.9896 157.762 33.9141C157.663 33.8359 157.613 33.7057 157.613 33.5234C157.613 33.3385 157.663 33.2083 157.762 33.1328C157.863 33.0573 157.987 33.0195 158.133 33.0195ZM162.121 34.5938C162.634 34.5938 163.046 34.7812 163.355 35.1562C163.668 35.5312 163.824 36.0885 163.824 36.8281C163.824 37.3177 163.751 37.7305 163.605 38.0664C163.462 38.3997 163.26 38.6523 163 38.8242C162.742 38.9935 162.441 39.0781 162.098 39.0781C161.879 39.0781 161.689 39.0495 161.527 38.9922C161.366 38.9349 161.228 38.8607 161.113 38.7695C160.999 38.6758 160.902 38.5742 160.824 38.4648H160.77C160.783 38.569 160.794 38.6849 160.805 38.8125C160.818 38.9375 160.824 39.0521 160.824 39.1562V40.918H159.902V34.6758H160.652L160.781 35.2734H160.824C160.905 35.151 161.003 35.0378 161.117 34.9336C161.234 34.8294 161.375 34.7474 161.539 34.6875C161.706 34.625 161.9 34.5938 162.121 34.5938ZM161.875 35.3438C161.622 35.3438 161.419 35.3945 161.266 35.4961C161.115 35.5951 161.004 35.7448 160.934 35.9453C160.866 36.1458 160.829 36.3971 160.824 36.6992V36.8281C160.824 37.1484 160.857 37.4206 160.922 37.6445C160.99 37.8659 161.1 38.0352 161.254 38.1523C161.41 38.2669 161.621 38.3242 161.887 38.3242C162.111 38.3242 162.296 38.263 162.441 38.1406C162.59 38.0182 162.701 37.8438 162.773 37.6172C162.846 37.3906 162.883 37.1237 162.883 36.8164C162.883 36.3503 162.799 35.9883 162.633 35.7305C162.469 35.4727 162.216 35.3438 161.875 35.3438ZM167.105 34.5938C167.618 34.5938 168.03 34.7812 168.34 35.1562C168.652 35.5312 168.809 36.0885 168.809 36.8281C168.809 37.3177 168.736 37.7305 168.59 38.0664C168.447 38.3997 168.245 38.6523 167.984 38.8242C167.727 38.9935 167.426 39.0781 167.082 39.0781C166.863 39.0781 166.673 39.0495 166.512 38.9922C166.35 38.9349 166.212 38.8607 166.098 38.7695C165.983 38.6758 165.887 38.5742 165.809 38.4648H165.754C165.767 38.569 165.779 38.6849 165.789 38.8125C165.802 38.9375 165.809 39.0521 165.809 39.1562V40.918H164.887V34.6758H165.637L165.766 35.2734H165.809C165.889 35.151 165.987 35.0378 166.102 34.9336C166.219 34.8294 166.359 34.7474 166.523 34.6875C166.69 34.625 166.884 34.5938 167.105 34.5938ZM166.859 35.3438C166.607 35.3438 166.404 35.3945 166.25 35.4961C166.099 35.5951 165.988 35.7448 165.918 35.9453C165.85 36.1458 165.814 36.3971 165.809 36.6992V36.8281C165.809 37.1484 165.841 37.4206 165.906 37.6445C165.974 37.8659 166.085 38.0352 166.238 38.1523C166.395 38.2669 166.605 38.3242 166.871 38.3242C167.095 38.3242 167.28 38.263 167.426 38.1406C167.574 38.0182 167.685 37.8438 167.758 37.6172C167.831 37.3906 167.867 37.1237 167.867 36.8164C167.867 36.3503 167.784 35.9883 167.617 35.7305C167.453 35.4727 167.201 35.3438 166.859 35.3438ZM170.789 34.6758V39H169.871V34.6758H170.789ZM170.336 33.0195C170.477 33.0195 170.598 33.0573 170.699 33.1328C170.803 33.2083 170.855 33.3385 170.855 33.5234C170.855 33.7057 170.803 33.8359 170.699 33.9141C170.598 33.9896 170.477 34.0273 170.336 34.0273C170.19 34.0273 170.066 33.9896 169.965 33.9141C169.866 33.8359 169.816 33.7057 169.816 33.5234C169.816 33.3385 169.866 33.2083 169.965 33.1328C170.066 33.0573 170.19 33.0195 170.336 33.0195ZM174.359 34.5938C174.846 34.5938 175.225 34.7201 175.496 34.9727C175.77 35.2227 175.906 35.625 175.906 36.1797V39H174.988V36.3516C174.988 36.0156 174.919 35.7643 174.781 35.5977C174.643 35.4284 174.43 35.3438 174.141 35.3438C173.721 35.3438 173.43 35.4727 173.266 35.7305C173.104 35.9883 173.023 36.362 173.023 36.8516V39H172.105V34.6758H172.82L172.949 35.2617H173C173.094 35.1107 173.21 34.987 173.348 34.8906C173.488 34.7917 173.645 34.7174 173.816 34.668C173.991 34.6185 174.172 34.5938 174.359 34.5938ZM178.426 40.9219C177.84 40.9219 177.391 40.8164 177.078 40.6055C176.766 40.3945 176.609 40.099 176.609 39.7188C176.609 39.4531 176.693 39.2279 176.859 39.043C177.026 38.8607 177.264 38.7344 177.574 38.6641C177.457 38.612 177.355 38.5312 177.27 38.4219C177.186 38.3099 177.145 38.1862 177.145 38.0508C177.145 37.8893 177.19 37.7513 177.281 37.6367C177.372 37.5221 177.509 37.4115 177.691 37.3047C177.465 37.2083 177.283 37.0521 177.145 36.8359C177.009 36.6172 176.941 36.3607 176.941 36.0664C176.941 35.7539 177.008 35.4883 177.141 35.2695C177.273 35.0482 177.467 34.8802 177.723 34.7656C177.978 34.6484 178.286 34.5898 178.648 34.5898C178.727 34.5898 178.811 34.5951 178.902 34.6055C178.996 34.6133 179.082 34.6237 179.16 34.6367C179.241 34.6471 179.302 34.6589 179.344 34.6719H180.84V35.1836L180.105 35.3203C180.176 35.4193 180.232 35.5326 180.273 35.6602C180.315 35.7852 180.336 35.9219 180.336 36.0703C180.336 36.5182 180.181 36.8711 179.871 37.1289C179.564 37.3841 179.139 37.5117 178.598 37.5117C178.467 37.5065 178.341 37.4961 178.219 37.4805C178.125 37.5378 178.053 37.6016 178.004 37.6719C177.954 37.7396 177.93 37.8164 177.93 37.9023C177.93 37.9727 177.954 38.0299 178.004 38.0742C178.053 38.1159 178.126 38.1471 178.223 38.168C178.322 38.1888 178.441 38.1992 178.582 38.1992H179.328C179.802 38.1992 180.164 38.2995 180.414 38.5C180.664 38.7005 180.789 38.9948 180.789 39.3828C180.789 39.875 180.586 40.2539 180.18 40.5195C179.773 40.7878 179.189 40.9219 178.426 40.9219ZM178.461 40.2773C178.781 40.2773 179.051 40.2461 179.27 40.1836C179.488 40.1211 179.654 40.0312 179.766 39.9141C179.878 39.7995 179.934 39.6628 179.934 39.5039C179.934 39.3633 179.898 39.2552 179.828 39.1797C179.758 39.1042 179.652 39.0521 179.512 39.0234C179.371 38.9948 179.197 38.9805 178.988 38.9805H178.309C178.139 38.9805 177.99 39.0065 177.859 39.0586C177.729 39.1133 177.628 39.1914 177.555 39.293C177.484 39.3945 177.449 39.5169 177.449 39.6602C177.449 39.8581 177.536 40.0104 177.711 40.1172C177.888 40.224 178.138 40.2773 178.461 40.2773ZM178.641 36.9102C178.909 36.9102 179.108 36.8372 179.238 36.6914C179.368 36.543 179.434 36.3346 179.434 36.0664C179.434 35.7747 179.366 35.556 179.23 35.4102C179.098 35.2643 178.9 35.1914 178.637 35.1914C178.379 35.1914 178.182 35.2656 178.047 35.4141C177.914 35.5625 177.848 35.7826 177.848 36.0742C177.848 36.3372 177.914 36.543 178.047 36.6914C178.182 36.8372 178.38 36.9102 178.641 36.9102Z" fill="white"/>
<path d="M223.258 29.6758V34H222.34V29.6758H223.258ZM222.805 28.0195C222.945 28.0195 223.066 28.0573 223.168 28.1328C223.272 28.2083 223.324 28.3385 223.324 28.5234C223.324 28.7057 223.272 28.8359 223.168 28.9141C223.066 28.9896 222.945 29.0273 222.805 29.0273C222.659 29.0273 222.535 28.9896 222.434 28.9141C222.335 28.8359 222.285 28.7057 222.285 28.5234C222.285 28.3385 222.335 28.2083 222.434 28.1328C222.535 28.0573 222.659 28.0195 222.805 28.0195ZM226.828 29.5938C227.315 29.5938 227.694 29.7201 227.965 29.9727C228.238 30.2227 228.375 30.625 228.375 31.1797V34H227.457V31.3516C227.457 31.0156 227.388 30.7643 227.25 30.5977C227.112 30.4284 226.898 30.3438 226.609 30.3438C226.19 30.3438 225.898 30.4727 225.734 30.7305C225.573 30.9883 225.492 31.362 225.492 31.8516V34H224.574V29.6758H225.289L225.418 30.2617H225.469C225.562 30.1107 225.678 29.987 225.816 29.8906C225.957 29.7917 226.113 29.7174 226.285 29.668C226.46 29.6185 226.641 29.5938 226.828 29.5938ZM231.27 33.3359C231.389 33.3359 231.508 33.3255 231.625 33.3047C231.742 33.2812 231.849 33.2539 231.945 33.2227V33.918C231.844 33.9622 231.712 34 231.551 34.0312C231.389 34.0625 231.221 34.0781 231.047 34.0781C230.802 34.0781 230.582 34.0378 230.387 33.957C230.191 33.8737 230.036 33.7318 229.922 33.5312C229.807 33.3307 229.75 33.0534 229.75 32.6992V30.375H229.16V29.9648L229.793 29.6406L230.094 28.7148H230.672V29.6758H231.91V30.375H230.672V32.6875C230.672 32.9062 230.727 33.069 230.836 33.1758C230.945 33.2826 231.09 33.3359 231.27 33.3359ZM234.547 29.5938C234.932 29.5938 235.263 29.6732 235.539 29.832C235.815 29.9909 236.027 30.2161 236.176 30.5078C236.324 30.7995 236.398 31.1484 236.398 31.5547V32.0469H233.512C233.522 32.4661 233.634 32.7891 233.848 33.0156C234.064 33.2422 234.366 33.3555 234.754 33.3555C235.03 33.3555 235.277 33.3294 235.496 33.2773C235.717 33.2227 235.945 33.1432 236.18 33.0391V33.7852C235.964 33.8867 235.743 33.9609 235.52 34.0078C235.296 34.0547 235.027 34.0781 234.715 34.0781C234.29 34.0781 233.917 33.9961 233.594 33.832C233.273 33.6654 233.022 33.418 232.84 33.0898C232.66 32.7617 232.57 32.3542 232.57 31.8672C232.57 31.3828 232.652 30.9714 232.816 30.6328C232.98 30.2943 233.211 30.0365 233.508 29.8594C233.805 29.6823 234.151 29.5938 234.547 29.5938ZM234.547 30.2852C234.258 30.2852 234.023 30.3789 233.844 30.5664C233.667 30.7539 233.562 31.0286 233.531 31.3906H235.5C235.497 31.1745 235.461 30.9831 235.391 30.8164C235.323 30.6497 235.219 30.5195 235.078 30.4258C234.94 30.332 234.763 30.2852 234.547 30.2852ZM239.625 29.5938C239.698 29.5938 239.777 29.5977 239.863 29.6055C239.949 29.6133 240.023 29.6237 240.086 29.6367L240 30.4961C239.945 30.4805 239.878 30.4688 239.797 30.4609C239.719 30.4531 239.648 30.4492 239.586 30.4492C239.422 30.4492 239.266 30.4766 239.117 30.5312C238.969 30.5833 238.837 30.6641 238.723 30.7734C238.608 30.8802 238.518 31.0143 238.453 31.1758C238.388 31.3372 238.355 31.5247 238.355 31.7383V34H237.434V29.6758H238.152L238.277 30.4375H238.32C238.406 30.2839 238.513 30.1432 238.641 30.0156C238.768 29.888 238.914 29.7865 239.078 29.7109C239.245 29.6328 239.427 29.5938 239.625 29.5938ZM243.141 29.5938C243.628 29.5938 244.007 29.7201 244.277 29.9727C244.551 30.2227 244.688 30.625 244.688 31.1797V34H243.77V31.3516C243.77 31.0156 243.701 30.7643 243.562 30.5977C243.424 30.4284 243.211 30.3438 242.922 30.3438C242.503 30.3438 242.211 30.4727 242.047 30.7305C241.885 30.9883 241.805 31.362 241.805 31.8516V34H240.887V29.6758H241.602L241.73 30.2617H241.781C241.875 30.1107 241.991 29.987 242.129 29.8906C242.27 29.7917 242.426 29.7174 242.598 29.668C242.772 29.6185 242.953 29.5938 243.141 29.5938ZM222.723 40.5938C223.236 40.5938 223.647 40.7812 223.957 41.1562C224.27 41.5312 224.426 42.0885 224.426 42.8281C224.426 43.3177 224.353 43.7305 224.207 44.0664C224.064 44.3997 223.862 44.6523 223.602 44.8242C223.344 44.9935 223.043 45.0781 222.699 45.0781C222.48 45.0781 222.29 45.0495 222.129 44.9922C221.967 44.9349 221.829 44.8607 221.715 44.7695C221.6 44.6758 221.504 44.5742 221.426 44.4648H221.371C221.384 44.569 221.396 44.6849 221.406 44.8125C221.419 44.9375 221.426 45.0521 221.426 45.1562V46.918H220.504V40.6758H221.254L221.383 41.2734H221.426C221.507 41.151 221.604 41.0378 221.719 40.9336C221.836 40.8294 221.977 40.7474 222.141 40.6875C222.307 40.625 222.501 40.5938 222.723 40.5938ZM222.477 41.3438C222.224 41.3438 222.021 41.3945 221.867 41.4961C221.716 41.5951 221.605 41.7448 221.535 41.9453C221.467 42.1458 221.431 42.3971 221.426 42.6992V42.8281C221.426 43.1484 221.458 43.4206 221.523 43.6445C221.591 43.8659 221.702 44.0352 221.855 44.1523C222.012 44.2669 222.223 44.3242 222.488 44.3242C222.712 44.3242 222.897 44.263 223.043 44.1406C223.191 44.0182 223.302 43.8438 223.375 43.6172C223.448 43.3906 223.484 43.1237 223.484 42.8164C223.484 42.3503 223.401 41.9883 223.234 41.7305C223.07 41.4727 222.818 41.3438 222.477 41.3438ZM227.68 40.5938C227.753 40.5938 227.832 40.5977 227.918 40.6055C228.004 40.6133 228.078 40.6237 228.141 40.6367L228.055 41.4961C228 41.4805 227.932 41.4688 227.852 41.4609C227.773 41.4531 227.703 41.4492 227.641 41.4492C227.477 41.4492 227.32 41.4766 227.172 41.5312C227.023 41.5833 226.892 41.6641 226.777 41.7734C226.663 41.8802 226.573 42.0143 226.508 42.1758C226.443 42.3372 226.41 42.5247 226.41 42.7383V45H225.488V40.6758H226.207L226.332 41.4375H226.375C226.461 41.2839 226.568 41.1432 226.695 41.0156C226.823 40.888 226.969 40.7865 227.133 40.7109C227.299 40.6328 227.482 40.5938 227.68 40.5938ZM232.77 42.8281C232.77 43.1875 232.723 43.5065 232.629 43.7852C232.535 44.0638 232.398 44.2995 232.219 44.4922C232.039 44.6823 231.823 44.8281 231.57 44.9297C231.318 45.0286 231.033 45.0781 230.715 45.0781C230.418 45.0781 230.146 45.0286 229.898 44.9297C229.651 44.8281 229.436 44.6823 229.254 44.4922C229.074 44.2995 228.935 44.0638 228.836 43.7852C228.737 43.5065 228.688 43.1875 228.688 42.8281C228.688 42.3516 228.77 41.9479 228.934 41.6172C229.1 41.2839 229.337 41.0299 229.645 40.8555C229.952 40.681 230.318 40.5938 230.742 40.5938C231.141 40.5938 231.492 40.681 231.797 40.8555C232.102 41.0299 232.34 41.2839 232.512 41.6172C232.684 41.9505 232.77 42.3542 232.77 42.8281ZM229.633 42.8281C229.633 43.1432 229.671 43.4128 229.746 43.6367C229.824 43.8607 229.944 44.0326 230.105 44.1523C230.267 44.2695 230.475 44.3281 230.73 44.3281C230.986 44.3281 231.194 44.2695 231.355 44.1523C231.517 44.0326 231.635 43.8607 231.711 43.6367C231.786 43.4128 231.824 43.1432 231.824 42.8281C231.824 42.513 231.786 42.2461 231.711 42.0273C231.635 41.806 231.517 41.638 231.355 41.5234C231.194 41.4062 230.984 41.3477 230.727 41.3477C230.346 41.3477 230.069 41.4753 229.895 41.7305C229.72 41.9857 229.633 42.3516 229.633 42.8281ZM233.391 46.9219C233.255 46.9219 233.126 46.9115 233.004 46.8906C232.882 46.8724 232.779 46.8503 232.695 46.8242V46.0898C232.784 46.1159 232.87 46.1354 232.953 46.1484C233.036 46.1615 233.132 46.168 233.238 46.168C233.408 46.168 233.547 46.1211 233.656 46.0273C233.768 45.9336 233.824 45.7552 233.824 45.4922V40.6758H234.742V45.5742C234.742 45.8372 234.695 46.0703 234.602 46.2734C234.51 46.4766 234.365 46.6354 234.164 46.75C233.966 46.8646 233.708 46.9219 233.391 46.9219ZM233.77 39.5234C233.77 39.3385 233.819 39.2083 233.918 39.1328C234.02 39.0573 234.143 39.0195 234.289 39.0195C234.43 39.0195 234.551 39.0573 234.652 39.1328C234.757 39.2083 234.809 39.3385 234.809 39.5234C234.809 39.7057 234.757 39.8359 234.652 39.9141C234.551 39.9896 234.43 40.0273 234.289 40.0273C234.143 40.0273 234.02 39.9896 233.918 39.9141C233.819 39.8359 233.77 39.7057 233.77 39.5234ZM237.781 40.5938C238.167 40.5938 238.497 40.6732 238.773 40.832C239.049 40.9909 239.262 41.2161 239.41 41.5078C239.559 41.7995 239.633 42.1484 239.633 42.5547V43.0469H236.746C236.757 43.4661 236.868 43.7891 237.082 44.0156C237.298 44.2422 237.6 44.3555 237.988 44.3555C238.264 44.3555 238.512 44.3294 238.73 44.2773C238.952 44.2227 239.18 44.1432 239.414 44.0391V44.7852C239.198 44.8867 238.978 44.9609 238.754 45.0078C238.53 45.0547 238.262 45.0781 237.949 45.0781C237.525 45.0781 237.151 44.9961 236.828 44.832C236.508 44.6654 236.257 44.418 236.074 44.0898C235.895 43.7617 235.805 43.3542 235.805 42.8672C235.805 42.3828 235.887 41.9714 236.051 41.6328C236.215 41.2943 236.445 41.0365 236.742 40.8594C237.039 40.6823 237.385 40.5938 237.781 40.5938ZM237.781 41.2852C237.492 41.2852 237.258 41.3789 237.078 41.5664C236.901 41.7539 236.797 42.0286 236.766 42.3906H238.734C238.732 42.1745 238.695 41.9831 238.625 41.8164C238.557 41.6497 238.453 41.5195 238.312 41.4258C238.174 41.332 237.997 41.2852 237.781 41.2852ZM242.41 45.0781C242.001 45.0781 241.647 44.9987 241.348 44.8398C241.048 44.681 240.818 44.4375 240.656 44.1094C240.495 43.7812 240.414 43.3646 240.414 42.8594C240.414 42.3333 240.503 41.9036 240.68 41.5703C240.857 41.237 241.102 40.9909 241.414 40.832C241.729 40.6732 242.09 40.5938 242.496 40.5938C242.754 40.5938 242.987 40.6198 243.195 40.6719C243.406 40.7214 243.585 40.7826 243.73 40.8555L243.457 41.5898C243.298 41.5247 243.135 41.4701 242.969 41.4258C242.802 41.3815 242.642 41.3594 242.488 41.3594C242.236 41.3594 242.025 41.4154 241.855 41.5273C241.689 41.6393 241.564 41.806 241.48 42.0273C241.4 42.2487 241.359 42.5234 241.359 42.8516C241.359 43.1693 241.401 43.4375 241.484 43.6562C241.568 43.8724 241.691 44.0365 241.855 44.1484C242.02 44.2578 242.221 44.3125 242.461 44.3125C242.698 44.3125 242.91 44.2839 243.098 44.2266C243.285 44.1693 243.462 44.0951 243.629 44.0039V44.8008C243.465 44.8945 243.289 44.9635 243.102 45.0078C242.914 45.0547 242.684 45.0781 242.41 45.0781ZM246.254 44.3359C246.374 44.3359 246.492 44.3255 246.609 44.3047C246.727 44.2812 246.833 44.2539 246.93 44.2227V44.918C246.828 44.9622 246.697 45 246.535 45.0312C246.374 45.0625 246.206 45.0781 246.031 45.0781C245.786 45.0781 245.566 45.0378 245.371 44.957C245.176 44.8737 245.021 44.7318 244.906 44.5312C244.792 44.3307 244.734 44.0534 244.734 43.6992V41.375H244.145V40.9648L244.777 40.6406L245.078 39.7148H245.656V40.6758H246.895V41.375H245.656V43.6875C245.656 43.9062 245.711 44.069 245.82 44.1758C245.93 44.2826 246.074 44.3359 246.254 44.3359Z" fill="white"/>
<path d="M14.3945 29.5938C14.9076 29.5938 15.319 29.7812 15.6289 30.1562C15.9414 30.5312 16.0977 31.0885 16.0977 31.8281C16.0977 32.3177 16.0247 32.7305 15.8789 33.0664C15.7357 33.3997 15.5339 33.6523 15.2734 33.8242C15.0156 33.9935 14.7148 34.0781 14.3711 34.0781C14.1523 34.0781 13.9622 34.0495 13.8008 33.9922C13.6393 33.9349 13.5013 33.8607 13.3867 33.7695C13.2721 33.6758 13.1758 33.5742 13.0977 33.4648H13.043C13.056 33.569 13.0677 33.6849 13.0781 33.8125C13.0911 33.9375 13.0977 34.0521 13.0977 34.1562V35.918H12.1758V29.6758H12.9258L13.0547 30.2734H13.0977C13.1784 30.151 13.276 30.0378 13.3906 29.9336C13.5078 29.8294 13.6484 29.7474 13.8125 29.6875C13.9792 29.625 14.1732 29.5938 14.3945 29.5938ZM14.1484 30.3438C13.8958 30.3438 13.6927 30.3945 13.5391 30.4961C13.388 30.5951 13.2773 30.7448 13.207 30.9453C13.1393 31.1458 13.1029 31.3971 13.0977 31.6992V31.8281C13.0977 32.1484 13.1302 32.4206 13.1953 32.6445C13.263 32.8659 13.3737 33.0352 13.5273 33.1523C13.6836 33.2669 13.8945 33.3242 14.1602 33.3242C14.3841 33.3242 14.569 33.263 14.7148 33.1406C14.8633 33.0182 14.974 32.8438 15.0469 32.6172C15.1198 32.3906 15.1562 32.1237 15.1562 31.8164C15.1562 31.3503 15.0729 30.9883 14.9062 30.7305C14.7422 30.4727 14.4896 30.3438 14.1484 30.3438ZM19.3516 29.5938C19.4245 29.5938 19.5039 29.5977 19.5898 29.6055C19.6758 29.6133 19.75 29.6237 19.8125 29.6367L19.7266 30.4961C19.6719 30.4805 19.6042 30.4688 19.5234 30.4609C19.4453 30.4531 19.375 30.4492 19.3125 30.4492C19.1484 30.4492 18.9922 30.4766 18.8438 30.5312C18.6953 30.5833 18.5638 30.6641 18.4492 30.7734C18.3346 30.8802 18.2448 31.0143 18.1797 31.1758C18.1146 31.3372 18.082 31.5247 18.082 31.7383V34H17.1602V29.6758H17.8789L18.0039 30.4375H18.0469C18.1328 30.2839 18.2396 30.1432 18.3672 30.0156C18.4948 29.888 18.6406 29.7865 18.8047 29.7109C18.9714 29.6328 19.1536 29.5938 19.3516 29.5938ZM24.4414 31.8281C24.4414 32.1875 24.3945 32.5065 24.3008 32.7852C24.207 33.0638 24.0703 33.2995 23.8906 33.4922C23.7109 33.6823 23.4948 33.8281 23.2422 33.9297C22.9896 34.0286 22.7044 34.0781 22.3867 34.0781C22.0898 34.0781 21.8177 34.0286 21.5703 33.9297C21.3229 33.8281 21.1081 33.6823 20.9258 33.4922C20.7461 33.2995 20.6068 33.0638 20.5078 32.7852C20.4089 32.5065 20.3594 32.1875 20.3594 31.8281C20.3594 31.3516 20.4414 30.9479 20.6055 30.6172C20.7721 30.2839 21.0091 30.0299 21.3164 29.8555C21.6237 29.681 21.9896 29.5938 22.4141 29.5938C22.8125 29.5938 23.1641 29.681 23.4688 29.8555C23.7734 30.0299 24.0117 30.2839 24.1836 30.6172C24.3555 30.9505 24.4414 31.3542 24.4414 31.8281ZM21.3047 31.8281C21.3047 32.1432 21.3424 32.4128 21.418 32.6367C21.4961 32.8607 21.6159 33.0326 21.7773 33.1523C21.9388 33.2695 22.1471 33.3281 22.4023 33.3281C22.6576 33.3281 22.8659 33.2695 23.0273 33.1523C23.1888 33.0326 23.3073 32.8607 23.3828 32.6367C23.4583 32.4128 23.4961 32.1432 23.4961 31.8281C23.4961 31.513 23.4583 31.2461 23.3828 31.0273C23.3073 30.806 23.1888 30.638 23.0273 30.5234C22.8659 30.4062 22.6562 30.3477 22.3984 30.3477C22.0182 30.3477 21.7409 30.4753 21.5664 30.7305C21.3919 30.9857 21.3047 31.3516 21.3047 31.8281ZM29.3242 31.8281C29.3242 32.1875 29.2773 32.5065 29.1836 32.7852C29.0898 33.0638 28.9531 33.2995 28.7734 33.4922C28.5938 33.6823 28.3776 33.8281 28.125 33.9297C27.8724 34.0286 27.5872 34.0781 27.2695 34.0781C26.9727 34.0781 26.7005 34.0286 26.4531 33.9297C26.2057 33.8281 25.9909 33.6823 25.8086 33.4922C25.6289 33.2995 25.4896 33.0638 25.3906 32.7852C25.2917 32.5065 25.2422 32.1875 25.2422 31.8281C25.2422 31.3516 25.3242 30.9479 25.4883 30.6172C25.6549 30.2839 25.8919 30.0299 26.1992 29.8555C26.5065 29.681 26.8724 29.5938 27.2969 29.5938C27.6953 29.5938 28.0469 29.681 28.3516 29.8555C28.6562 30.0299 28.8945 30.2839 29.0664 30.6172C29.2383 30.9505 29.3242 31.3542 29.3242 31.8281ZM26.1875 31.8281C26.1875 32.1432 26.2253 32.4128 26.3008 32.6367C26.3789 32.8607 26.4987 33.0326 26.6602 33.1523C26.8216 33.2695 27.0299 33.3281 27.2852 33.3281C27.5404 33.3281 27.7487 33.2695 27.9102 33.1523C28.0716 33.0326 28.1901 32.8607 28.2656 32.6367C28.3411 32.4128 28.3789 32.1432 28.3789 31.8281C28.3789 31.513 28.3411 31.2461 28.2656 31.0273C28.1901 30.806 28.0716 30.638 27.9102 30.5234C27.7487 30.4062 27.5391 30.3477 27.2812 30.3477C26.901 30.3477 26.6237 30.4753 26.4492 30.7305C26.2747 30.9857 26.1875 31.3516 26.1875 31.8281ZM32.5391 30.375H31.4883V34H30.5703V30.375H29.8633V29.9336L30.5703 29.6641V29.3633C30.5703 28.9961 30.6276 28.7044 30.7422 28.4883C30.8594 28.2721 31.026 28.1172 31.2422 28.0234C31.4609 27.9271 31.7214 27.8789 32.0234 27.8789C32.2214 27.8789 32.4023 27.8958 32.5664 27.9297C32.7305 27.9609 32.8685 27.9974 32.9805 28.0391L32.7422 28.7344C32.6536 28.7057 32.5547 28.6797 32.4453 28.6562C32.3359 28.6302 32.2188 28.6172 32.0938 28.6172C31.8854 28.6172 31.7318 28.6823 31.6328 28.8125C31.5365 28.9427 31.4883 29.1328 31.4883 29.3828V29.6758H32.5391V30.375ZM39.1836 31.8281C39.1836 32.1875 39.1367 32.5065 39.043 32.7852C38.9492 33.0638 38.8125 33.2995 38.6328 33.4922C38.4531 33.6823 38.237 33.8281 37.9844 33.9297C37.7318 34.0286 37.4466 34.0781 37.1289 34.0781C36.832 34.0781 36.5599 34.0286 36.3125 33.9297C36.0651 33.8281 35.8503 33.6823 35.668 33.4922C35.4883 33.2995 35.349 33.0638 35.25 32.7852C35.151 32.5065 35.1016 32.1875 35.1016 31.8281C35.1016 31.3516 35.1836 30.9479 35.3477 30.6172C35.5143 30.2839 35.7513 30.0299 36.0586 29.8555C36.3659 29.681 36.7318 29.5938 37.1562 29.5938C37.5547 29.5938 37.9062 29.681 38.2109 29.8555C38.5156 30.0299 38.7539 30.2839 38.9258 30.6172C39.0977 30.9505 39.1836 31.3542 39.1836 31.8281ZM36.0469 31.8281C36.0469 32.1432 36.0846 32.4128 36.1602 32.6367C36.2383 32.8607 36.3581 33.0326 36.5195 33.1523C36.681 33.2695 36.8893 33.3281 37.1445 33.3281C37.3997 33.3281 37.6081 33.2695 37.7695 33.1523C37.931 33.0326 38.0495 32.8607 38.125 32.6367C38.2005 32.4128 38.2383 32.1432 38.2383 31.8281C38.2383 31.513 38.2005 31.2461 38.125 31.0273C38.0495 30.806 37.931 30.638 37.7695 30.5234C37.6081 30.4062 37.3984 30.3477 37.1406 30.3477C36.7604 30.3477 36.4831 30.4753 36.3086 30.7305C36.1341 30.9857 36.0469 31.3516 36.0469 31.8281ZM42.3984 30.375H41.3477V34H40.4297V30.375H39.7227V29.9336L40.4297 29.6641V29.3633C40.4297 28.9961 40.487 28.7044 40.6016 28.4883C40.7188 28.2721 40.8854 28.1172 41.1016 28.0234C41.3203 27.9271 41.5807 27.8789 41.8828 27.8789C42.0807 27.8789 42.2617 27.8958 42.4258 27.9297C42.5898 27.9609 42.7279 27.9974 42.8398 28.0391L42.6016 28.7344C42.513 28.7057 42.4141 28.6797 42.3047 28.6562C42.1953 28.6302 42.0781 28.6172 41.9531 28.6172C41.7448 28.6172 41.5911 28.6823 41.4922 28.8125C41.3958 28.9427 41.3477 29.1328 41.3477 29.3828V29.6758H42.3984V30.375ZM14.0586 45.0781C13.6497 45.0781 13.2956 44.9987 12.9961 44.8398C12.6966 44.681 12.4661 44.4375 12.3047 44.1094C12.1432 43.7812 12.0625 43.3646 12.0625 42.8594C12.0625 42.3333 12.151 41.9036 12.3281 41.5703C12.5052 41.237 12.75 40.9909 13.0625 40.832C13.3776 40.6732 13.7383 40.5938 14.1445 40.5938C14.4023 40.5938 14.6354 40.6198 14.8438 40.6719C15.0547 40.7214 15.2331 40.7826 15.3789 40.8555L15.1055 41.5898C14.9466 41.5247 14.7839 41.4701 14.6172 41.4258C14.4505 41.3815 14.2904 41.3594 14.1367 41.3594C13.8841 41.3594 13.6732 41.4154 13.5039 41.5273C13.3372 41.6393 13.2122 41.806 13.1289 42.0273C13.0482 42.2487 13.0078 42.5234 13.0078 42.8516C13.0078 43.1693 13.0495 43.4375 13.1328 43.6562C13.2161 43.8724 13.3398 44.0365 13.5039 44.1484C13.668 44.2578 13.8698 44.3125 14.1094 44.3125C14.3464 44.3125 14.5586 44.2839 14.7461 44.2266C14.9336 44.1693 15.1107 44.0951 15.2773 44.0039V44.8008C15.1133 44.8945 14.9375 44.9635 14.75 45.0078C14.5625 45.0547 14.332 45.0781 14.0586 45.0781ZM20.1211 42.8281C20.1211 43.1875 20.0742 43.5065 19.9805 43.7852C19.8867 44.0638 19.75 44.2995 19.5703 44.4922C19.3906 44.6823 19.1745 44.8281 18.9219 44.9297C18.6693 45.0286 18.3841 45.0781 18.0664 45.0781C17.7695 45.0781 17.4974 45.0286 17.25 44.9297C17.0026 44.8281 16.7878 44.6823 16.6055 44.4922C16.4258 44.2995 16.2865 44.0638 16.1875 43.7852C16.0885 43.5065 16.0391 43.1875 16.0391 42.8281C16.0391 42.3516 16.1211 41.9479 16.2852 41.6172C16.4518 41.2839 16.6888 41.0299 16.9961 40.8555C17.3034 40.681 17.6693 40.5938 18.0938 40.5938C18.4922 40.5938 18.8438 40.681 19.1484 40.8555C19.4531 41.0299 19.6914 41.2839 19.8633 41.6172C20.0352 41.9505 20.1211 42.3542 20.1211 42.8281ZM16.9844 42.8281C16.9844 43.1432 17.0221 43.4128 17.0977 43.6367C17.1758 43.8607 17.2956 44.0326 17.457 44.1523C17.6185 44.2695 17.8268 44.3281 18.082 44.3281C18.3372 44.3281 18.5456 44.2695 18.707 44.1523C18.8685 44.0326 18.987 43.8607 19.0625 43.6367C19.138 43.4128 19.1758 43.1432 19.1758 42.8281C19.1758 42.513 19.138 42.2461 19.0625 42.0273C18.987 41.806 18.8685 41.638 18.707 41.5234C18.5456 41.4062 18.3359 41.3477 18.0781 41.3477C17.6979 41.3477 17.4206 41.4753 17.2461 41.7305C17.0716 41.9857 16.9844 42.3516 16.9844 42.8281ZM23.4297 40.5938C23.9167 40.5938 24.2956 40.7201 24.5664 40.9727C24.8398 41.2227 24.9766 41.625 24.9766 42.1797V45H24.0586V42.3516C24.0586 42.0156 23.9896 41.7643 23.8516 41.5977C23.7135 41.4284 23.5 41.3438 23.2109 41.3438C22.7917 41.3438 22.5 41.4727 22.3359 41.7305C22.1745 41.9883 22.0938 42.362 22.0938 42.8516V45H21.1758V40.6758H21.8906L22.0195 41.2617H22.0703C22.1641 41.1107 22.2799 40.987 22.418 40.8906C22.5586 40.7917 22.7148 40.7174 22.8867 40.668C23.0612 40.6185 23.2422 40.5938 23.4297 40.5938ZM28.0039 45.0781C27.5951 45.0781 27.2409 44.9987 26.9414 44.8398C26.6419 44.681 26.4115 44.4375 26.25 44.1094C26.0885 43.7812 26.0078 43.3646 26.0078 42.8594C26.0078 42.3333 26.0964 41.9036 26.2734 41.5703C26.4505 41.237 26.6953 40.9909 27.0078 40.832C27.3229 40.6732 27.6836 40.5938 28.0898 40.5938C28.3477 40.5938 28.5807 40.6198 28.7891 40.6719C29 40.7214 29.1784 40.7826 29.3242 40.8555L29.0508 41.5898C28.8919 41.5247 28.7292 41.4701 28.5625 41.4258C28.3958 41.3815 28.2357 41.3594 28.082 41.3594C27.8294 41.3594 27.6185 41.4154 27.4492 41.5273C27.2826 41.6393 27.1576 41.806 27.0742 42.0273C26.9935 42.2487 26.9531 42.5234 26.9531 42.8516C26.9531 43.1693 26.9948 43.4375 27.0781 43.6562C27.1615 43.8724 27.2852 44.0365 27.4492 44.1484C27.6133 44.2578 27.8151 44.3125 28.0547 44.3125C28.2917 44.3125 28.5039 44.2839 28.6914 44.2266C28.8789 44.1693 29.056 44.0951 29.2227 44.0039V44.8008C29.0586 44.8945 28.8828 44.9635 28.6953 45.0078C28.5078 45.0547 28.2773 45.0781 28.0039 45.0781ZM31.9609 40.5938C32.3464 40.5938 32.6771 40.6732 32.9531 40.832C33.2292 40.9909 33.4414 41.2161 33.5898 41.5078C33.7383 41.7995 33.8125 42.1484 33.8125 42.5547V43.0469H30.9258C30.9362 43.4661 31.0482 43.7891 31.2617 44.0156C31.4779 44.2422 31.7799 44.3555 32.168 44.3555C32.444 44.3555 32.6914 44.3294 32.9102 44.2773C33.1315 44.2227 33.3594 44.1432 33.5938 44.0391V44.7852C33.3776 44.8867 33.1576 44.9609 32.9336 45.0078C32.7096 45.0547 32.4414 45.0781 32.1289 45.0781C31.7044 45.0781 31.3307 44.9961 31.0078 44.832C30.6875 44.6654 30.4362 44.418 30.2539 44.0898C30.0742 43.7617 29.9844 43.3542 29.9844 42.8672C29.9844 42.3828 30.0664 41.9714 30.2305 41.6328C30.3945 41.2943 30.625 41.0365 30.9219 40.8594C31.2188 40.6823 31.5651 40.5938 31.9609 40.5938ZM31.9609 41.2852C31.6719 41.2852 31.4375 41.3789 31.2578 41.5664C31.0807 41.7539 30.9766 42.0286 30.9453 42.3906H32.9141C32.9115 42.1745 32.875 41.9831 32.8047 41.8164C32.737 41.6497 32.6328 41.5195 32.4922 41.4258C32.3542 41.332 32.1771 41.2852 31.9609 41.2852ZM37.0664 40.5938C37.5794 40.5938 37.9909 40.7812 38.3008 41.1562C38.6133 41.5312 38.7695 42.0885 38.7695 42.8281C38.7695 43.3177 38.6966 43.7305 38.5508 44.0664C38.4076 44.3997 38.2057 44.6523 37.9453 44.8242C37.6875 44.9935 37.3867 45.0781 37.043 45.0781C36.8242 45.0781 36.6341 45.0495 36.4727 44.9922C36.3112 44.9349 36.1732 44.8607 36.0586 44.7695C35.944 44.6758 35.8477 44.5742 35.7695 44.4648H35.7148C35.7279 44.569 35.7396 44.6849 35.75 44.8125C35.763 44.9375 35.7695 45.0521 35.7695 45.1562V46.918H34.8477V40.6758H35.5977L35.7266 41.2734H35.7695C35.8503 41.151 35.9479 41.0378 36.0625 40.9336C36.1797 40.8294 36.3203 40.7474 36.4844 40.6875C36.651 40.625 36.8451 40.5938 37.0664 40.5938ZM36.8203 41.3438C36.5677 41.3438 36.3646 41.3945 36.2109 41.4961C36.0599 41.5951 35.9492 41.7448 35.8789 41.9453C35.8112 42.1458 35.7747 42.3971 35.7695 42.6992V42.8281C35.7695 43.1484 35.8021 43.4206 35.8672 43.6445C35.9349 43.8659 36.0456 44.0352 36.1992 44.1523C36.3555 44.2669 36.5664 44.3242 36.832 44.3242C37.056 44.3242 37.2409 44.263 37.3867 44.1406C37.5352 44.0182 37.6458 43.8438 37.7188 43.6172C37.7917 43.3906 37.8281 43.1237 37.8281 42.8164C37.8281 42.3503 37.7448 41.9883 37.5781 41.7305C37.4141 41.4727 37.1615 41.3438 36.8203 41.3438ZM41.4414 44.3359C41.5612 44.3359 41.6797 44.3255 41.7969 44.3047C41.9141 44.2812 42.0208 44.2539 42.1172 44.2227V44.918C42.0156 44.9622 41.8841 45 41.7227 45.0312C41.5612 45.0625 41.3932 45.0781 41.2188 45.0781C40.974 45.0781 40.7539 45.0378 40.5586 44.957C40.3633 44.8737 40.2083 44.7318 40.0938 44.5312C39.9792 44.3307 39.9219 44.0534 39.9219 43.6992V41.375H39.332V40.9648L39.9648 40.6406L40.2656 39.7148H40.8438V40.6758H42.082V41.375H40.8438V43.6875C40.8438 43.9062 40.8984 44.069 41.0078 44.1758C41.1172 44.2826 41.2617 44.3359 41.4414 44.3359Z" fill="white"/>
<defs>
<linearGradient id="paint0_linear_2156_2" x1="26.5" y1="9" x2="26.5" y2="62" gradientUnits="userSpaceOnUse">
<stop stop-color="#7380EB"/>
<stop offset="1" stop-color="#7DACF8"/>
</linearGradient>
<linearGradient id="paint1_linear_2156_2" x1="26.5" y1="9" x2="26.5" y2="62" gradientUnits="userSpaceOnUse">
<stop stop-color="#727FEB"/>
<stop offset="1" stop-color="#7DAFF9"/>
</linearGradient>
<linearGradient id="paint2_linear_2156_2" x1="95.5" y1="9" x2="95.5" y2="62" gradientUnits="userSpaceOnUse">
<stop stop-color="#7380EB"/>
<stop offset="1" stop-color="#7DAAF7"/>
</linearGradient>
<linearGradient id="paint3_linear_2156_2" x1="95.5" y1="9" x2="95.5" y2="62" gradientUnits="userSpaceOnUse">
<stop stop-color="#727FEB"/>
<stop offset="1" stop-color="#7DAFF9"/>
</linearGradient>
<linearGradient id="paint4_linear_2156_2" x1="164.5" y1="9" x2="164.5" y2="62" gradientUnits="userSpaceOnUse">
<stop stop-color="#7380EB"/>
<stop offset="1" stop-color="#7DAAF7"/>
</linearGradient>
<linearGradient id="paint5_linear_2156_2" x1="164.5" y1="9" x2="164.5" y2="62" gradientUnits="userSpaceOnUse">
<stop stop-color="#727FEB"/>
<stop offset="1" stop-color="#7DAFF9"/>
</linearGradient>
<linearGradient id="paint6_linear_2156_2" x1="233.5" y1="9" x2="233.5" y2="62" gradientUnits="userSpaceOnUse">
<stop stop-color="#7380EB"/>
<stop offset="1" stop-color="#7DAAF7"/>
</linearGradient>
<linearGradient id="paint7_linear_2156_2" x1="233.5" y1="9" x2="233.5" y2="62" gradientUnits="userSpaceOnUse">
<stop stop-color="#727FEB"/>
<stop offset="1" stop-color="#7DAFF9"/>
</linearGradient>
<linearGradient id="paint8_linear_2156_2" x1="302.5" y1="9" x2="302.5" y2="62" gradientUnits="userSpaceOnUse">
<stop stop-color="#7380EB"/>
<stop offset="1" stop-color="#7DAAF7"/>
</linearGradient>
<linearGradient id="paint9_linear_2156_2" x1="302.5" y1="9" x2="302.5" y2="62" gradientUnits="userSpaceOnUse">
<stop stop-color="#727FEB"/>
<stop offset="1" stop-color="#7DAFF9"/>
</linearGradient>
</defs>
</svg>
