<svg width="308" height="282" viewBox="0 0 308 282" fill="none" xmlns="http://www.w3.org/2000/svg">
<g filter="url(#filter0_d)">
<rect x="4" width="300" height="274" rx="10" fill="#F48046"/>
</g>
<path d="M136.049 144.031H131.283L130.213 147H128.666L133.01 135.625H134.323L138.674 147H137.135L136.049 144.031ZM131.737 142.797H135.604L133.666 137.477L131.737 142.797ZM151.945 142.547V147H150.445V135.625H154.641C155.885 135.625 156.859 135.943 157.562 136.578C158.271 137.214 158.625 138.055 158.625 139.102C158.625 140.206 158.279 141.057 157.586 141.656C156.898 142.25 155.911 142.547 154.625 142.547H151.945ZM151.945 141.32H154.641C155.443 141.32 156.057 141.133 156.484 140.758C156.911 140.378 157.125 139.831 157.125 139.117C157.125 138.44 156.911 137.898 156.484 137.492C156.057 137.086 155.471 136.875 154.727 136.859H151.945V141.32ZM172.279 142.547V147H170.779V135.625H174.974C176.219 135.625 177.193 135.943 177.896 136.578C178.605 137.214 178.959 138.055 178.959 139.102C178.959 140.206 178.612 141.057 177.92 141.656C177.232 142.25 176.245 142.547 174.959 142.547H172.279ZM172.279 141.32H174.974C175.776 141.32 176.391 141.133 176.818 140.758C177.245 140.378 177.459 139.831 177.459 139.117C177.459 138.44 177.245 137.898 176.818 137.492C176.391 137.086 175.805 136.875 175.06 136.859H172.279V141.32ZM86.2928 165.398H83.6209V170H82.1131V158.625H85.8788C87.16 158.625 88.1444 158.917 88.8319 159.5C89.5246 160.083 89.8709 160.932 89.8709 162.047C89.8709 162.755 89.6782 163.372 89.2928 163.898C88.9126 164.424 88.3814 164.818 87.6991 165.078L90.3709 169.906V170H88.7616L86.2928 165.398ZM83.6209 164.172H85.9256C86.6704 164.172 87.2616 163.979 87.6991 163.594C88.1418 163.208 88.3631 162.693 88.3631 162.047C88.3631 161.344 88.1522 160.805 87.7303 160.43C87.3136 160.055 86.7095 159.865 85.9178 159.859H83.6209V164.172ZM108.65 164.742H103.72V168.773H109.447V170H102.22V158.625H109.369V159.859H103.72V163.516H108.65V164.742ZM121.554 170V158.625H124.765C125.755 158.625 126.63 158.844 127.39 159.281C128.15 159.719 128.736 160.341 129.148 161.148C129.564 161.956 129.775 162.883 129.781 163.93V164.656C129.781 165.729 129.572 166.669 129.156 167.477C128.744 168.284 128.153 168.904 127.382 169.336C126.617 169.768 125.723 169.99 124.703 170H121.554ZM123.054 159.859V168.773H124.632C125.788 168.773 126.687 168.414 127.328 167.695C127.973 166.977 128.296 165.953 128.296 164.625V163.961C128.296 162.669 127.992 161.667 127.382 160.953C126.778 160.234 125.919 159.87 124.804 159.859H123.054ZM148.724 164.742H143.794V168.773H149.521V170H142.294V158.625H149.443V159.859H143.794V163.516H148.724V164.742ZM164.979 164.93C163.693 164.56 162.755 164.107 162.167 163.57C161.584 163.029 161.292 162.362 161.292 161.57C161.292 160.674 161.649 159.935 162.362 159.352C163.081 158.763 164.013 158.469 165.159 158.469C165.94 158.469 166.636 158.62 167.245 158.922C167.86 159.224 168.334 159.641 168.667 160.172C169.005 160.703 169.175 161.284 169.175 161.914H167.667C167.667 161.227 167.448 160.688 167.011 160.297C166.573 159.901 165.956 159.703 165.159 159.703C164.419 159.703 163.841 159.867 163.425 160.195C163.013 160.518 162.808 160.969 162.808 161.547C162.808 162.01 163.003 162.404 163.393 162.727C163.789 163.044 164.459 163.336 165.401 163.602C166.349 163.867 167.089 164.161 167.62 164.484C168.156 164.802 168.552 165.174 168.808 165.602C169.068 166.029 169.198 166.531 169.198 167.109C169.198 168.031 168.839 168.771 168.12 169.328C167.401 169.88 166.44 170.156 165.237 170.156C164.456 170.156 163.727 170.008 163.05 169.711C162.373 169.409 161.849 168.997 161.479 168.477C161.115 167.956 160.933 167.365 160.933 166.703H162.44C162.44 167.391 162.693 167.935 163.198 168.336C163.709 168.732 164.388 168.93 165.237 168.93C166.029 168.93 166.636 168.768 167.058 168.445C167.479 168.122 167.69 167.682 167.69 167.125C167.69 166.568 167.495 166.138 167.104 165.836C166.714 165.529 166.005 165.227 164.979 164.93ZM182.977 170H181.477V158.625H182.977V170ZM204.366 168.508C203.98 169.06 203.441 169.474 202.748 169.75C202.061 170.021 201.259 170.156 200.342 170.156C199.415 170.156 198.592 169.94 197.873 169.508C197.155 169.07 196.597 168.451 196.202 167.648C195.811 166.846 195.61 165.917 195.6 164.859V163.867C195.6 162.154 195.998 160.826 196.795 159.883C197.597 158.94 198.722 158.469 200.17 158.469C201.358 158.469 202.314 158.773 203.038 159.383C203.761 159.987 204.204 160.846 204.366 161.961H202.866C202.584 160.456 201.689 159.703 200.178 159.703C199.173 159.703 198.41 160.057 197.889 160.766C197.373 161.469 197.113 162.49 197.108 163.828V164.758C197.108 166.034 197.399 167.049 197.983 167.805C198.566 168.555 199.355 168.93 200.35 168.93C200.913 168.93 201.405 168.867 201.827 168.742C202.248 168.617 202.597 168.406 202.873 168.109V165.555H200.241V164.336H204.366V168.508ZM225.856 170H224.348L218.621 161.234V170H217.113V158.625H218.621L224.363 167.43V158.625H225.856V170Z" fill="white"/>
<path d="M134.742 102.625V110.117C134.742 111.362 134.352 112.346 133.57 113.07C132.794 113.794 131.732 114.156 130.383 114.156C129.055 114.156 128 113.805 127.219 113.102C126.438 112.398 126.039 111.432 126.023 110.203V102.625H128.367V110.133C128.367 110.878 128.544 111.422 128.898 111.766C129.258 112.104 129.753 112.273 130.383 112.273C131.701 112.273 132.37 111.581 132.391 110.195V102.625H134.742ZM145.914 114H143.57L139.008 106.516V114H136.664V102.625H139.008L143.578 110.125V102.625H145.914V114ZM150.453 114H148.109V102.625H150.453V114ZM161.961 108.57C161.961 109.633 161.789 110.557 161.445 111.344C161.102 112.125 160.625 112.753 160.016 113.227L161.906 114.711L160.414 116.031L157.992 114.086C157.716 114.133 157.43 114.156 157.133 114.156C156.19 114.156 155.349 113.93 154.609 113.477C153.87 113.023 153.297 112.378 152.891 111.539C152.484 110.695 152.279 109.727 152.273 108.633V108.07C152.273 106.951 152.474 105.966 152.875 105.117C153.281 104.263 153.852 103.609 154.586 103.156C155.326 102.698 156.169 102.469 157.117 102.469C158.065 102.469 158.906 102.698 159.641 103.156C160.38 103.609 160.951 104.263 161.352 105.117C161.758 105.966 161.961 106.948 161.961 108.062V108.57ZM159.586 108.055C159.586 106.862 159.372 105.956 158.945 105.336C158.518 104.716 157.909 104.406 157.117 104.406C156.331 104.406 155.724 104.714 155.297 105.328C154.87 105.938 154.654 106.833 154.648 108.016V108.57C154.648 109.732 154.862 110.633 155.289 111.273C155.716 111.914 156.331 112.234 157.133 112.234C157.919 112.234 158.523 111.927 158.945 111.312C159.367 110.693 159.581 109.792 159.586 108.609V108.055ZM166.023 112.117H171V114H163.68V102.625H166.023V112.117ZM181.195 108.57C181.195 109.69 180.997 110.672 180.602 111.516C180.206 112.359 179.638 113.01 178.898 113.469C178.164 113.927 177.32 114.156 176.367 114.156C175.424 114.156 174.583 113.93 173.844 113.477C173.104 113.023 172.531 112.378 172.125 111.539C171.719 110.695 171.513 109.727 171.508 108.633V108.07C171.508 106.951 171.708 105.966 172.109 105.117C172.516 104.263 173.086 103.609 173.82 103.156C174.56 102.698 175.404 102.469 176.352 102.469C177.299 102.469 178.141 102.698 178.875 103.156C179.615 103.609 180.185 104.263 180.586 105.117C180.992 105.966 181.195 106.948 181.195 108.062V108.57ZM178.82 108.055C178.82 106.862 178.607 105.956 178.18 105.336C177.753 104.716 177.143 104.406 176.352 104.406C175.565 104.406 174.958 104.714 174.531 105.328C174.104 105.938 173.888 106.833 173.883 108.016V108.57C173.883 109.732 174.096 110.633 174.523 111.273C174.951 111.914 175.565 112.234 176.367 112.234C177.154 112.234 177.758 111.927 178.18 111.312C178.602 110.693 178.815 109.792 178.82 108.609V108.055Z" fill="white"/>
<path d="M186.933 127.674V107.687C186.986 98.643 183.374 89.9471 176.926 83.6057C170.691 77.3981 162.53 74 153.888 74C153.754 74 153.594 74 153.46 74C135.024 74.0268 120.041 89.1176 120.041 107.687V127.674C113.084 128.504 108 134.337 108 141.4V186.298C108 193.924 114.101 200.212 121.726 200.212H185.274C192.899 200.212 199 193.924 199 186.298V141.4C198.973 134.363 193.889 128.504 186.933 127.674ZM125.365 107.687H125.392C125.392 92.0609 137.994 79.2711 153.487 79.2711H153.513C160.872 79.2443 167.935 82.1608 173.153 87.3517C178.585 92.7298 181.608 100.061 181.555 107.687V127.701H175.668V107.687C175.722 101.613 173.313 95.7801 169.006 91.499C164.939 87.4319 159.427 85.1308 153.674 85.1308H153.513C141.205 85.1308 131.252 95.2449 131.252 107.66V127.701H125.365V107.687ZM170.343 107.687V127.701H136.63V107.687C136.63 98.2149 144.175 90.509 153.54 90.509H153.701C158.035 90.509 162.209 92.2482 165.286 95.3252C168.551 98.5895 170.397 103.058 170.343 107.687ZM193.889 186.379C193.889 191.061 190.09 194.861 185.408 194.861H121.833C117.151 194.861 113.351 191.061 113.351 186.379V141.534C113.351 136.852 117.151 133.052 121.833 133.052H185.408C190.09 133.052 193.889 136.852 193.889 141.534V186.379Z" fill="white" fill-opacity="0.17"/>
<path d="M162.749 162.294C161.572 158.147 157.799 155.311 153.491 155.311C148.167 155.311 143.832 159.618 143.832 164.97C143.832 169.278 146.668 173.05 150.816 174.228V181.72C150.816 183.191 152.02 184.395 153.491 184.395C154.963 184.395 156.167 183.191 156.167 181.72V174.228C161.277 172.756 164.248 167.405 162.749 162.294ZM153.491 169.251C151.11 169.251 149.183 167.324 149.183 164.943C149.183 162.562 151.11 160.635 153.491 160.635C155.873 160.635 157.799 162.562 157.799 164.943C157.799 167.324 155.873 169.251 153.491 169.251Z" fill="white" fill-opacity="0.17"/>
<defs>
<filter id="filter0_d" x="0" y="0" width="308" height="282" filterUnits="userSpaceOnUse" color-interpolation-filters="sRGB">
<feFlood flood-opacity="0" result="BackgroundImageFix"/>
<feColorMatrix in="SourceAlpha" type="matrix" values="0 0 0 0 0 0 0 0 0 0 0 0 0 0 0 0 0 0 127 0"/>
<feOffset dy="4"/>
<feGaussianBlur stdDeviation="2"/>
<feColorMatrix type="matrix" values="0 0 0 0 0.516667 0 0 0 0 0.516667 0 0 0 0 0.516667 0 0 0 0.25 0"/>
<feBlend mode="normal" in2="BackgroundImageFix" result="effect1_dropShadow"/>
<feBlend mode="normal" in="SourceGraphic" in2="effect1_dropShadow" result="shape"/>
</filter>
</defs>
</svg>
